<?xml version="1.0" encoding="UTF-8"?><svg xmlns="http://www.w3.org/2000/svg" xmlns:xlink="http://www.w3.org/1999/xlink" viewBox="0 0 958.95 958.95"><defs><style>.cls-1{fill:#fff;}.cls-2{isolation:isolate;}.cls-3{fill:#ef3340;}.cls-4{fill:#00b5e2;}.cls-5{fill:url(#radial-gradient);mix-blend-mode:multiply;opacity:.3;}.cls-6{clip-path:url(#clippath);}.cls-7{fill:none;}.cls-8{fill:#509e2f;}</style><clipPath id="clippath"><circle class="cls-7" cx="479.47" cy="479.47" r="479.47"/></clipPath><radialGradient id="radial-gradient" cx="479.47" cy="479.47" fx="479.47" fy="479.47" r="479.47" gradientUnits="userSpaceOnUse"><stop offset="0" stop-color="#fff"/><stop offset=".36" stop-color="#fdfdfd"/><stop offset=".48" stop-color="#f6f6f6"/><stop offset=".58" stop-color="#eaeaea"/><stop offset=".65" stop-color="#d9d9d9"/><stop offset=".71" stop-color="#c3c3c3"/><stop offset=".77" stop-color="#a8a8a8"/><stop offset=".82" stop-color="#878787"/><stop offset=".87" stop-color="#626262"/><stop offset=".91" stop-color="#373737"/><stop offset=".95" stop-color="#090909"/><stop offset=".96" stop-color="#000"/></radialGradient></defs><g class="cls-2"><g id="Layer_2"><g id="Layer_1-2"><g id="Azerbaijan"><g class="cls-6"><g><rect class="cls-4" x="-479.45" width="1917.85" height="319.66"/><rect class="cls-3" x="-479.45" y="319.63" width="1917.85" height="319.66"/><rect class="cls-8" x="-479.45" y="639.29" width="1917.85" height="319.66"/><polygon class="cls-1" points="670.51 479.46 628.12 464.3 647.09 423.27 606.64 442.04 591.35 399.65 576.06 442.04 535.61 423.27 554.58 464.3 512.19 479.46 554.58 494.63 535.61 535.66 576.06 516.88 591.35 559.27 606.64 516.88 647.09 535.66 628.12 494.63 670.51 479.46"/><path class="cls-1" d="m463.59,598.67c31.57,0,60.3-12.29,81.66-32.39-26.11,34.3-67.4,56.37-113.83,56.37-79.09,0-143.22-64.07-143.22-143.16s64.13-143.22,143.22-143.22c46.43,0,87.72,22.07,113.83,56.37-21.36-20.1-50.09-32.39-81.66-32.39-65.82,0-119.18,53.36-119.18,119.24s53.36,119.18,119.18,119.18Z"/></g><circle class="cls-5" cx="479.47" cy="479.47" r="479.47"/></g></g></g></g></g></svg>