<?xml version="1.0" encoding="UTF-8"?><svg xmlns="http://www.w3.org/2000/svg" xmlns:xlink="http://www.w3.org/1999/xlink" viewBox="0 0 958.95 958.95"><defs><style>.cls-1{fill:#fff;}.cls-2{isolation:isolate;}.cls-3{fill:url(#radial-gradient);mix-blend-mode:multiply;opacity:.3;}.cls-4{fill:#f7e017;}.cls-5{clip-path:url(#clippath);}.cls-6{fill:none;}.cls-7{fill:#cf1126;}</style><clipPath id="clippath"><circle class="cls-6" cx="479.47" cy="479.47" r="479.47"/></clipPath><radialGradient id="radial-gradient" cx="479.47" cy="479.47" fx="479.47" fy="479.47" r="479.47" gradientUnits="userSpaceOnUse"><stop offset="0" stop-color="#fff"/><stop offset=".36" stop-color="#fdfdfd"/><stop offset=".48" stop-color="#f6f6f6"/><stop offset=".58" stop-color="#eaeaea"/><stop offset=".65" stop-color="#d9d9d9"/><stop offset=".71" stop-color="#c3c3c3"/><stop offset=".77" stop-color="#a8a8a8"/><stop offset=".82" stop-color="#878787"/><stop offset=".87" stop-color="#626262"/><stop offset=".91" stop-color="#373737"/><stop offset=".95" stop-color="#090909"/><stop offset=".96" stop-color="#000"/></radialGradient></defs><g class="cls-2"><g id="Layer_2"><g id="Layer_1-2"><g id="Brunei"><g class="cls-5"><g><g><polygon class="cls-4" points="-479.47 66.59 1438.42 466.16 1438.42 0 -479.47 0 -479.47 66.59"/><polygon class="cls-1" points="-479.47 66.59 1438.42 466.16 1438.42 692.57 -479.47 293.01 -479.47 66.59"/><polygon points="-479.47 293.01 1438.42 692.57 1438.42 892.36 -479.47 492.79 -479.47 293.01"/><polygon class="cls-4" points="1438.42 892.36 1438.42 958.95 -479.47 958.95 -479.47 492.79 1438.42 892.36"/></g><g><path class="cls-7" d="m447.16,758.8c-25.79-3.42-49.43-11.63-65.85-22.87-3.18-2.18-6.18-3.97-6.65-3.97s-.87,2.42-.87,5.42c0,8.48-3.41,12.76-11.99,14.98-8.2,2.13-20.72-2.17-30.87-10.59-10.51-8.72-22.64-15.38-32.91-18.05-8.46-2.21-19.69-1.85-27.8.87-3.77,1.27-8.06,3.05-9.55,3.97-1.48.92-3.14,1.66-3.68,1.66-1.44,0-1.24-9.12.27-12.04,1.98-3.82,6.87-7.59,12.57-9.67,2.88-1.05,5.23-2.4,5.23-3s-.97-2.8-2.16-4.86c-3.86-6.77-2.28-13.32,4.46-18.47,6.9-5.27,18.58-6.18,28.9-2.25,2.6.99,5.02,1.8,5.38,1.8,1.36,0,.53-1.9-3.21-7.35-4.32-6.31-5.17-9.43-4.63-16.94.69-9.51,8.44-17.29,17.94-17.98,7.75-.56,12.57,2.05,24.01,12.95,34.16,32.58,71.31,50.53,114.63,55.39,10.93,1.23,32.94.57,45.84-1.37,38.98-5.87,78.26-25.48,108.93-54.37,8.5-8,12.59-10.12,19.55-10.15,6.06-.03,10.31,1.93,14.65,6.73,3.96,4.4,5.3,8.56,4.87,15.24-.28,4.28-.97,6.38-3.52,10.52-3.76,6.11-3.12,6.67,4.32,3.8,10.04-3.92,22.42-2.1,29.09,4.24,5.87,5.58,6.43,11.16,1.86,18.73-1.66,2.77-3.02,5.37-3.02,5.78,0,.76,1.27,1.12,7.37,2.1,7.98,1.28,12.55,7.21,12.55,16.26,0,2.72-.33,4.93-.75,4.93s-3.42-1.11-6.71-2.46c-9.3-3.84-14.58-4.82-25.45-4.75-8.27.05-11.12.44-16.89,2.32-8.83,2.89-18.27,8.46-25.97,15.32-8.48,7.57-13.82,9.95-22.08,9.88-7.67-.08-12.92-2.3-15.69-6.69-1.48-2.34-1.69-3.77-1.33-9.07.24-3.45.19-6.27-.09-6.27s-3.28,1.89-6.65,4.22c-8.84,6.07-14.48,9.08-24.6,13.09-30.87,12.21-75.42,17.5-109.53,12.99h0Z"/><path class="cls-7" d="m461.28,699.46c-51.38-4.93-100.55-31.7-130.44-74.13-32.46-44.26-42.69-102.71-32.78-156.15,5.27-24.33,15.89-48.67,34.02-66-14.45,30.64-19.33,65.75-11.63,98.94,11.97,66.26,67.97,122.36,134.97,132.06,26.5,7.67,53.92-.43,79.24-8.65,55.85-19.68,98.4-72.7,103.59-131.96,4.44-32.07-.48-65.41-14.93-94.45,8.23,4.35,18.63,21.43,24.76,32.91,21.31,41.29,22.29,90.77,9.74,134.84-17.02,56.07-59.89,105.19-116.55,123.04-25.72,8.4-53.06,10.96-79.99,9.55h0Z"/><g id="hand"><path class="cls-7" d="m202.47,625.85c-3.37-.53-7.08,2.79-5.81,6.26,2.43,3.51,6.61,5.22,10.39,6.9,9.05,3.63,18.88,5.04,28.6,4.8-3.35,0,1.15.03,2.4,0,7.69.02,15.34-1.36,22.57-3.97,4.02-1.41,9.14-2.7,10.79-7.14,1.61-2.9-1.31-5.79-4.24-5.21-4.09.89-7.92,2.75-11.97,3.81-8.75,2.47-17.97,3.42-27.04,2.68-6.63-.81-13.06-2.93-19.19-5.52-2.13-.94-4.12-2.31-6.48-2.6h0Z"/><path class="cls-7" d="m206.21,612.02c-3.4-.51-6.34,3.41-4.92,6.54,2.62,3.79,7.02,5.81,11.13,7.59,7.15,2.86,14.92,4.06,22.61,3.83-2.92,0,1,.03,2.08,0,6.54,0,13.04-1.28,19.08-3.77,3.69-1.44,8.22-2.83,9.75-6.9,1.19-2.23.28-5.48-2.53-5.66-2.57-.13-4.79,1.51-7.16,2.24-8.64,3.57-18.14,5.09-27.46,4.28-5.8-.75-11.35-2.89-16.61-5.37-1.98-.95-3.76-2.44-5.98-2.79h0Z"/><path class="cls-7" d="m210.81,598.77c-2.92-.35-4.93,2.94-4.43,5.57.44,2.31,2.51,3.86,4.22,5.28,7.1,5.19,16.09,7.4,24.81,7.11-3.38-.01,4.54.06,2.12,0,5.52-.02,10.97-1.37,15.94-3.76,3.31-1.44,7.21-3.11,8.32-6.9.53-1.76.87-4.3-1.12-5.29-2.08-1.16-4.15.63-6.05,1.35-6.38,3.25-13.49,5.05-20.65,5.02-6.19.21-12.03-2.4-17.4-5.2-1.95-.99-3.56-2.72-5.76-3.17h0Z"/><path class="cls-7" d="m161.86,403.16c-4.34,4.34-1.03,12.35-1.26,18.04,2.25,17.52,5.04,35.27,11.58,51.77,8.01,16.12,25.03,24.74,35.34,38.98,3.69,6.87,2.38,15.12,3.15,22.63.61,20.47.42,40.95.06,61.41,9.24,4.64,19.28,9.3,29.91,7.52,6.3-1.51,18-2.44,19.31-8.72-.51-35.29-.84-70.6-1.31-105.89-3.58-10.81-14.59-16.41-22.81-23.33-6.79-6.69-13.11-13.9-18.9-21.44-3.49-5.88-17.14-8-12.2,2.23,2.89,8.86,10.28,15.46,12.13,24.78.4,5.1,6.5,14.49,1.3,17.47-3.31-5.62-8.1-10.41-14.23-13.26-5.9-4.4-15.66-6.23-17.79-14.01-1.56-11.03-7.21-21.02-14.5-29.28,1.88-9.9,0-22.29-8.56-28.62l-1.23-.28h0s0,0,0,0Z"/><path class="cls-7" d="m175.06,405.14c-3.95.64-3.81,5.67-1.99,8.31,1.94,5.71,2.47,11.91,1.42,17.86,7.02,8.21,12.45,18.04,14.09,28.82.04,4.05,4.31,5.4,7.07,7.4,6.49,4.13,13.78,7.13,19.56,12.3,1.22,1.3,2.13,2.7,1.27.05-.9-3.39-1.37-7.14-4.02-9.7-3.64-3.91-8.19-7.41-13.5-8.6-.44-5.48-3.05-10.51-5.46-15.36-2.67-4.63-5.46-9.6-10.04-12.6.18-8.12.05-16.64-3.44-24.14-1.02-1.93-2.53-4.21-4.95-4.33h0Z"/><path class="cls-7" d="m186.1,408.38c-2.75.82-2.22,4.21-1.35,6.28,1.32,5.75,1.52,11.68,1.42,17.56,5.05,4,8.21,9.79,11.08,15.43,1.8,3.77,3.51,7.66,4.2,11.81,4.1,1.36,7.68,3.92,10.88,6.76-1.27-3.84-4.1-6.81-6-10.31-2.07-3.65-4.04-7.45-4.92-11.58-3.94-4.21-6.11-10.16-5.25-15.92.18-6.36-1.88-12.93-6.13-17.73-1.07-1.06-2.35-2.22-3.93-2.3h0Z"/><path class="cls-7" d="m198.66,410.18c-1.49.26-2.4,1.69-3.21,2.85-.31,1.16,1.12,2.41,1.34,3.68,1.75,4.38,2.41,9.19,1.89,13.89-.12,3.33,1.08,6.59,2.78,9.41.49-2.08,2.42-3.58,4.51-3.78.76-.13,1.88.25,1.44-.91-.53-6.37-1.5-12.78-3.73-18.8-.86-2.15-1.84-4.41-3.71-5.89-.38-.27-.83-.5-1.31-.43h0Z"/></g><g id="hand-2"><path class="cls-7" d="m756.48,625.85c3.37-.53,7.08,2.79,5.81,6.26-2.43,3.51-6.61,5.22-10.39,6.9-9.05,3.63-18.88,5.04-28.6,4.8,3.35,0-1.15.03-2.4,0-7.69.02-15.34-1.36-22.57-3.97-4.02-1.41-9.14-2.7-10.79-7.14-1.61-2.9,1.31-5.79,4.24-5.21,4.09.89,7.92,2.75,11.97,3.81,8.75,2.47,17.97,3.42,27.04,2.68,6.63-.81,13.06-2.93,19.19-5.52,2.13-.94,4.12-2.31,6.48-2.6h0Z"/><path class="cls-7" d="m752.73,612.02c3.4-.51,6.34,3.41,4.92,6.54-2.62,3.79-7.02,5.81-11.13,7.59-7.15,2.86-14.92,4.06-22.61,3.83,2.92,0-1,.03-2.08,0-6.54,0-13.04-1.28-19.08-3.77-3.69-1.44-8.22-2.83-9.75-6.9-1.19-2.23-.28-5.48,2.53-5.66,2.57-.13,4.79,1.51,7.16,2.24,8.64,3.57,18.14,5.09,27.46,4.28,5.8-.75,11.35-2.89,16.61-5.37,1.98-.95,3.76-2.44,5.98-2.79h0Z"/><path class="cls-7" d="m748.14,598.77c2.92-.35,4.93,2.94,4.43,5.57-.44,2.31-2.51,3.86-4.22,5.28-7.1,5.19-16.09,7.4-24.81,7.11,3.38-.01-4.54.06-2.12,0-5.52-.02-10.97-1.37-15.94-3.76-3.31-1.44-7.21-3.11-8.32-6.9-.53-1.76-.87-4.3,1.12-5.29,2.08-1.16,4.15.63,6.05,1.35,6.38,3.25,13.49,5.05,20.65,5.02,6.19.21,12.03-2.4,17.4-5.2,1.95-.99,3.56-2.72,5.76-3.17h0Z"/><path class="cls-7" d="m797.09,403.16c4.34,4.34,1.03,12.35,1.26,18.04-2.25,17.52-5.04,35.27-11.58,51.77-8.01,16.12-25.03,24.74-35.34,38.98-3.69,6.87-2.38,15.12-3.15,22.63-.61,20.47-.42,40.95-.06,61.41-9.24,4.64-19.28,9.3-29.91,7.52-6.3-1.51-18-2.44-19.31-8.72.51-35.29.84-70.6,1.31-105.89,3.58-10.81,14.59-16.41,22.81-23.33,6.79-6.69,13.11-13.9,18.9-21.44,3.49-5.88,17.14-8,12.2,2.23-2.89,8.86-10.28,15.46-12.13,24.78-.4,5.1-6.5,14.49-1.3,17.47,3.31-5.62,8.1-10.41,14.23-13.26,5.9-4.4,15.66-6.23,17.79-14.01,1.56-11.03,7.21-21.02,14.5-29.28-1.88-9.9,0-22.29,8.56-28.62l1.23-.28h0s0,0,0,0Z"/><path class="cls-7" d="m783.89,405.14c3.95.64,3.81,5.67,1.99,8.31-1.94,5.71-2.47,11.91-1.42,17.86-7.02,8.21-12.45,18.04-14.09,28.82-.04,4.05-4.31,5.4-7.07,7.4-6.49,4.13-13.78,7.13-19.56,12.3-1.22,1.3-2.13,2.7-1.27.05.9-3.39,1.37-7.14,4.02-9.7,3.64-3.91,8.19-7.41,13.5-8.6.44-5.48,3.05-10.51,5.46-15.36,2.67-4.63,5.46-9.6,10.04-12.6-.18-8.12-.05-16.64,3.44-24.14,1.02-1.93,2.53-4.21,4.95-4.33h0Z"/><path class="cls-7" d="m772.85,408.38c2.75.82,2.22,4.21,1.35,6.28-1.32,5.75-1.52,11.68-1.42,17.56-5.05,4-8.21,9.79-11.08,15.43-1.8,3.77-3.51,7.66-4.2,11.81-4.1,1.36-7.68,3.92-10.88,6.76,1.27-3.84,4.1-6.81,6-10.31,2.07-3.65,4.04-7.45,4.92-11.58,3.94-4.21,6.11-10.16,5.25-15.92-.18-6.36,1.88-12.93,6.13-17.73,1.07-1.06,2.35-2.22,3.93-2.3h0Z"/><path class="cls-7" d="m760.29,410.18c1.49.26,2.4,1.69,3.21,2.85.31,1.16-1.12,2.41-1.34,3.68-1.75,4.38-2.41,9.19-1.89,13.89.12,3.33-1.08,6.59-2.78,9.41-.49-2.08-2.42-3.58-4.51-3.78-.76-.13-1.88.25-1.44-.91.53-6.37,1.5-12.78,3.73-18.8.86-2.15,1.84-4.41,3.71-5.89.38-.27.83-.5,1.31-.43h0Z"/></g><path class="cls-7" d="m473.71,633.95c-17.97-1.71-34.19-14.81-39.73-31.96.3-2.96,3.98,1.65,5.72,1.96,3.26,1.81,6.79,3.3,10.55,3.53,4.74,2.04,7.67,6.71,12.19,9.14,2.1,1.64,9.53,4.85,8.15-.35-1.74-2.72-2.94-6.16-1.44-9.27,2.52-5.53,6.4-10.34,10.3-14.95,2.87-.96,4.79,4.7,6.84,6.6,2.84,4.37,6.26,9.7,4.59,15.12-1.62,2.01-2.69,8.05,1.65,6.02,5.36-2.36,9.74-6.32,14.19-10.01,3.89-2.71,8.86-2.91,12.94-5.29,1.89-.48,5.82-4.25,6.64-2.16-2.23,5.98-5.97,11.33-9.97,16.26-6.47,7.39-15.23,12.95-25.02,14.52-5.79,1.06-11.73,1.28-17.59.84h0Z"/><path class="cls-7" d="m494.83,612.96c.4-3.61-.43-7.29-2.27-10.57-2.83-5.76-6.82-10.88-10.72-15.93-3.67-2.15-5.71,4.87-8.15,6.89-3.8,5.7-8.58,11.53-8.81,18.69-2.14,3.33-6.13-2.72-7.85-4.71-3.29-4.65-5.77-10.15-5.37-15.97-.39-9.37,1.41-18.7,4.82-27.41,2.58-7.44,6.76-14.66,6.33-22.78.3-6.11-.94-12.86-5.9-16.97-4.71-3.7,3.05-4.48,5.52-2.57,4.22.28,6.5,7.26,10.36,5.53,1.54-3.64,1.84-7.99,5.01-10.83,3.11-4.26,6.36,1.81,7.42,4.65,2.19,2.49-.12,8.67,3.44,8.83,4.27-2.99,7.32-8.02,12.78-9.12,2.21-1.26,6-.17,3.08,2.38-4.04,3.79-7.49,8.52-8.23,14.16-1.24,7.07.53,14.24,3.61,20.6,5.92,12.51,10.5,26.63,7.51,40.55-1.39,6.19-5.59,11.51-10.7,15.1-.65.39-1.66.36-1.88-.53h0Z"/><path class="cls-7" d="m488.44,518.94c-1.94-3.49-4.29-6.94-7.56-9.32-3.17,0-5.13,3.99-7.28,6.09-1.51,2.81-3.35,7.51-7.07,3.84-5.92-3.45-6.97-11.02-6.93-17.26-.37-10.11,3.7-19.54,7.32-28.75,2.3-5.76,1.73-12.25.33-18.16-1.77-6.78-7.21-11.48-11.4-16.77.29-2.05,5.64-.93,7.66-.54,4.47,1.13,7.15,5.09,10.48,7.89,2.37-.72,1.4-5.51,2.51-7.77.08-3.17,4.31-7.36,6.05-2.81,2.61,2.89-.08,8.61,3.29,10.41,3.21-1.19,4.8-4.7,7.81-6.29,2.97-2.02,7.16-2.25,10.36-.66,1.13,2.95-3.52,5.4-4.86,7.96-5.4,6.67-7.29,15.86-4.98,24.12,1.83,6.48,5.08,12.53,6.2,19.22,1.35,7.53,1.3,15.44-.64,22.85-1.16,4.5-5.06,7.51-9.09,9.38-.99-.92-1.52-2.28-2.19-3.44h0Z"/><path class="cls-7" d="m468.3,435.38c-4.48-3.28-5.95-6.41-5.95-12.6,0-3.17.59-4.89,2.68-7.76,3.08-4.26,2.52-5.61-1.84-4.36-7.01,2.01-10.35.17-10.59-5.79-.11-2.92.51-4.16,4.44-8.87,3.14-3.78,4.29-5.77,3.66-6.39-.61-.61-4.33,2.61-11.96,10.38-6.09,6.19-12.93,12.52-15.21,14.06-13.11,8.84-25.63,10.22-31.34,3.41-2.93-3.48-2.77-5.43.61-7.54,1.56-.96,4.18-3.17,5.85-4.91,3.93-4.09,15.64-12.53,21.44-15.46,4.71-2.38,5.83-4,2.77-4-3.97,0-16.7,8.28-26.36,17.15-2.84,2.62-6.93,5.54-9.07,6.49-4.82,2.13-14.29,2.92-18.5,1.53-2.97-.99-8.39-6.1-8.39-7.92,0-.48,1.24-1.54,2.74-2.36,1.51-.8,4.21-2.76,5.99-4.32,7.72-6.78,22.36-13.76,33.98-16.2,3.69-.77,2.33-2.64-1.78-2.45-7.98.35-23.81,7.76-33.27,15.57-11.08,9.14-27.8,8.27-33.18-1.72-.93-1.72-1.48-3.33-1.21-3.58.25-.25,3.54-1.24,7.31-2.2,4.08-1.03,12.15-4.37,19.86-8.22,12.13-6.05,15.73-7.34,24.08-8.68,3.76-.6,3.96-2.44.31-2.86-4.7-.56-11.91,1.8-24.64,8.06-16.36,8.04-20.94,9.43-29.55,8.92-7.86-.48-12.29-2.49-18.67-8.52-4.17-3.96-10.08-14-8.92-15.16.28-.28,2.2,0,4.26.6,2.29.68,8.86,1.13,16.77,1.15,11.07.03,14.01-.27,19.91-1.97,9.87-2.85,22.99-9.52,31.96-16.22,17.17-12.84,31.17-17.99,49.01-18.07,16.48-.07,26.96,3.74,36.24,13.16,3.14,3.18,5.82,5.25,6.26,4.81.41-.41.87-5.98,1-12.37,0,0,4.85-.47,5.87.89,0,10.38.12,11.19,1.62,11.19.99,0,2.04-1.01,2.69-2.58,1.41-3.4,6.63-8.04,12.21-10.87,12.05-6.11,32.91-6.3,49.67-.45,7.06,2.48,14.89,6.9,22.35,12.65,7.49,5.75,22.79,13.45,31.83,16.02,9.15,2.6,25.28,3.25,33.55,1.37,3.41-.77,6.61-1.41,7.11-1.41,3.05,0-2.14,10.16-8.24,16.12-11.15,10.89-25.65,10.84-46.06-.16-12.72-6.85-27.93-10.59-27.93-6.86,0,.77.8,1.29,1.98,1.29,4.42,0,12.96,2.97,24.87,8.62,12.88,6.13,20.11,8.71,24.4,8.71,3.12,0,3.21,1.93.31,6.19-3.08,4.54-8.3,6.79-15.68,6.78-7.05-.03-10.96-1.57-17.26-6.81-10.54-8.76-36.79-18.54-35.77-13.32.2,1.04,1.47,1.68,4.17,2.09,9.14,1.4,19.86,6.51,30.83,14.73,3.38,2.54,6.9,5.05,7.79,5.58,1.51.88,1.53,1.15.35,3.37-1.97,3.68-6.94,6.53-12.32,7.09-6.97.72-13.03-1.36-19.3-6.61-13.24-11.08-25.72-19.1-29.71-19.1-3.26,0-1.8,1.8,3.96,4.85,7.57,4.01,15.34,9.43,21.07,14.69,2.7,2.5,5.75,4.98,6.77,5.53,2.4,1.28,2.3,3.16-.33,6.61-2.69,3.52-7.14,5.06-12.91,4.45-11.51-1.21-20.48-6.77-34.59-21.4-5.51-5.71-10.43-10.39-10.93-10.39-1.88,0-.77,2.54,2.86,6.62,4.5,5.03,5.37,7.87,3.66,11.96-1.51,3.62-4.01,4.46-9.15,3.08-5.26-1.43-6.09-.13-2.64,4.16,5.14,6.41,4.38,14.25-1.92,19.65-1.96,1.66-4.01,3.04-4.57,3.04s-1.93-1.43-3.09-3.17c-4.05-6.15-7.61-6.11-11.55.11-1.37,2.17-2.53,3.93-2.57,3.92-.05-.01-1.9-1.35-4.1-2.97h0Z"/><path class="cls-7" d="m488.36,310.37l-6.83,5.41-6.13-4.62v36.95l12.96.16v-37.89Z"/><path class="cls-7" d="m446.03,272.04c-1.36,17.46-5.79,29.65-11.96,43.09l14.78-13.7,10.28,12.21,11.13-12.43,11.36,10.5,10.92-10.92,11.35,13.28,9.86-10.92,16.7,11.99c-6.06-13.44-14.26-24.83-13.24-43.74-16.18,12.03-54.63,14.2-71.19.65h0Z"/><path class="cls-7" d="m475.41,263.13c-5.94.11-12.2.19-17.83,1.29-3.9.77-7.45,2.04-10.4,4.13.48,11.36,54.61,16.1,69.12.21-3.05-2.22-6.78-3.54-10.88-4.34-5.42-1.05-11.41-1.16-17.1-1.25,0,3.12.03,6.25.03,9.38l-12.93-.04v-9.38h0Z"/><path class="cls-7" d="m486,205.07l-8.4.07v65.77l8.58.04-.17-65.87Z"/><path class="cls-7" d="m485.99,206.76l-3.21,31.49,32.39,15.82-16.4-21.92,22.39-7.26-35.17-18.13Z"/><path class="cls-7" d="m482.38,198.56c-4.91,0-8.55,1.84-8.55,4.02s3.64,4.04,8.55,4.04,8.52-1.85,8.52-4.04-3.61-4.02-8.52-4.02Z"/></g></g><circle class="cls-3" cx="479.47" cy="479.47" r="479.47"/></g></g></g></g></g></svg>