<?xml version="1.0" encoding="UTF-8"?><svg xmlns="http://www.w3.org/2000/svg" xmlns:xlink="http://www.w3.org/1999/xlink" viewBox="0 0 958.95 958.95"><defs><style>.cls-1{fill:#ff671f;}.cls-2{fill:#fff;}.cls-3{isolation:isolate;}.cls-4{fill:url(#radial-gradient);mix-blend-mode:multiply;opacity:.3;}.cls-5{clip-path:url(#clippath);}.cls-6{fill:none;}.cls-7{fill:#ffcd00;}</style><clipPath id="clippath"><circle class="cls-6" cx="479.47" cy="479.47" r="479.47"/></clipPath><radialGradient id="radial-gradient" cx="479.47" cy="479.47" fx="479.47" fy="479.47" r="479.47" gradientUnits="userSpaceOnUse"><stop offset="0" stop-color="#fff"/><stop offset=".36" stop-color="#fdfdfd"/><stop offset=".48" stop-color="#f6f6f6"/><stop offset=".58" stop-color="#eaeaea"/><stop offset=".65" stop-color="#d9d9d9"/><stop offset=".71" stop-color="#c3c3c3"/><stop offset=".77" stop-color="#a8a8a8"/><stop offset=".82" stop-color="#878787"/><stop offset=".87" stop-color="#626262"/><stop offset=".91" stop-color="#373737"/><stop offset=".95" stop-color="#090909"/><stop offset=".96" stop-color="#000"/></radialGradient></defs><g class="cls-3"><g id="Layer_2"><g id="Layer_1-2"><g id="Bhutan"><g class="cls-5"><g><path class="cls-7" d="m-239.74,0h1438.42v958.95H-239.74V0Z"/><path class="cls-1" d="m-239.74,958.95h1438.42V0L-239.74,958.95Z"/><path class="cls-2" d="m988.57,224.03c-12.05,3.87-21.36,1.77-30.36-.27-11.73-2.66-23.85-5.41-41.77,5.46-5.12,3.1-10.48,3.26-16.15,3.42-1.46.04-2.98.1-4.51.2,5.3-2.85,9.98-7.32,15.03-13.29,4.65-5.51,11.94-7.45,18.99-9.32,9.71-2.59,19.76-5.26,21.75-17.64l.17-1.03-.83.63c-9.38,7.14-19.8,6.1-28.99,5.2-9.52-.94-18.5-1.82-24.11,6.74-2,3.05-4.8,4.96-8.05,7.18-.76.52-1.55,1.06-2.35,1.63,2.63-12.1,6.48-18.42,9.67-23.6,3.49-5.67,6.25-10.15,5.6-19.48-1.07-15.48,6.63-23.4,13.42-30.39,6.07-6.24,11.3-11.63,7.65-20.68l-.6-1.49-.2,1.59c-.93,7.41-11.26,14.83-17.43,19.26-.51.37-.99.71-1.43,1.03-8.86,6.44-9.59,12.46-10.35,18.84-.77,6.47-1.57,13.15-10.79,21.33-12.03,10.67-12.14,17.78-12.25,24.66-.08,4.87-.23,9.9-4.57,16.32-3.71-.27-8.02.71-13.09,3.05-.85-1.57-2.12-2.64-3.79-3.2-3.51-1.19-8.69-.06-15.37,3.33-6.08-5.44-16.65-11.02-26.93-9.33-.04-.06-.1-.1-.14-.16-2.21-8.37-6.74-15.07-12.49-18.42-4.03-2.35-8.56-2.93-13.08-1.67-2.5.69-4.51,2.2-6.14,4.62-13.05-11.78-30.12-13.84-44.37-5.75-7.87-10.94-18.63-13.96-28.32-16.66-6.8-1.9-13.23-3.7-17.51-8.09-16.49-17-59.9-34.17-78.23-21.67l-1.23.84,1.48-.08c18.08-.96,31.33,4.79,42.44,12.21-.71.56-1.4,1.23-2.1,1.98-10.76-5.85-20.6-8.02-27.19-4.16l-1.2.7,1.39.07c10.33.54,16.89,4.67,22.87,9.72-1.35,2.92-2.47,6.48-3.11,10.99-19.21-13.92-40.7-20.44-53.65-16.22-3.61,1.17-6.39,3.23-8.37,5.92-9.2-2.49-18.66-2.74-25.33-.2-4.73,1.8-7.85,4.8-9.28,8.92l-.33.95.91-.44c16.58-8.09,32.17-1.55,44.68,3.7.75.31,1.45.6,2.18.9-1.3.51-2.55,1.1-3.69,1.85-1.16.76-2.35,1.75-3.48,2.97-11.6-2.18-21.56-1.54-26.48,4.75l-.99,1.26,1.47-.62c4.37-1.83,12.51-2.1,22.42-.06-1.88,4.05-3.01,9.55-2.45,17.05-27.4-10.97-52.02-13.35-67.62-6.54-6.5,2.84-11.03,7.23-13.1,12.69-3.94,10.41,2.2,18.99,10.3,22.07,5.48,2.09,12.4,1.63,14.66-4.28l.35-.91-.9.38c-2.9,1.22-10.5-.52-13.51-4.52-2-2.66-1.61-5.86,1.13-9.24,7.76-9.61,47.12-4.25,89.81,16.72-1.44.41-2.82.85-4.15,1.31-6.55-3.37-14.73-3.73-22.77-4.03-12.35-.47-24.01-.92-27.92-12.74l-.41-1.24-.38,1.25c-1.95,6.31-1.55,11.38,1.18,15.06.71.96,1.61,1.79,2.6,2.54-15.74.73-31.38,5.36-41.96,16.66-12.52-.52-22.4-.03-30.24,1.53-13.45,2.67-20.84,8.45-22.58,17.66l-.23,1.21.92-.82c14.83-13.31,36.47-10.56,53.84-8.35,9.05,1.15,16.85,2.14,22.15.73.65-.17,1.48-.32,2.27-.46-2.15,4.36-2.78,8.39-1.96,11.54-.23.05-.47.04-.7.11-3.25,1-5.83,4.31-7.46,9.55-1.6,5.12-1.42,9.53.27,12.58-.08.05-.18.08-.26.14-2.75,2-4.13,5.95-3.99,11.44.04,1.5.19,2.91.44,4.22-11.8,3.85-23.85,12.92-34.36,34.7l.67.48c8.79-8.79,17.89-13.94,29.76-16.41-1.58,3.18-2.74,6.76-3.21,10.39-.65,5.09-3.66,8.86-6.85,12.85-5.42,6.78-11.03,13.79-3.91,27.53l.57,1.11.2-1.23c2.22-13.13,11-20.75,18.14-21.26,4.46-.32,9.94-1.09,14.67-3.37-.08.22-.2.41-.26.63-1.63,5.53-.36,12.19,3.24,16.99,3.28,4.37,8,6.93,12.72,6.93.17,0,.35,0,.52-.01.67-.03,1.31-.21,1.96-.34-.42.72-.83,1.45-1.13,2.27-2.18,6.03-.63,13.86,3.94,19.95,1.93,2.58,5.13,4.18,8.63,5.03-1.02,1.33-1.94,2.71-2.73,4.03-2.63,4.45-7.88,4.17-13.43,3.88-6.64-.34-13.53-.71-16.95,6.7l-.46.99,1-.43c6.98-3,14.21,2.2,18.53,5.31.72.52,1.36.98,1.91,1.34,4.08,2.69,9.35,4.08,14.61,4.08,2.9,0,5.74-.56,8.43-1.42-.81,2.49-1.18,4.81-1.1,6.77.12,2.96,2.05,7.4,4.96,11.51-3.46-.71-6.96-.74-9.53-.09-7.47,1.85-20.71-.56-23.7-7.73l-.39-.92-.39.92c-1.11,2.69-1.08,5.47.1,8.04,1.77,3.81,5.82,6.83,11.74,8.73,4.42,1.42,5.87,3.69,6.32,5.34.25.91.2,1.76.03,2.52-.05,0-.11-.02-.16-.03-.06-.29-.05-.58-.17-.88-1.16-2.8-4.99-5.18-8.06-6.2-2.66-.89-6.1-.47-8.16,1.01-.49.35-.81.79-1.11,1.22-.35-4.44-2.8-12.26-15.22-15.37-7.95-1.99-14.26-.59-17.37,1.71.29-1,.41-2.08.25-3.24-.58-4.24-4.16-8.18-9.57-10.54-7.05-3.07-11.9-.01-13.67,1.43-.04.03-.06.07-.1.1.03-.52.09-1.04.04-1.58-.37-3.74-2.65-7.16-5.81-8.7-5.66-2.76-7.05-7.99-8.28-12.59-1-3.75-1.94-7.29-5.13-8.52-6.34-2.44-12.85-6.93-13.11-11.47l-.08-1.51-.7,1.34c-3.15,6.05-1.89,12.23,3.44,16.97,1.92,1.7,1.41,5.95.76,10.55-1.78-1.92-4.26-3.43-7.39-4.26-3.91-1.03-7.68-.21-10.57,2.33-.25.22-.44.52-.67.76-1.53-3.45-5.08-6.01-9.87-7.03-3.98-.85-7.68.17-10.45,2.85-.39.38-.68.84-1.01,1.27-.1-.19-.13-.41-.24-.59-1.94-3.35-5.93-5.47-10.96-5.82-.31-.02-.62-.03-.93-.03-3.61,0-6.75,1.49-8.92,4.24-.29-.86-.56-1.72-.98-2.58-3.12-6.4-9.05-11.27-15.08-12.42-1.52-.29-3.1-.53-4.64-.77-7.57-1.16-15.4-2.35-18.21-9.52l-.45-1.15-.34,1.19c-2.33,8.25,4.18,13.33,10.47,17.44,2.76,1.81,2.86,4.89,2.97,8.47.04,1.24.09,2.52.24,3.8-.43-.31-.82-.66-1.3-.93-5.5-3.11-12.81-2.71-17.28-1.01-3.87,1.47-7.29,5.27-8.91,9.91-1.22,3.48-1.3,7.08-.29,10.24-2.2-2.08-5.12-3.35-8.48-3.65-5.19-.47-10.76,1.54-13.88,4.96-2.76,3.02-4.13,7.02-3.76,10.96.05.48.17.94.27,1.4-10.12-7.76-20.52-6.84-26.82-1.87-6.2,4.91-12.29,6.27-17.19,7.36-5.82,1.29-10.02,2.23-10.24,8.39l-.03.88.7-.54c4.72-3.61,9.08-2.51,13.28-1.46,3.04.76,5.88,1.47,8.73.49,2.36-.83,4.59.46,7.4,2.1.12.07.25.14.37.21-.15.12-.33.21-.47.34-2.21,2-3.14,4.8-2.75,8.3-2.16,1.21-3.53,5.01-3.21,9.05.21,2.7,1.18,5.03,2.62,7-.98-.04-2,.02-3.06.24-6.48,1.38-12.18,7.37-13.55,14.23-1.18,5.9-.3,12.61,1.92,17.62-7.61,1.9-14.36,7.38-20.97,12.76-9.73,7.92-19.78,16.13-32.4,12.54l-1.05-.3.58.92c3.29,5.23,8.14,6.9,13.44,6.9s10.92-1.63,15.98-3.09c4.77-1.37,8.89-2.56,11.52-2.08.54.1,1.17.14,1.75.21-4.01,3.23-5.92,8.86-7.24,18.36-.74,5.3.45,9.81,3.06,12.71-1.49.77-2.96,1.77-4.41,3.03-5.91,5.15-9.8,13.27-9.1,18.52-5.95.96-10.24,4.19-14.19,7.22-4.89,3.76-9.11,7.02-15.46,5l-.85-.27.34.82c2.02,4.89,10,8.61,18.67,10.37-1.47,1-2.86,2.16-4.23,3.31-4.17,3.51-8.12,6.84-14.17,4.81l-.6-.2.05.63c.34,4.27,2.59,8.86,6.84,12.19-3.77-.14-7.68.51-11.53,1.15-5.7.95-11.09,1.84-15.59.13l-.56-.22v.6c0,4.05,1.12,8.82,3.76,13.05-11.33-3.66-25.04-4.36-33.89-2.16-5.32,1.32-8.9,3.59-10.35,6.56l-.31.65.72-.06c7.68-.57,14.38,1.88,16.68,5.93-6.5-3.38-14.62-2.29-22.48-1.23-8.09,1.08-15.73,2.11-21.42-1.48-17.37-10.95-26.6-10-34.05-9.26-4.95.5-9.23.94-14.86-2.07-9.64-5.16-18.53-3.92-23.63-1.02-3.54,2-5.65,4.94-5.8,8.06l-.04.93.72-.59c7.36-5.94,13.85-1.92,20.74,2.36,5.24,3.26,10.67,6.64,16.65,5.44,17.75-3.55,28.1,2.02,38.1,7.41,4.11,2.22,8.1,4.37,12.46,5.84-12.88-1.11-26.38-1.05-42.1,8.11-7.72,4.49-17.53,5.44-26.2,6.28-11.52,1.11-21.47,2.07-22.37,11.02l-.08.78.69-.38c6.3-3.42,13.08-2.52,19.61-1.66,6.24.83,12.13,1.61,17.43-1.17,10.09-5.28,21.27-7.37,26.92-5.1-10.04,11.82-19.36,13.15-29.22,14.55-8.62,1.23-17.52,2.49-26.99,11.23-6.32,5.84-13.53,6.92-20.51,7.96-7.21,1.08-14.02,2.1-19.65,8.01-11,11.53-17.69,15.62-27.53,16.86l-1.15.14.97.62c10.85,6.92,21.41.44,31.64-5.82,6.72-4.12,13.08-8.01,19.22-8.01.1,0,.2,0,.3,0,.4,0,.81.01,1.21.01,12.05,0,24.15-3.56,34.35-10.1-4.79,9.85-13.53,12.27-24.48,15.31-11.07,3.07-23.6,6.55-35.56,18.76-1.88,1.92-3.68,3.81-5.44,5.67-12.25,12.89-22.83,24.02-44.75,27.15l-.76.11.51.58c2.16,2.44,4.96,3.44,8.27,3.44,6.85,0,15.89-4.3,25.83-9.04,11.45-5.46,24.43-11.64,35.95-11.76,19.7-.2,28.73-9.83,35.98-17.56,5.41-5.78,9.71-10.33,16.72-9.72.6.06,1.18.08,1.74.08,8.34,0,14.12-5.62,19.73-11.06,5.07-4.93,9.86-9.59,16.14-9.59,7.15,0,12.2-6.32,16.66-11.9,4.22-5.27,7.94-9.88,12.52-9-6.13,3.16-9.72,8.94-13.21,14.55-4.55,7.31-9.25,14.87-19.65,16.84l-1.42.27,1.34.53c11.19,4.39,18.97-2.14,27.2-9.06,7.22-6.06,14.69-12.33,25.47-13.04,2.44-.16,4.91-.66,7.39-1.35-8.22,11.23-16.1,14.65-22.56,17.41-6.67,2.85-11.94,5.1-14.08,14.81l-.25,1.16.92-.75c10.49-8.49,19.93-10.08,28.26-11.48,8.91-1.5,16.6-2.79,23.27-11.75,9.96-13.36,19.12-18.97,26.5-23.49,7.27-4.46,13.02-7.98,16.77-16.73,4.43-10.32,15.06-16.28,26.31-22.59,6.28-3.52,12.64-7.1,18.17-11.52,1.94.52,3.77.85,5.36.85,2.29,0,4.2-.51,5.77-1.28,1.13,1.02,3.07,1.81,5.45,2.13.75.1,1.55.16,2.37.16,2.17,0,4.51-.45,6.65-1.42.47,7.17-.22,14.57-2.72,21.25-6.01-2.31-15.24-3.06-19.6-.45-2.46,1.48-3.38,2.44-3.18,3.31.24,1,1.8,1.47,6.19,1.84,3.57.3,7.73,3.94,7.67,6.72-.04,2.08-2.49,3.33-6.88,3.51-2.8.12-4.01,2.85-5.42,6.02-1.89,4.28-4.26,9.6-11.58,10.19l-.79.06.51.62c1.78,2.17,4.7,3.32,8.46,3.32.11,0,.22,0,.33,0,6.05-.1,12.99-3.14,16.75-7.22.05,2.16,1.08,4.23,2.16,6.39,1.59,3.17,3.23,6.46,1.57,10.2l-.23.52.57.06c.25.03.5.04.74.04,3.98,0,5.25-3.82,6.6-7.86,1.57-4.69,3.32-9.95,9.69-10.45-.59.48-1.04,1.15-1.33,1.98-.83,2.41-.03,5.59,1.92,7.56,1.02,1.03,3.11,2.49,6.51,2.04-1.78,1.63-1.95,3.64-1.42,5.09.65,1.81,2.58,3.41,5.51,3.42-1.29,1-2.12,2.43-2.25,3.98-.17,2.14,1.04,4.14,3.25,5.67-.29.64-.58,1.27-.88,1.9-1.62,3.39-3.28,6.89-2.1,10.32-11.84,1.8-20.65,6.84-25.49,14.59-4.5,7.21-5.26,16.5-2.15,26.17-.65,3.86,2.02,7.91,4.85,12.21,2.38,3.63,4.86,7.38,5.32,11.11h0c.04,22.27,18.16,40.37,40.43,40.37s40.44-18.14,40.44-40.44c0-.75-.07-1.48-.11-2.23,2.22-1.94,3.78-4.82,4.56-8.51,4.38-5.01,5.18-16.33,1.6-22.64,1.76-7.41-2.37-18.09-8.25-22.59,3.61.46,7.52-.58,10.49-2.92,2.3,4.49,8.04,7.54,13.81,7.25-.35,3.4,2.28,5.58,5.06,7.88,2.88,2.38,5.84,4.84,6.08,8.93.04.84.11,1.79.18,2.81.29,4.43.7,10.49.08,14.86l-.22,1.57.97-1.26c8.49-11.04,9.79-27.03,3.17-38.95.29-8.05-1.96-14.8-6.33-19-3.43-3.3-8.11-4.86-13.46-4.48-3-3.63-7.56-5.54-12.41-5.1-4.07.37-7.65,2.41-9.49,5.37-4.25-3.96-10.27-5.09-14.69-4.46,1.23-6.81-.36-10.63-1.94-12.65-1.48-1.88-3.54-2.97-5.99-3.18.38-9.39-5.4-16.97-14.5-19-3.66-16.73-.84-28.9,1.89-40.67.49-2.13.99-4.28,1.45-6.45,6.97,4.45,15.41,3.89,18.69,3.42,2.66,6.58,8.73,9.09,14.08,11.32,3.43,1.42,6.66,2.76,8.78,4.97,3.2,3.34,10.28,4.66,17.03,4.66,5.89,0,11.52-1,14.1-2.52l.1-.06c1.59.22,3.19.38,4.84.38,19.24,0,34.89-15.65,34.89-34.89,0-11.59-5.7-21.85-14.42-28.19v-.08c.61-8.02-2.74-15.25-8.96-19.34-5.4-3.55-11.98-4.11-17.18-1.48-4.56-2.21-15.55-.79-18.15,2.28-3.23-1.01-9.97,1.98-14.81,4.82.7-1.09,1.24-2.38,1.59-3.82.71-2.89.52-5.92-.45-7.77,4.35-2.02,8.79-7.52,9.53-11.81,3.25.42,7.27-.45,10.84-1.21,3.28-.71,6.39-1.37,8.26-.91l1.15.29-.72-.95c-6.19-8.1-16.62-12.08-29.42-11.23-10.04.55-16.65,6.91-18.62,17.91-6.73,4.17-9.2,17.22-6.96,22.76-3.7.26-7.12,3.59-8.76,5.81-2.66-1.11-5.81-2.05-8.97-2.73-1.59-4.34-3.51-8.94-5.95-13.91-.44-.91-.82-1.84-1.23-2.76-.97-4.66.5-9.05,1.83-12.98.35-1.03.68-2.03.97-3.01,2.1-7.1,2.26-11.17.67-13.54,1.54-1.13,2.95-2.98,3.34-6.22.52-4.42.13-7.73-1.1-9.99,2.25-.89,4.4-2.68,6.07-5.95,1.02-1.99,1.46-3.92,1.4-5.72.3.03.62.12.92.12,2.46,0,4.71-.94,6.6-2.77,3.23-3.12,5.13-6.86,5.45-10.5.21.11.38.24.59.34,1.92.88,3.95,1.31,6.07,1.31s4.42-.45,6.77-1.35c3.82-1.47,6.46-4.06,7.68-7.45,2.99,2.05,6.85,3.11,11.54,3.11.15,0,.3,0,.46,0,5.59-.08,8.8-2.08,10.68-4.52.2.3.34.62.57.91,3.34,4.18,8.63,6.27,15.79,6.27,3.3,0,7.01-.46,11.09-1.35,3.64,3.12,8.6,5.67,15.1,5.67,1.15,0,2.37-.11,3.62-.28,4.68,4.08,12.2,7.92,24.16,7.96,5.42,4.01,12.96,6.37,22.62,6.96.53.03,1.05.05,1.56.05,2.46,0,4.62-.44,6.52-1.15,5.12,5.11,14.62,8.01,28.48,8.57.44.02.85.02,1.26.02,2.37,0,4.23-.29,5.7-.75,2.38,1.82,5.2,3.16,8.41,3.8,1.67.33,3.24.49,4.71.49,2.91,0,5.35-.69,7.28-1.91,3.36,1.9,7.99,3.34,14.29,3.8-3.56,7.18-3.95,12.71-1.19,16.81-5.39-2.77-9.37-1.01-12.67.53-2.74,1.27-4.9,2.29-7.19.5-3.68-2.87-8.26-4.26-11.97-3.66-2.24.37-4,1.45-5.09,3.12l-.41.62.74.03c4.45.16,6.04,1.69,8.06,3.62,2.51,2.41,5.58,5.35,15.13,6.78-9.08,1.81-12.74,8.23-16.01,13.97-2.84,4.98-5.31,9.32-10.84,9.32-.3,0-.62-.01-.94-.04l-1.18-.1.86.82c8.85,8.37,15.2,2.89,21.35-2.45,4.18-3.63,8.11-7.07,12.71-5.95-.05.06-.09.13-.13.2-.45.86,0,2.17.61,3.99,1.29,3.77,3.22,9.47-.66,16.3l-.36.64.73-.02c8.9-.22,13.22-10.22,15.17-17.23.87.44,1.82.8,2.91.98-.08,3.55,1.91,7.06,5.36,9.45,3.98,2.75,8.87,3.44,12.93,1.88.17,3.18,2.34,6.26,6.04,8.54,4.76,2.93,10.83,3.85,14.45,2.23,1.79,4.9,8.32,7.4,13.5,8.06,4.91.62,8.96-.14,10.87-1.95.35,1.61,1.66,3.2,3.82,4.65,2.19,1.48,5.27,2.76,8.55,3.66l-.09.3c.63.18,1.25.18,1.87.11,4.88,1.09,9.93,1.29,13.08-.12,6.4-2.87,11-1.4,15.12.97l-.03.05c.07.03.13.02.2.05,1.09.64,2.16,1.32,3.21,2.01,3.39,2.22,6.58,4.31,10.44,3.99-4.52,3.53-7.09,7.82-7.46,12.49-.41,5.28,1.98,10.67,6.73,15.2-.46,12.59,7.83,23.22,18.61,23.9,1.07,4.33,4.07,8.02,8.73,10.7,8.86,5.1,21.17,5.45,28.26,3.2l.44-.14c5.96,2.98,12.66,4.7,19.77,4.7,24.52,0,44.46-19.94,44.46-44.45,0-11.09-4.11-21.23-10.85-29.02l.45-.73c3.56-5.75,3.18-11.69,2.23-15.66-1.53-6.44-5.74-12.45-11-15.71-2.84-7.45-8.91-10.33-16.7-7.91-2.8-2.19-12.56-3.95-18.01.36-1.05-1.39-2.78-1.6-4.88-1.18,5.61-4.03,7.63-9.02,5.89-14.72,6.26.44,9.56-2.91,12.81-6.15,3.96-3.95,7.69-7.67,16.34-5.25l1.32.37-.89-1.04c-9.17-10.7-27.9-10.53-37.44-3.28-5.28-1.68-10.89-.49-15.04,3.21-4.07,3.62-5.91,9.03-4.99,14.59-3.72-1.36-7.88-.82-11.25,1.53-3.61,2.5-5.68,6.56-5.62,10.94-4.98-1.2-11.89,1.18-15.61,8.07-5.63-5.84-12.29-8.13-20.33-6.94-7.79-8.24-15.12-10.16-23.72-6.24-2.89-3.11-9.85-3.85-14.81-1.6-2.37-5.51-12.16-11.89-19.4-9.77-1.43-16.42,3.81-21.9,7.65-25.91,6.5-6.79,8.46-10.85,10.54-15.15,1.58-3.28,3.23-6.68,6.99-11.65,9.65-12.73,15.78-27.9,19.03-43.58.11-.37.26-.71.34-1.1,0-.05-.06-.06-.07-.11,1.41-7.13,2.18-14.35,2.43-21.5.05-.33.2-.62.21-.97,0-.1-.12-.11-.17-.18.14-5.25-.01-10.44-.45-15.52,4.87-3.66,10.59-6.33,16.35-7.45l.13.11s.07-.1.11-.15c5.9-1.09,11.8-.47,16.85,2.67,1.04,4.38,1.06,9.77-1.05,14.32-1.89,4.1-5.14,6.86-9.65,8.21l-.88.26.78.49c2.83,1.78,6.24,2.27,9.88,1.39,4.25-1.02,8.27-3.74,11.41-7.65-3.46,9.49-3.52,18.76-.07,25.89,2.56,5.27,6.93,8.92,12.34,10.27l.87.22-.39-.8c-3.43-7-.74-12.02,1.63-16.45,1.84-3.43,3.58-6.69,2.2-10.3,8.14,4.09,14.65,14.95,14.42,21.52l-.04,1.15.77-.86c6.59-7.35,2.78-15.97-.91-24.3-1.99-4.49-3.88-8.79-4.05-12.66,2,.14,4,.24,5.98.24,6.49,0,12.76-.91,18.26-2.91l.02.02s.01-.02.02-.03c2.55-.93,4.99-2.02,7.12-3.5l4.03-2.81c6.51-4.54,11.64-8.09,15.99-10.66l.05.06c.1-.08.15-.16.24-.23,5.97-3.5,10.45-5.08,14.7-4.34,6.05,9,13.35,13.59,22.96,14.43,3.02,3.09,12.8,5.68,18.7,4.91,9.14,2.25,18.99-1.19,26.42-9.24,12.19,1.67,23.84-7.11,28.46-21.41,4.93-.66,8.54-3.27,10.17-7.38,2.24-5.66.43-13.4-4.5-19.25l-.09-.11-.14-.03c-2.31-.46-3.31-3.45-4.58-7.23-2.17-6.45-4.98-14.88-16.48-15.76-1.81-18.21-17.2-32.49-35.88-32.49s-32.85,13.2-35.58,30.4l-.23.25c-6.97,7.55-12.18,17.81-14.28,22.31-7.95-4.9-24.27-.12-36.23,3.39-3.35.98-6.51,1.91-8.97,2.47-11.53,2.62-49.33-3.83-57.75-12.75-8.59-9.09-25.19-14.82-41.86-19.67-11.59-3.36-17.02-11.69-23.31-21.33-.82-1.25-1.66-2.53-2.52-3.82.87.18,1.75.37,2.59.55,4.69,1.03,9.03,1.94,12.92,1.4,1.82,1.07,3.75,2.07,5.93,2.88,10.27,3.79,16.42,9.87,21.86,15.24,5.7,5.62,10.43,10.29,17.9,10.29,1.76,0,3.66-.26,5.77-.82l1.5-.4-1.49-.41c-8.76-2.38-12.81-8.5-17.1-14.97-4.31-6.52-8.77-13.26-18.41-15.9-2.13-.58-4.09-1.5-5.98-2.55,9.31-11.57,22.62-14.24,32-11.56,13.09,3.74,22.34,2.97,29.63-1.22,14.57,1.84,28.13,10.52,38.06,24.72,1.24,1.78,3.09,3.4,5.29,4.84-3.14,1.7-5.42,4.72-7.64,7.7-3.12,4.21-6.08,8.18-11.21,8.42l-1.51.07,1.33.71c3.58,1.91,6.91,2.74,10.03,2.74,5.74,0,10.75-2.84,15.23-6.9-.76,2.8-.97,5.64-.48,8.27.67,3.63,2.91,8.46,9.76,10.82l1.25.43-.78-1.07c-4.16-5.74-.35-9.78,3.68-14.06,1.21-1.28,2.4-2.57,3.38-3.92,1.02,1.84,2.46,3.43,3.83,4.93,3.12,3.42,5.81,6.37,3.55,11.33l-.35.76.82-.19c5.03-1.14,8.75-6.08,9.71-12.9.81-5.72-.57-12.64-5.18-16.34,3.8-4.24,4.63-10.52,1.89-15.24-.13-.22-.32-.48-.49-.73-2.52-5.46-7.46-10.46-13.78-12.45,3.28-2.81,6.66-4.86,9.89-6.56,4.92,2,9.42,4.08,13.26,6.28.22.13.49.22.72.35.08.41.12.74.21,1.17l.24,1.07c1.85,8.35,4.64,20.98-.72,33.67l-.59,1.38,1.21-.88c10.12-7.37,10.27-19.48,10.4-30.16,0-.58.03-1.12.04-1.69,15.58,5.06,35.01,5.57,51.95.79,18.97-5.35,45.06-8.37,56.13.7,4.08,3.34,5.91,8.15,5.44,14.31l-.1,1.29.83-.99c3.97-4.71,5.03-9.71,3.07-14.47-3.66-8.86-17.18-15.38-35.32-17.06.14-7.51-4.29-15.05-10.88-18.44-4.8-2.47-9.86-2.12-13.89,1l-1.23.95,1.53-.2c.3-.04.6-.06.9-.06,3.78,0,7.42,3.14,8.55,7.53,1.24,4.85-.76,11.29-9.94,15.1,1.37-6.14-.67-12.42-5.44-16.57-5.17-4.5-12.2-5.5-18.81-2.68l-1.07.46,1.12.33c4.65,1.35,9.63,6.36,9.62,11.66,0,4.74-4.13,8.54-11.62,10.69-3.53,1.02-7.73,1.29-12.21,1.03-.08-5.79,2.43-11.38,5.09-17.2,4.5-9.84,9.09-19.98.71-31.78.92-.16,1.74-.41,2.31-.81.95-.67,1.4-1.6,1.29-2.63-.16-1.33-1.23-2.67-3.09-3.92,2.01.21,3.66-.21,4.69-.93.92-.65,1.37-1.56,1.25-2.57-.15-1.31-1.21-2.62-3.06-3.86,2.05.21,3.67-.21,4.69-.93.93-.65,1.37-1.56,1.25-2.57-.06-.47-.26-.95-.55-1.42,13.93-.46,39.1-8.21,48.98-15.55,8.22-6.11,21.38-6.13,34.1-6.15,14.82-.02,28.81-.05,32.93-9.98l.34-.83-.86.27Zm-82.42,163.79c.38,4.65.78,9.44,4.69,12.73-3.68.2-11.02,1.48-14.76,8.14.03-2.14-.48-3.92-1.17-5.34,5.03-4.03,8.93-9.38,11.23-15.52Zm-40.92,25.22c-.71-1.1-1.74-2.17-2.89-3.22,1.6.47,3.26.81,4.95,1.05-.76.67-1.46,1.38-2.06,2.17Zm-16.94-11.09c-1.8-.57-3.54-1-5.06-1.14-.03-1.44-.22-3.43-.56-5.23,1.61,2.34,3.51,4.47,5.62,6.37Zm-253.47-205.19c8.05,3.16,16.54,7.74,24.8,14.02-3.79.64-6.89,2.38-8.9,4.55-8.1-5.6-16.37-12.59-15.9-18.57Zm69.33-26.11c6.51,5.31,12.65,10.33,19.22,13.5,3.65,1.76,7.31,3.99,11.19,6.35,1.88,1.15,3.82,2.31,5.79,3.45-4.58,1.22-8.86,1.88-12.87,2.12-9.24-11.15-20.32-21.56-31.15-29.08.5-.48.95-1,1.53-1.4,2.15,1.69,4.25,3.39,6.29,5.07Zm-24.98,124.55c.44-.73.91-1.49,1.42-2.27,6.87,2.72,14.97,5.15,24.93,5.48-4.38,3.65-10.39,4.51-16.79,5.22-2.98-3.54-6.1-6.5-9.55-8.43Zm122.46-4.21c4.6-9.77,11.16-15.89,19.49-18.18,2.1-.58,4.34-.82,6.65-.91,1.95,4.64,3.2,11.74,1.41,15.91l-.51,1.18,1.1-.66c4.19-2.51,10.31-8.56,13.59-13.85,3.28,1.11,6.66,2.57,10.16,4.39.29.68.62,1.34.75,2.08.79,4.25-1.21,8.18-5.36,10.53l-1.38.78h1.58c5.39,0,13.87-.04,19.99-4.44.96.4,1.93.75,2.91,1.05-1.53,1.78-2.33,3.85-3.14,6-1.71,4.51-3.47,9.16-12.2,12.54-.9.35-1.77.73-2.63,1.12-15.22-6.64-38.86-15.36-52.57-17.23.05-.1.1-.2.14-.3Zm-101.96-109.7c5.11,3.21,7.44,6.93,9.5,10.21.91,1.45,1.79,2.81,2.82,3.99-1.37-.15-2.71-.31-4.03-.47-4.87-.59-9.53-1.14-14.19-.98-2.15-7.5-2.78-13.73-1.87-18.64,2.39,2.06,4.89,4.09,7.76,5.9Zm-29.18,21.89c-.28.23-.56.44-.84.68-9.02-4.39-20.04-9.26-30.89-12.84,2.11-1.44,5.07-2.69,8.85-3.77,10.44,3.26,17.83,10.19,22.88,15.93Zm3.94,117.9c-.19-2.35-.26-4.71-.14-7.11,3.16-.32,5.93-.35,8.51-.2,2.17,2.73,4.14,5.72,6.14,8.77,2.04,3.11,4.12,6.24,6.46,9.21-.71.39-1.36.81-2.03,1.24-1.33.86-2.76,1.77-5.01,2.66-3.65-4.98-8.03-10-13.93-14.57Zm23.08-5.73c6.74.57,15.09.45,28.12-2.53-1.95,1.56-3.13,3.84-4.37,6.2-2.34,4.47-4.81,9.06-12.9,9.87-3.93-4-7.43-8.76-10.85-13.53Zm139.2,7.23c-3.06-1.42-5.64-3.55-8.12-5.69-3.36-2.91-6.54-5.66-10.59-5.92-3.53-.22-6.61-3.62-9.87-7.23,13.07,3.4,25.49,6.87,36.34,10.61-3.14,2.49-5.77,5.28-7.76,8.23Zm31.77-12.06c-.32,1.37-.48,2.98-.5,4.83-.43-.25-.88-.45-1.29-.71-.58-.35-1.35-.77-2.19-1.21,1.48-.88,2.83-1.83,3.98-2.9Zm14.41,3.69c2.55-3.28,5.52-7.73,7.71-12.18-1.26,7.25-.91,15.78,1.76,22.16-3.92-.66-7.94-1.71-11.95-3.13.41-2.71,1.12-5.09,2.48-6.84Zm37.08-77.89c.33.01.69.06,1.01.06-.35.16-.7.32-1.05.5.03-.18.02-.38.04-.57Zm-252.72-48.48c-7.55-4.85-14.17-6.7-20.67-8.5-5.39-1.49-10.47-2.9-15.96-5.96-2.66-1.48-5.53-2.71-8.45-3.74,11.71-4.86,27.25,1.46,45.08,18.2Zm114.61,481.59c2.15-2.41,4.42-5.57,6.31-8.95-1.13,3.91-1.76,8.02-1.76,12.28,0,.56.06,1.1.08,1.65-.91-1.92-2.34-3.65-4.63-4.97Zm10.19-25.21c2.04-.07,4.03-.53,5.92-1.27-2.37,2.61-4.47,5.47-6.17,8.59.65-2.65.85-5.18.25-7.32Zm15.88-9.48c1.44-2.13,2.61-4.52,3.34-7.13,1.84,1.6,4.11,2.37,6.32,2.72-3.42,1.07-6.64,2.59-9.66,4.42Zm-22.08,55.57c.76-2.33,1.43-4.94,1.73-7.56.81,3.52,2.04,6.87,3.64,10.01-1.16-1.12-2.78-1.99-5.37-2.46Zm8.21,7.42c-.02-.05-.04-.11-.06-.16,3.67,5.43,8.53,9.96,14.16,13.33-10.45-4.1-12.51-9.09-14.1-13.17Zm37.06-69.42c1.58-.69,2.99-1.48,3.98-2.34,2.2,3.88,8.54,4.62,16.43,1.87,1.1,1.51,2.68,2.47,4.34,3.49,3.26,2,6.96,4.27,8.28,11.52l.12.67c-8.1-9.25-19.94-15.13-33.15-15.21Z"/></g><circle class="cls-4" cx="479.47" cy="479.47" r="479.47"/></g></g></g></g></g></svg>