<?xml version="1.0" encoding="UTF-8"?><svg xmlns="http://www.w3.org/2000/svg" xmlns:xlink="http://www.w3.org/1999/xlink" viewBox="0 0 958.95 958.95"><defs><style>.cls-1{isolation:isolate;}.cls-2{fill:#de2910;}.cls-3{fill:url(#radial-gradient);mix-blend-mode:multiply;opacity:.3;}.cls-4{clip-path:url(#clippath);}.cls-5{fill:#ffde00;}.cls-6{fill:none;}</style><clipPath id="clippath"><circle class="cls-6" cx="479.47" cy="479.47" r="479.47"/></clipPath><radialGradient id="radial-gradient" cx="479.47" cy="479.47" fx="479.47" fy="479.47" r="479.47" gradientUnits="userSpaceOnUse"><stop offset="0" stop-color="#fff"/><stop offset=".36" stop-color="#fdfdfd"/><stop offset=".48" stop-color="#f6f6f6"/><stop offset=".58" stop-color="#eaeaea"/><stop offset=".65" stop-color="#d9d9d9"/><stop offset=".71" stop-color="#c3c3c3"/><stop offset=".77" stop-color="#a8a8a8"/><stop offset=".82" stop-color="#878787"/><stop offset=".87" stop-color="#626262"/><stop offset=".91" stop-color="#373737"/><stop offset=".95" stop-color="#090909"/><stop offset=".96" stop-color="#000"/></radialGradient></defs><g class="cls-1"><g id="Layer_2"><g id="Layer_1-2"><g id="China"><g class="cls-4"><g><rect class="cls-2" y="0" width="1353.81" height="958.95"/><g><polygon class="cls-5" points="225.63 95.89 195.24 195.29 96.88 195.29 176.45 256.72 146.06 356.11 225.63 294.68 305.21 356.11 274.81 256.72 354.39 195.29 256.03 195.29 225.63 95.89"/><polygon class="cls-5" points="468.93 51.77 447.4 78.05 417.23 64.42 434.1 94.29 412.57 120.56 444.52 112.75 461.39 142.62 464.27 107.92 496.22 100.1 466.05 86.47 468.93 51.77"/><polygon class="cls-5" points="521.65 148.74 544.48 173.75 573.91 158.4 558.59 189.2 581.42 214.2 549.12 208.23 533.79 239.03 529.15 204.54 496.85 198.57 526.29 183.23 521.65 148.74"/><polygon class="cls-5" points="539.91 287.72 551.15 320.44 583.91 319.19 558.1 340.66 569.34 373.39 542.14 353.93 516.32 375.41 525.33 341.91 498.13 322.46 530.9 321.21 539.91 287.72"/><polygon class="cls-5" points="467.19 386.66 465.67 421.46 496.35 433.75 464.73 442.97 463.21 477.77 445.19 448.66 413.57 457.88 434.05 430.68 416.03 401.57 446.71 413.87 467.19 386.66"/></g></g></g><circle class="cls-3" cx="479.47" cy="479.47" r="479.47"/></g></g></g></g></svg>