<?xml version="1.0" encoding="UTF-8"?><svg xmlns="http://www.w3.org/2000/svg" xmlns:xlink="http://www.w3.org/1999/xlink" viewBox="0 0 958.95 958.95"><defs><style>.cls-1{fill:#d57800;}.cls-2{fill:#fff;}.cls-3{isolation:isolate;}.cls-4{fill:url(#radial-gradient);mix-blend-mode:multiply;opacity:.3;}.cls-5{fill:#4e5b31;}.cls-6{clip-path:url(#clippath);}.cls-7{fill:none;}</style><clipPath id="clippath"><circle class="cls-7" cx="479.47" cy="479.47" r="479.47"/></clipPath><radialGradient id="radial-gradient" cx="479.47" cy="479.47" fx="479.47" fy="479.47" r="479.47" gradientUnits="userSpaceOnUse"><stop offset="0" stop-color="#fff"/><stop offset=".36" stop-color="#fdfdfd"/><stop offset=".48" stop-color="#f6f6f6"/><stop offset=".58" stop-color="#eaeaea"/><stop offset=".65" stop-color="#d9d9d9"/><stop offset=".71" stop-color="#c3c3c3"/><stop offset=".77" stop-color="#a8a8a8"/><stop offset=".82" stop-color="#878787"/><stop offset=".87" stop-color="#626262"/><stop offset=".91" stop-color="#373737"/><stop offset=".95" stop-color="#090909"/><stop offset=".96" stop-color="#000"/></radialGradient></defs><g class="cls-3"><g id="Layer_2"><g id="Layer_1-2"><g id="Cyprus"><g class="cls-6"><g><rect class="cls-2" x="-240.02" width="1438.99" height="958.95"/><path class="cls-1" d="m920.97,164.08c-3.05,35.47-29.29,27.5-52.1,46.99-60.17,51.41-55.58,32.18-93.64,59.11-17.99,12.73-23.87,50.18-41.74,50.18-5.86,0-11.96-3.59-18.61-3.59-15.74,0-26.92,23.4-26.92,39.41,0,38.75,69.22,94.84,69.22,95.06,0,2-3.78,5.97-10.35,5.97-11.39,0-23.43-8.77-33.51-8.77-16.54,0-25.84,12.95-42.51,12.95s-29.45-12.63-45.44-12.63c-40.75,0-5.41,59.03-38.59,59.03-2.02,0-4.1-.21-6.16-.21-2.88,0-75.73,48.15-116.8,48.15-12.02,0-25.91-3.58-37.95-3.58-21.26,0-34.24,17.28-34.24,32.36,0,10.13,9.52,17.28,9.52,23.2,0,1.42-.92,1.88-2.33,1.88-68.31,0-24.32-42.75-72.37-42.75-20.99,0-39.59,11.77-45.13,11.77-.18,0-.34-.01-.49-.04-74.36-12.13-102.68-23.52-123.8-119.05-2.02-9.12-22.69-43.89-22.69-56.24,0-4.09,3.98-5.91,6.07-5.91,9.07,0,11.36,28.23,44.32,28.23,47.82,0,27.75-58.97,71.71-58.97,23.5,0,47.07,18.31,69.51,18.31,27.42,0,37.01-26.76,37.01-53.71s-10.36-29.95-10.36-45.34c0-4.31,1.75-5.35,5-5.35,26.08,0,34.31,26.03,192.88,26.03,107.45,0,69.32-26.59,106.77-26.59,1.93,0,3.87.06,5.79.06,63.86,0,52.92-20.14,148.48-63.79,36.3-16.58,69.29-44.49,109.41-52.2Z"/><g><path class="cls-5" d="m236.29,620.78c46.09,43.34,96.09,82.57,153.38,109.29,56.48,26.83,118.03,43.04,180.15,57.28,11.26,2.51,18.35,13.72,15.76,24.97-2.61,11.56-14.52,18.62-25.92,15.39-63.09-17.8-126.24-37.84-184.46-69.12-58.47-30.88-109.2-74.66-154.58-121.88-9.8-10.37,5-25.67,15.67-15.94h0Z"/><path class="cls-5" d="m738.33,636.72c-101.71,108.27-197.96,152.46-339.04,191-11.07,3.11-22.56-3.34-25.67-14.41-3.25-11.44,3.9-23.39,15.52-25.95,93.1-20.86,184.05-48.03,260.69-105.35,25.44-18.58,49.49-39.46,72.86-61.25,10.62-9.54,25.48,5.34,15.64,15.96h0Z"/></g></g><circle class="cls-4" cx="479.47" cy="479.47" r="479.47"/></g></g></g></g></g></svg>