<?xml version="1.0" encoding="UTF-8"?><svg xmlns="http://www.w3.org/2000/svg" xmlns:xlink="http://www.w3.org/1999/xlink" viewBox="0 0 958.95 958.95"><defs><style>.cls-1{fill:#fff;}.cls-2{isolation:isolate;}.cls-3{fill:#ce1126;}.cls-4{fill:url(#radial-gradient);mix-blend-mode:multiply;opacity:.3;}.cls-5{fill:#c09300;fill-rule:evenodd;}.cls-6{clip-path:url(#clippath);}.cls-7{fill:none;}</style><clipPath id="clippath"><circle class="cls-7" cx="479.47" cy="479.47" r="479.47"/></clipPath><radialGradient id="radial-gradient" cx="479.47" cy="479.47" fx="479.47" fy="479.47" r="479.47" gradientUnits="userSpaceOnUse"><stop offset="0" stop-color="#fff"/><stop offset=".36" stop-color="#fdfdfd"/><stop offset=".48" stop-color="#f6f6f6"/><stop offset=".58" stop-color="#eaeaea"/><stop offset=".65" stop-color="#d9d9d9"/><stop offset=".71" stop-color="#c3c3c3"/><stop offset=".77" stop-color="#a8a8a8"/><stop offset=".82" stop-color="#878787"/><stop offset=".87" stop-color="#626262"/><stop offset=".91" stop-color="#373737"/><stop offset=".95" stop-color="#090909"/><stop offset=".96" stop-color="#000"/></radialGradient></defs><g class="cls-2"><g id="Layer_2"><g id="Layer_1-2"><g id="Egypt"><g class="cls-6"><g><rect class="cls-1" x="-239.74" y="319.65" width="1438.42" height="319.65"/><rect x="-239.74" y="639.3" width="1438.42" height="319.65"/><path class="cls-5" d="m583.44,400.34c-.39-9.46-3.42-15.83-9.01-18.92-11.02-6.1-28.58,2.6-35.66,6.65-9.32,5.97-19.77,8.95-31.22,8.95-4.27-7.44-8.02-22.41-7.44-35.7.7-17.28-2.46-24.21-5.23-26.98-3.34-3.34-13.78-6.28-20.88-6.68-1.6-.07-2.75.32-3.49,1.18-.39.46-.59.97-.69,1.44-5.13-1.23-13.11-2.52-16.96.05-2.54,1.69-3.38,7.16-3.14,9.74.12,1.33.52,2.11,1.22,2.41.3.13.92.26,1.63-.31,1.61-1.29,3.17-1.81,4.76-1.57,2.26.33,4.68,2.28,6.99,5.62,2.41,3.48,2.64,14.3-1.57,28.24-2.57,8.55-7.95,17.19-11.7,22.56-11.33-.06-21.66-3.05-30.91-8.98-7.04-4.02-24.59-12.71-35.61-6.62-5.59,3.09-8.62,9.46-9.01,18.92l-7.8,184.55c-.02.41.21.79.58.96.37.17.81.11,1.11-.17l57.6-52.24-11.89,42.19c-2.72-.75-5.01-1.45-6.73-2.01-1.82-.42-3.8.12-5.37,1.24-2.83-.02-5.36,1.22-7.1,3.56-2.15,2.88-2.73,6.82-1.56,9.89-.24.65-.44,1.38-.56,2.19-3.22.29-5.25,2.9-6.81,4.9-1.39,1.79-2.23,2.74-3.13,2.87-.35-.07-.73-.1-1.14-.1-.96,0-1.76.71-1.89,1.66-.12.95.48,1.84,1.4,2.08.38.1.74.16,1.09.18.35.23.59.87,1.03,2.68.6,2.49,1.48,6.12,5.41,8.03.06,4.74.76,9.36,9.26,10.89,17,4.84,46.31,7.61,80.45,7.61s63.46-2.78,80.68-7.61c8.29-1.54,8.98-6.15,9.03-10.89,3.93-1.91,4.81-5.55,5.41-8.03.44-1.82.68-2.46,1.03-2.68.35-.02.71-.08,1.09-.18.92-.24,1.53-1.13,1.4-2.08-.12-.95-.93-1.66-1.89-1.66-.41,0-.79.04-1.14.1-.9-.14-1.74-1.09-3.13-2.87-1.56-2-3.59-4.61-6.81-4.9-.12-.81-.32-1.53-.56-2.19,1.17-3.07.58-7.01-1.56-9.89-1.74-2.34-4.27-3.57-7.1-3.56-1.58-1.11-3.58-1.64-5.46-1.22-1.69.55-3.96,1.24-6.65,1.98l-12.16-43.15,4.54,3.68,53.33,49.51c.19.18.44.27.69.27.14,0,.29-.03.43-.09.37-.17.61-.55.59-.96l-7.79-184.55Zm-106.24,186.98c-.76-1.49-2.34-3.23-5.51-3.37-1.13-1.52-2.95-2.54-4.94-2.54h-.01c-2.49.32-5.19.44-7.99.45l1.35-6.13,3.93,3.93,6.16-4.55,5.79-41.48-2.43,41.28,5.92,7.53,5.92-7.53-2.43-41.3,5.8,41.5,6.16,4.55,3.92-3.92,1.34,6.12c-2.76,0-5.43-.13-7.87-.45-1.97,0-3.82,1.02-4.98,2.54-3.23.11-4.84,1.88-5.6,3.38-.3.59-.5,1.24-.65,1.91-.52,0-1.01,0-1.53,0-.57-.03-1.15-.04-1.72-.07-.15-.65-.34-1.28-.63-1.85Z"/><rect class="cls-3" x="-239.74" width="1438.42" height="319.65"/></g><circle class="cls-4" cx="479.47" cy="479.47" r="479.47"/></g></g></g></g></g></svg>