<?xml version="1.0" encoding="UTF-8"?><svg xmlns="http://www.w3.org/2000/svg" xmlns:xlink="http://www.w3.org/1999/xlink" viewBox="0 0 958.95 958.95"><defs><style>.cls-1{fill:#fff;}.cls-2{isolation:isolate;}.cls-3{fill:url(#radial-gradient);mix-blend-mode:multiply;opacity:.3;}.cls-4{clip-path:url(#clippath);}.cls-5{fill:none;}.cls-6{fill:red;}</style><clipPath id="clippath"><circle class="cls-5" cx="479.47" cy="479.47" r="479.47"/></clipPath><radialGradient id="radial-gradient" cx="479.47" cy="479.47" fx="479.47" fy="479.47" r="479.47" gradientUnits="userSpaceOnUse"><stop offset="0" stop-color="#fff"/><stop offset=".36" stop-color="#fdfdfd"/><stop offset=".48" stop-color="#f6f6f6"/><stop offset=".58" stop-color="#eaeaea"/><stop offset=".65" stop-color="#d9d9d9"/><stop offset=".71" stop-color="#c3c3c3"/><stop offset=".77" stop-color="#a8a8a8"/><stop offset=".82" stop-color="#878787"/><stop offset=".87" stop-color="#626262"/><stop offset=".91" stop-color="#373737"/><stop offset=".95" stop-color="#090909"/><stop offset=".96" stop-color="#000"/></radialGradient></defs><g class="cls-2"><g id="Layer_2"><g id="Layer_1-2"><g id="Georgia"><g class="cls-4"><g><rect class="cls-1" x="-239.98" width="1438.91" height="958.9"/><rect class="cls-6" x="-239.98" y="383.34" width="1438.91" height="192.23"/><rect class="cls-6" x="383.36" y=".05" width="192.23" height="958.9"/><path class="cls-6" d="m96.49,215.79l-.73.68c1.41,28.6,3.98,49.33,9.18,73.17-12.19-1.55-26.12-2.28-33.26-2.28s-21.07.73-33.26,2.28c5.24-23.84,7.82-44.57,9.18-73.17l-11.02-.1c-23.45,1.5-41.95,4.03-62.83,8.59,1.55-12.19,2.28-26.12,2.28-33.26s-.73-21.07-2.28-33.26c20.88,4.56,39.38,7.09,62.83,8.59l11.02-.1c-1.36-28.6-3.93-49.33-9.18-73.17,12.19,1.55,26.17,2.28,33.26,2.28s21.07-.73,33.26-2.28c-5.2,23.84-7.77,44.57-9.18,73.17l.73.68c28.55-1.41,49.33-3.93,73.17-9.18-1.6,12.19-2.33,26.12-2.33,33.26s.73,21.07,2.33,33.26c-23.84-5.24-44.62-7.77-73.17-9.18Z"/><path class="cls-6" d="m862.46,215.79l.73.68c-1.41,28.6-3.98,49.33-9.18,73.17,12.19-1.55,26.12-2.28,33.26-2.28,7.09,0,21.07.73,33.26,2.28-5.24-23.84-7.82-44.57-9.18-73.17l11.02-.1c23.45,1.5,41.95,4.03,62.83,8.59-1.55-12.19-2.28-26.12-2.28-33.26,0-7.14.73-21.07,2.28-33.26-20.88,4.56-39.38,7.09-62.83,8.59l-11.02-.1c1.36-28.6,3.93-49.33,9.18-73.17-12.19,1.55-26.17,2.28-33.26,2.28-7.14,0-21.07-.73-33.26-2.28,5.2,23.84,7.77,44.57,9.18,73.17l-.73.68c-28.55-1.41-49.33-3.93-73.17-9.18,1.6,12.19,2.33,26.12,2.33,33.26,0,7.14-.73,21.07-2.33,33.26,23.84-5.24,44.62-7.77,73.17-9.18Z"/><path class="cls-6" d="m96.49,743.11l-.73-.68c1.41-28.6,3.98-49.33,9.18-73.17-12.19,1.55-26.12,2.28-33.26,2.28s-21.07-.73-33.26-2.28c5.24,23.84,7.82,44.57,9.18,73.17l-11.02.1c-23.45-1.5-41.95-4.03-62.83-8.59,1.55,12.19,2.28,26.12,2.28,33.26s-.73,21.07-2.28,33.26c20.88-4.56,39.38-7.09,62.83-8.59l11.02.1c-1.36,28.6-3.93,49.33-9.18,73.17,12.19-1.55,26.17-2.28,33.26-2.28s21.07.73,33.26,2.28c-5.2-23.84-7.77-44.57-9.18-73.17l.73-.68c28.55,1.41,49.33,3.93,73.17,9.18-1.6-12.19-2.33-26.12-2.33-33.26s.73-21.07,2.33-33.26c-23.84,5.24-44.62,7.77-73.17,9.18Z"/><path class="cls-6" d="m862.46,743.11l.73-.68c-1.41-28.6-3.98-49.33-9.18-73.17,12.19,1.55,26.12,2.28,33.26,2.28,7.09,0,21.07-.73,33.26-2.28-5.24,23.84-7.82,44.57-9.18,73.17l11.02.1c23.45-1.5,41.95-4.03,62.83-8.59-1.55,12.19-2.28,26.12-2.28,33.26,0,7.14.73,21.07,2.28,33.26-20.88-4.56-39.38-7.09-62.83-8.59l-11.02.1c1.36,28.6,3.93,49.33,9.18,73.17-12.19-1.55-26.17-2.28-33.26-2.28-7.14,0-21.07.73-33.26,2.28,5.2-23.84,7.77-44.57,9.18-73.17l-.73-.68c-28.55,1.41-49.33,3.93-73.17,9.18,1.6-12.19,2.33-26.12,2.33-33.26,0-7.14-.73-21.07-2.33-33.26,23.84,5.24,44.62,7.77,73.17,9.18Z"/></g><circle class="cls-3" cx="479.47" cy="479.47" r="479.47"/></g></g></g></g></g></svg>