<?xml version="1.0" encoding="UTF-8"?><svg xmlns="http://www.w3.org/2000/svg" xmlns:xlink="http://www.w3.org/1999/xlink" viewBox="0 0 958.95 958.95"><defs><style>.cls-1{fill:#0038b8;}.cls-2{fill:#fff;}.cls-3{isolation:isolate;}.cls-4{fill:url(#radial-gradient);mix-blend-mode:multiply;opacity:.3;}.cls-5{clip-path:url(#clippath);}.cls-6{fill:none;}</style><clipPath id="clippath"><circle class="cls-6" cx="479.47" cy="479.47" r="479.47"/></clipPath><radialGradient id="radial-gradient" cx="479.47" cy="479.47" fx="479.47" fy="479.47" r="479.47" gradientUnits="userSpaceOnUse"><stop offset="0" stop-color="#fff"/><stop offset=".36" stop-color="#fdfdfd"/><stop offset=".48" stop-color="#f6f6f6"/><stop offset=".58" stop-color="#eaeaea"/><stop offset=".65" stop-color="#d9d9d9"/><stop offset=".71" stop-color="#c3c3c3"/><stop offset=".77" stop-color="#a8a8a8"/><stop offset=".82" stop-color="#878787"/><stop offset=".87" stop-color="#626262"/><stop offset=".91" stop-color="#373737"/><stop offset=".95" stop-color="#090909"/><stop offset=".96" stop-color="#000"/></radialGradient></defs><g class="cls-3"><g id="Layer_2"><g id="Layer_1-2"><g id="Israel"><g class="cls-5"><g><rect class="cls-2" x="-179.74" width="1318.43" height="89.7"/><rect class="cls-1" x="-179.74" y="89.7" width="1318.43" height="149.95"/><g><rect class="cls-2" x="-179.74" y="869.25" width="1318.43" height="89.7" transform="translate(958.95 1828.2) rotate(180)"/><rect class="cls-1" x="-179.74" y="719.3" width="1318.43" height="149.95" transform="translate(958.95 1588.55) rotate(180)"/></g><rect class="cls-2" x="-179.74" y="239.65" width="1318.43" height="479.66"/><path class="cls-1" d="m657.59,582.31h-356.23l178.11-308.51,178.12,308.51Zm-297.7-33.79h239.16l-119.58-207.12-119.58,207.12Z"/><path class="cls-1" d="m479.47,685.14l-178.11-308.51h356.23l-178.12,308.51Zm-119.58-274.71l119.58,207.12,119.58-207.12h-239.16Z"/></g><circle class="cls-4" cx="479.47" cy="479.47" r="479.47"/></g></g></g></g></g></svg>