<?xml version="1.0" encoding="UTF-8"?><svg xmlns="http://www.w3.org/2000/svg" xmlns:xlink="http://www.w3.org/1999/xlink" viewBox="0 0 958.95 958.95"><defs><style>.cls-1{fill:#ff9331;}.cls-1,.cls-2,.cls-3{stroke:#fff;stroke-miterlimit:10;stroke-width:5.25px;}.cls-2{fill:#128807;}.cls-4{isolation:isolate;}.cls-5{fill:url(#radial-gradient);mix-blend-mode:multiply;opacity:.3;}.cls-6{fill:#008;}.cls-7{clip-path:url(#clippath);}.cls-8{fill:none;}.cls-3{fill:#fff;}</style><clipPath id="clippath"><circle class="cls-8" cx="479.47" cy="479.47" r="479.47"/></clipPath><radialGradient id="radial-gradient" cx="479.47" cy="479.47" fx="479.47" fy="479.47" r="479.47" gradientUnits="userSpaceOnUse"><stop offset="0" stop-color="#fff"/><stop offset=".36" stop-color="#fdfdfd"/><stop offset=".48" stop-color="#f6f6f6"/><stop offset=".58" stop-color="#eaeaea"/><stop offset=".65" stop-color="#d9d9d9"/><stop offset=".71" stop-color="#c3c3c3"/><stop offset=".77" stop-color="#a8a8a8"/><stop offset=".82" stop-color="#878787"/><stop offset=".87" stop-color="#626262"/><stop offset=".91" stop-color="#373737"/><stop offset=".95" stop-color="#090909"/><stop offset=".96" stop-color="#000"/></radialGradient></defs><g class="cls-4"><g id="Layer_2"><g id="Layer_1-2"><g id="India"><g class="cls-7"><g><rect class="cls-1" x="-206.63" y="0" width="1353.81" height="319.65"/><rect class="cls-3" x="-206.63" y="319.65" width="1353.81" height="319.65"/><rect class="cls-2" x="-206.63" y="639.3" width="1353.81" height="319.65"/><g><path class="cls-6" d="m513.34,495.76l69.72,15.1-67.7-23.01-22.42-3.54c.24-1.22.39-2.47.44-3.75l22.51,2.88,71.1-4.24-71.13-3.93-22.51,2.63c-.07-1.09-.2-2.16-.41-3.21l.03.11,22.5-3.36,67.55-23.44-69.64,15.56-21.06,8.66c-.38-1.24-.85-2.44-1.41-3.58l20.73-9.21,59.42-40.78-63.4,33.73-18.05,13.92c-.67-1.06-1.41-2.06-2.23-2.99l17.64-14.18,47.63-55.01-53.19,49.22-13.98,18.04c-.77-.7-1.58-1.34-2.43-1.93l13.24-18.37,31.79-66.21-38.63,62.17-8.74,20.99c-1.23-.65-2.52-1.18-3.86-1.59l8.71-21.65,15.28-72.26-22.86,70.09-3.64,23.21c-.83-.15-1.68-.26-2.54-.32h.07s2.46-23.47,2.46-23.47l-4.02-73.24-.03-.64v.02s0-.02,0-.02l-.03.64-4.02,73.24,2.46,23.47h.06c-.81.05-1.61.15-2.4.29l-3.65-23.28-22.86-70.09,15.28,72.26,8.73,21.69c-1.54.46-3.01,1.08-4.39,1.84l-8.82-21.2-38.63-62.17,31.79,66.21,13.4,18.59c-.85.61-1.67,1.27-2.43,2l-14.2-18.33-53.19-49.22,47.63,55.01,17.96,14.44c-.73.86-1.41,1.77-2.02,2.74l-18.05-13.92-63.4-33.73,59.42,40.78,20.73,9.21c-.59,1.21-1.09,2.47-1.47,3.79l-21.01-8.64-69.64-15.56,67.55,23.44,22.49,3.35c-.17.94-.29,1.9-.35,2.87l-22.39-2.62-71.13,3.93,71.1,4.24,22.39-2.86c.05,1.17.18,2.31.39,3.43l-22.36,3.53-67.7,23.01,69.72-15.1,20.97-8.84c.38,1.29.88,2.52,1.45,3.71l-20.73,9.21-59.42,40.78,63.4-33.73,18.05-13.92c.61.96,1.28,1.88,2.02,2.74l-17.96,14.44-47.63,55.01,53.19-49.22,14.2-18.33c.77.72,1.58,1.39,2.43,2l-13.4,18.59-31.79,66.21,38.63-62.17,8.82-21.2c1.35.74,2.77,1.35,4.26,1.81l-8.73,21.69-15.28,72.26,22.86-70.09,3.65-23.26c.83.15,1.67.26,2.53.32h-.06s-2.46,23.47-2.46,23.47l4.02,73.24.03.64v-.02s0,.02,0,.02l.03-.64,4.02-73.24-2.46-23.47h-.07c.86-.06,1.7-.16,2.53-.32l3.65,23.26,22.86,70.09-15.28-72.26-8.73-21.69c1.35-.41,2.64-.95,3.87-1.6l8.74,20.99,38.63,62.17-31.79-66.21-13.24-18.37c.85-.59,1.66-1.24,2.43-1.93l13.98,18.04,53.19,49.22-47.63-55.01-17.64-14.18c.82-.93,1.56-1.94,2.23-2.99l18.05,13.92,63.4,33.73-59.42-40.78-20.73-9.21c.54-1.1.99-2.25,1.36-3.43l21.06,8.87Z"/><path class="cls-6" d="m470.28,338.03c-75.19,0-136.15,63.33-136.15,141.44s60.96,141.44,136.15,141.44,136.15-63.33,136.15-141.44-60.96-141.44-136.15-141.44Zm77.58,237.1c-1.92-2.39-5.31-2.82-7.72-.92-2.41,1.91-2.91,5.45-1.17,8-5.5,3.97-11.33,7.48-17.44,10.48-1.25-2.87-4.48-4.2-7.29-2.98-2.8,1.22-4.15,4.52-3.08,7.45-6.35,2.38-12.95,4.23-19.75,5.48-.51-3.07-3.25-5.21-6.25-4.8-3,.4-5.14,3.19-4.88,6.29-3.3.28-6.63.43-10,.43s-6.7-.15-10-.43c.29-3.13-1.85-5.96-4.87-6.36-3.02-.4-5.79,1.77-6.27,4.87-6.85-1.26-13.5-3.12-19.89-5.53,1.07-2.93-.28-6.23-3.08-7.45-2.81-1.22-6.03.11-7.28,2.96-6.09-2.99-11.9-6.5-17.37-10.46,1.7-2.52,1.25-6-1.11-7.93-2.39-1.95-5.82-1.56-7.77.84-5.32-4.67-10.24-9.8-14.71-15.35,2.29-2,2.69-5.53.85-8.02-1.83-2.47-5.18-2.98-7.63-1.23-3.73-5.6-7.02-11.54-9.84-17.76,2.74-1.32,4-4.66,2.81-7.57-1.18-2.88-4.32-4.27-7.12-3.2-2.33-6.72-4.13-13.71-5.33-20.91,2.99-.48,5.1-3.34,4.73-6.48-.37-3.16-3.1-5.41-6.13-5.1-.25-3.29-.38-6.62-.38-9.97,0-3.59.15-7.15.44-10.66,3.03.32,5.78-1.93,6.15-5.09.37-3.13-1.72-5.99-4.69-6.48,1.19-6.87,2.92-13.54,5.14-19.97,2.83,1.13,6.03-.29,7.2-3.22,1.17-2.94-.14-6.29-2.92-7.57,2.92-6.47,6.35-12.64,10.25-18.45,2.46,1.79,5.86,1.27,7.69-1.24,1.82-2.49,1.41-6-.87-7.99,4.27-5.25,8.94-10.13,13.98-14.58,1.92,2.37,5.3,2.8,7.7.9,2.42-1.92,2.92-5.48,1.16-8.03,5.65-4.13,11.65-7.76,17.96-10.84,1.27,2.85,4.49,4.16,7.29,2.92,2.77-1.22,4.11-4.49,3.08-7.39,6.3-2.36,12.84-4.2,19.58-5.44.49,3.1,3.25,5.26,6.27,4.85,3.02-.41,5.16-3.23,4.87-6.35,3.34-.29,6.72-.45,10.14-.45s6.8.16,10.14.45c-.3,3.14,1.86,5.99,4.89,6.38,3.02.39,5.77-1.78,6.25-4.88,6.85,1.27,13.5,3.14,19.89,5.56-1.07,2.93.27,6.24,3.08,7.46,2.81,1.22,6.02-.11,7.28-2.96,6.19,3.05,12.08,6.63,17.63,10.68-1.76,2.55-1.27,6.11,1.15,8.03,2.4,1.91,5.79,1.48,7.71-.9,5.1,4.51,9.82,9.45,14.13,14.77-2.3,1.97-2.74,5.48-.93,7.99,1.83,2.54,5.26,3.08,7.74,1.26,3.8,5.69,7.16,11.71,10.02,18.03-2.72,1.3-4,4.61-2.85,7.52,1.15,2.92,4.33,4.35,7.16,3.26,2.24,6.47,3.99,13.18,5.19,20.09-2.97.53-5.03,3.41-4.62,6.54.41,3.11,3.11,5.31,6.09,5.03.29,3.56.45,7.16.45,10.8,0,3.36-.13,6.69-.38,9.98-2.99-.29-5.69,1.92-6.09,5.04-.4,3.15,1.69,6.04,4.69,6.53-1.21,7.23-3.01,14.24-5.36,20.99-2.81-1.1-5.97.29-7.15,3.18-1.19,2.92.08,6.28,2.84,7.59-2.82,6.21-6.12,12.15-9.85,17.75-2.45-1.81-5.86-1.31-7.71,1.18-1.86,2.51-1.44,6.09.91,8.08-4.47,5.54-9.4,10.67-14.72,15.33Z"/></g></g></g><circle class="cls-5" cx="479.47" cy="479.47" r="479.47"/></g></g></g></g></svg>