<?xml version="1.0" encoding="UTF-8"?><svg xmlns="http://www.w3.org/2000/svg" xmlns:xlink="http://www.w3.org/1999/xlink" viewBox="0 0 958.95 958.95"><defs><style>.cls-1{fill:#13834a;}.cls-2{isolation:isolate;}.cls-3{fill:#cf2234;}.cls-4{fill:url(#radial-gradient);mix-blend-mode:multiply;opacity:.3;}.cls-5{fill:#fdfdfd;}.cls-6{clip-path:url(#clippath);}.cls-7{fill:#121212;}.cls-8{fill:none;}</style><clipPath id="clippath"><circle class="cls-8" cx="479.47" cy="479.47" r="479.47"/></clipPath><radialGradient id="radial-gradient" cx="479.47" cy="479.47" fx="479.47" fy="479.47" r="479.47" gradientUnits="userSpaceOnUse"><stop offset="0" stop-color="#fff"/><stop offset=".36" stop-color="#fdfdfd"/><stop offset=".48" stop-color="#f6f6f6"/><stop offset=".58" stop-color="#eaeaea"/><stop offset=".65" stop-color="#d9d9d9"/><stop offset=".71" stop-color="#c3c3c3"/><stop offset=".77" stop-color="#a8a8a8"/><stop offset=".82" stop-color="#878787"/><stop offset=".87" stop-color="#626262"/><stop offset=".91" stop-color="#373737"/><stop offset=".95" stop-color="#090909"/><stop offset=".96" stop-color="#000"/></radialGradient></defs><g class="cls-2"><g id="Layer_2"><g id="Layer_1-2"><g id="Iraq"><g class="cls-6"><g><rect class="cls-3" x="-239.74" width="1438.42" height="319.65"/><rect class="cls-5" x="-239.74" y="319.65" width="1438.42" height="319.65"/><rect class="cls-7" x="-239.74" y="639.3" width="1438.42" height="319.65"/><path class="cls-1" d="m470.27,546.67h-234.29c-1.84,16.51-18.87,28.61-38.04,27.03-2.08-.17-4.14-.5-6.16-.99,32.81-16.1,30.75-32.45,10.05-68.77,11.5-4.12,13.32-5.21,24.94-13.08-8.23,24.94,21.31,21.92,43.1,21.92,0-8.72.85-18.65-5.69-19.98,8.48-3.03,9.2-4,22.64-15.38v33.54h161.64v-23.01c0-2.67-2.17-4.84-4.84-4.84s-4.84,2.17-4.84,4.84v13.32c0,2.01-1.63,3.63-3.63,3.63h-123.5v-21.79l92.75-89.6c-.61,4.6,8.96,16.95,12.96,19.01-3.03.48-6.42-.12-8.6,2.06l-75.92,73.37h84.15c0-19.49,18.16-19.49,26.64-26.4,8.48,6.9,26.64,6.9,26.64,26.4v58.72Zm17.56,0v-153.17c8.6,4.72,15.26,10.17,25.91,12.83-.48,6.05-5.93,7.99-5.93,12.23v94.2c11.87,2.66,14.53-4.24,20.22-7.75,1.45,15.01,11.02,29.79,10.65,41.65h-50.85Zm160.07-102.31l18.77-15.74v82.33h13.32v-93.59c6.54-5.45,15.01-11.38,18.77-18.28v147.6h-118.05c-1.7-30.51-1.7-61.87,33.9-55.09v-12.47c0-2.91-4.36-.61-4.36-3.27l24.34-20.34v55.45h13.32v-66.59Zm-6.18-42.14c-2.3.12-5.81-12.47-4.96-14.89.85-2.78,4-2.78,5.33-1.45,2.18,2.06,1.94,16.22-.36,16.35Zm-21.92,17.07c-6.66-3.87-5.57-5.45.24-3.75,10.05,3.03,15.13.48,22.4-6.9l5.45,2.78c7.14,3.63,11.5,2.06,14.05-6.66.73-2.66,2.91-1.94,3.51,1.09,2.3,12.11-6.9,15.86-16.22,12.47-5.09-1.7-5.93-1.7-8.48.24-5.57,4.36-13.56,5.09-20.95.73Zm96.5,127.38v-153.17c8.6,4.72,15.26,10.17,25.91,12.83-.48,6.05-5.93,7.99-5.93,12.23v94.2c11.87,2.66,14.53-4.24,20.22-7.75,1.45,15.01,11.02,29.79,10.65,41.65h-50.85Zm-459.01,16.95c0-3.95,3.2-7.14,7.14-7.14s7.14,3.2,7.14,7.14-3.2,7.14-7.14,7.14-7.14-3.2-7.14-7.14Zm346.41-55.7c0,2.27,2.44,4.12,5.45,4.12s5.45-1.84,5.45-4.12-2.44-4.12-5.45-4.12-5.45,1.84-5.45,4.12Z"/></g><circle class="cls-4" cx="479.47" cy="479.47" r="479.47"/></g></g></g></g></g></svg>