<?xml version="1.0" encoding="UTF-8"?><svg xmlns="http://www.w3.org/2000/svg" xmlns:xlink="http://www.w3.org/1999/xlink" viewBox="0 0 958.95 958.95"><defs><style>.cls-1{fill:#fff;}.cls-2{fill:#da0000;}.cls-3{isolation:isolate;}.cls-4{fill:url(#radial-gradient);mix-blend-mode:multiply;opacity:.3;}.cls-5{clip-path:url(#clippath);}.cls-6{fill:none;}.cls-7{fill:#239f40;}</style><clipPath id="clippath"><circle class="cls-6" cx="479.47" cy="479.47" r="479.47"/></clipPath><radialGradient id="radial-gradient" cx="479.47" cy="479.47" fx="479.47" fy="479.47" r="479.47" gradientUnits="userSpaceOnUse"><stop offset="0" stop-color="#fff"/><stop offset=".36" stop-color="#fdfdfd"/><stop offset=".48" stop-color="#f6f6f6"/><stop offset=".58" stop-color="#eaeaea"/><stop offset=".65" stop-color="#d9d9d9"/><stop offset=".71" stop-color="#c3c3c3"/><stop offset=".77" stop-color="#a8a8a8"/><stop offset=".82" stop-color="#878787"/><stop offset=".87" stop-color="#626262"/><stop offset=".91" stop-color="#373737"/><stop offset=".95" stop-color="#090909"/><stop offset=".96" stop-color="#000"/></radialGradient></defs><g class="cls-3"><g id="Layer_2"><g id="Layer_1-2"><g id="Iran"><g class="cls-5"><g><rect class="cls-1" x="-360.14" y="319.65" width="1679.22" height="319.65"/><rect class="cls-2" x="-360.14" y="639.3" width="1679.22" height="319.65"/><rect class="cls-7" x="-360.14" y="0" width="1679.22" height="319.65"/><path class="cls-2" d="m381.06,486.03c0,27.14,8.95,52.21,24.09,72.37-27.6-15.45-46.24-45.01-46.24-78.93,0-41.92,28.51-77.21,67.24-87.46-27.49,22.09-45.08,56-45.08,94.03Z"/><path class="cls-2" d="m577.64,486.03c0,27.14-8.95,52.21-24.09,72.37,27.6-15.45,46.24-45.01,46.24-78.93,0-41.92-28.51-77.21-67.24-87.46,27.49,22.09,45.08,56,45.08,94.03Z"/><g><path class="cls-2" d="m479.35,380.36c1.74,5.5,33.59,17.09,30.44-16.26-7.13,15.84-20.74,16.26-30.44,5.23-9.7,11.03-23.31,10.62-30.44-5.23-3.15,33.34,28.7,21.76,30.44,16.26Z"/><path class="cls-2" d="m519.66,393.3s60.71,92.56-29.61,163.48l3.48-160c-6.03-3.38-9.65-5.57-14.18-10.76-4.53,5.19-8.15,7.38-14.18,10.76l3.48,160c-90.32-70.92-29.61-163.48-29.61-163.48-53.25,45.78-51.51,139.59,21.65,179.15-17.23,5.37-27.64,6.86-46.66,6.97,22.52,12.57,56.36,2.99,56.36,2.99v4.73l8.96,12.57,8.96-12.57v-4.73s33.84,9.58,56.36-2.99c-19.02-.1-29.43-1.6-46.65-6.97,73.15-39.56,74.9-133.37,21.65-179.15Z"/></g></g><circle class="cls-4" cx="479.47" cy="479.47" r="479.47"/></g></g></g></g></g></svg>