<?xml version="1.0" encoding="UTF-8"?><svg xmlns="http://www.w3.org/2000/svg" xmlns:xlink="http://www.w3.org/1999/xlink" viewBox="0 0 958.95 958.95"><defs><style>.cls-1{isolation:isolate;}.cls-2{fill:url(#radial-gradient);mix-blend-mode:multiply;opacity:.3;}.cls-3{clip-path:url(#clippath);}.cls-4{fill:none;}.cls-5{fill:red;}.cls-6{fill:#ff0;}</style><clipPath id="clippath"><circle class="cls-4" cx="479.47" cy="479.47" r="479.47"/></clipPath><radialGradient id="radial-gradient" cx="479.47" cy="479.47" fx="479.47" fy="479.47" r="479.47" gradientUnits="userSpaceOnUse"><stop offset="0" stop-color="#fff"/><stop offset=".36" stop-color="#fdfdfd"/><stop offset=".48" stop-color="#f6f6f6"/><stop offset=".58" stop-color="#eaeaea"/><stop offset=".65" stop-color="#d9d9d9"/><stop offset=".71" stop-color="#c3c3c3"/><stop offset=".77" stop-color="#a8a8a8"/><stop offset=".82" stop-color="#878787"/><stop offset=".87" stop-color="#626262"/><stop offset=".91" stop-color="#373737"/><stop offset=".95" stop-color="#090909"/><stop offset=".96" stop-color="#000"/></radialGradient></defs><g class="cls-1"><g id="Layer_2"><g id="Layer_1-2"><g id="Kyrgyzstan"><g class="cls-3"><g><rect class="cls-5" x="-319.65" width="1598.25" height="958.95"/><g><path class="cls-6" d="m544.66,339.55c-42.59-20.64-92.85-20.21-135.04,1.24,25,9.58,46.99,19.24,66.5,29.3,20.17-10.51,42.83-20.57,68.54-30.55Z"/><path class="cls-6" d="m396.72,605.73c49.29,31.4,112.45,31.72,162.04.8-22.52-56.97-46.24-97.93-79.31-131.09-34.67,33.25-59.58,73.9-82.73,130.3Z"/><path class="cls-6" d="m402.39,419.04c-15.65-8.64-32.81-16.98-51.74-25.36-22.83,34.83-30.14,77.03-21.01,117.31,20.53-36.58,43.05-66.23,72.75-91.95Z"/><path class="cls-6" d="m429.66,397.85c-17.73-9.31-37.64-18.49-60.03-27.8-2.7,2.75-5.28,5.59-7.76,8.51,20.57,9.22,39.1,18.4,55.9,27.97,3.81-2.93,7.8-5.81,11.88-8.69Z"/><path class="cls-6" d="m457.37,380.38c-19.6-9.49-41.76-18.66-67.03-27.93-2.04,1.42-4.08,2.97-6.07,4.52,23.23,9.98,43.8,19.82,62.15,29.93,3.55-2.22,7.23-4.39,10.95-6.52Z"/><path class="cls-6" d="m434.85,438.82c-4.88-3.33-9.93-6.56-15.16-9.75-34.62,28.68-59.01,62.51-81.97,106.89,3.5,8.33,7.71,16.27,12.59,23.76,22.79-49.7,47.75-87.91,84.54-120.9Z"/><path class="cls-6" d="m435.25,416.96c4.92,3.1,9.71,6.25,14.32,9.44,4.12-3.28,8.42-6.52,12.86-9.71-4.57-2.93-9.31-5.81-14.23-8.65-4.48,2.93-8.78,5.9-12.95,8.91Z"/><path class="cls-6" d="m477.45,390.71c-4.26,2.26-8.42,4.57-12.41,6.92,4.48,2.75,8.87,5.5,13.08,8.33,4.03-2.66,8.16-5.23,12.41-7.85-4.21-2.53-8.56-5.01-13.08-7.4Z"/><path class="cls-6" d="m507.82,388.14c19.11-10.55,40.43-20.88,64.51-31.3-2.22-1.73-4.43-3.41-6.74-5.01-26.07,9.71-48.99,19.33-69.38,29.26,3.99,2.31,7.85,4.66,11.62,7.05Z"/><path class="cls-6" d="m465.3,462.18c-4.74-4.12-9.66-8.16-14.81-12.1-38.66,33.74-63.62,73.28-87.16,126.97,5.36,6.16,11.22,11.88,17.51,17.11,23.67-56.7,49.25-98.06,84.45-131.98Z"/><path class="cls-6" d="m493.01,438.51c-4.43-3.59-9.09-7.14-13.96-10.6-4.79,3.33-9.35,6.65-13.79,10.06,4.83,3.77,9.49,7.63,13.97,11.62,4.43-3.81,9.04-7.49,13.79-11.08Z"/><path class="cls-6" d="m507.73,427.87c4.39-3.06,8.95-6.03,13.7-9-4.17-3.19-8.56-6.34-13.08-9.4-4.7,2.7-9.22,5.41-13.61,8.16,4.52,3.37,8.82,6.78,12.99,10.24Z"/><path class="cls-6" d="m537.52,409.24c.96,0,16.48-10.6,58.48-29.35-2.57-3.1-5.28-6.12-8.11-9.04-23.28,9.75-43.93,19.37-62.42,29.17,4.17,3.01,8.16,6.03,12.06,9.22Z"/><path class="cls-6" d="m537.12,431.77c-.45,0-13.35,8.48-14.59,9.31,34.8,33.25,57.99,72.4,80.07,124.31,4.88-6.87,9.22-14.1,12.95-21.72-22.61-47.26-45.44-82.46-78.43-111.9Z"/><path class="cls-6" d="m507.86,451.41c-5.01,3.77-9.84,7.58-14.5,11.53,33.47,33.83,57.85,75.37,80.78,132.64,5.59-4.48,10.86-9.4,15.74-14.67-22.88-55.59-45.8-95.76-82.02-129.5Z"/><path class="cls-6" d="m607.44,395.68c-19.99,8.87-38.04,17.73-54.44,26.82,29.22,27.04,50.89,58.74,71.33,98.86,12.28-40.14,7.91-86.49-16.89-125.68Z"/><path class="cls-6" d="m720.5,504.07c-14.12-16.45-47.63-22.37-66.42-25.69,24.83,0,24.47-7.53,49.29-3.1,22.9,4.09,45.48,4.09,54.73-15.59,0,0-23.42,13.28-36.99,2.15-25.26-20.73-87.31-10.69-64.69-14.68,16.66-2.94,17.88-10.75,42.82-10.7,23.26.05,45.5-3.87,51.19-24.86,0,0-20.76,17.15-36.05,8.54-18.89-10.63-52.41-4.73-71.2-1.42,23.3-8.48,20.47-15.45,45.25-19.77,22.92-3.99,44.14-11.72,46.1-33.37,0,0-17.46,20.49-34.02,14.67-30.83-10.84-85.7,19.82-65.81,8.34,14.65-8.46,13.13-16.22,36.58-24.7,21.88-7.91,41.43-19.2,39.6-40.87,0,0-13.64,23.21-30.96,20.36-21.39-3.53-50.87,13.48-67.39,23.02,19.02-15.96,13.91-21.49,35.76-34.05,20.17-11.59,37.47-26.11,31.9-47.12,0,0-9.4,25.23-26.95,25.42-32.68.36-73.76,47.93-58.99,30.34,10.88-12.96,6.79-19.73,25.93-35.72,17.85-14.92,32.37-32.22,23.24-51.95,0,0-4.88,26.48-22.13,29.72-21.31,4-43.19,30.06-55.46,44.68,12.42-21.5,5.72-24.96,21.96-44.23,14.99-17.79,26.28-37.35,13.86-55.19,0,0-.21,26.92-16.63,33.11-30.58,11.51-52.91,70.26-45.06,48.69,5.79-15.9-.37-20.86,12.15-42.44,11.67-20.12,19.4-41.34,4.07-56.76,0,0,4.47,26.55-10.63,35.49-18.65,11.05-30.31,43.03-36.83,60.95,4.31-24.46-3.16-25.41,5.51-49.08,8-21.85,11.92-44.08-5.85-56.61,0,0,9.01,25.37-4.31,36.8-24.8,21.28-25.69,84.12-25.69,61.16,0-16.92-7.48-19.47-3.1-44.03,4.09-22.9,4.09-45.48-15.59-54.73,0,0,13.28,23.42,2.15,36.99-13.75,16.76-13.76,50.8-13.76,69.87-4.31-24.41-11.66-22.84-11.61-48,.05-23.27-3.87-45.5-24.86-51.19,0,0,17.15,20.76,8.54,36.05-16.03,28.48,4.64,87.83-3.22,66.26-5.79-15.9-13.69-15.74-17.97-40.32-3.99-22.92-11.72-44.14-33.37-46.1,0,0,20.49,17.46,14.67,34.02-7.19,20.45,4.44,52.44,10.96,70.36-12.39-21.46-18.77-17.48-27.33-41.13-7.91-21.88-19.2-41.43-40.87-39.6,0,0,23.21,13.64,20.36,30.96-5.32,32.24,34.4,80.95,19.64,63.37-10.87-12.96-18.25-10.11-30.68-31.74-11.59-20.17-26.11-37.47-47.12-31.9,0,0,25.23,9.4,25.42,26.95.24,21.68,22.11,47.76,34.37,62.37-19.03-15.96-23.58-9.96-39.75-29.31-14.92-17.85-32.22-32.37-51.95-23.24,0,0,26.48,4.88,29.72,22.13,6.03,32.12,60.01,64.31,40.13,52.83-14.65-8.46-20.61-3.26-39.68-19.33-17.79-14.99-37.35-26.28-55.19-13.86,0,0,26.92.21,33.11,16.63,7.64,20.29,37.11,37.32,53.63,46.85-23.29-8.47-25.62-1.32-47.37-13.95-20.12-11.67-41.34-19.4-56.76-4.07,0,0,26.55-4.47,35.49,10.63,16.65,28.12,78.38,39.9,55.77,35.92-16.66-2.94-20.48,3.98-43.9-4.59-21.85-8-44.08-11.92-56.61,5.85,0,0,25.37-9.02,36.8,4.31,14.12,16.45,47.63,22.37,66.42,25.69-24.83,0-24.47,7.53-49.29,3.1-22.9-4.09-45.48-4.09-54.73,15.59,0,0,23.42-13.28,36.99-2.15,25.26,20.73,87.31,10.69,64.69,14.68-16.65,2.94-17.9,10.75-42.82,10.7-23.26-.05-45.5,3.87-51.19,24.86,0,0,20.76-17.15,36.05-8.54,18.89,10.63,52.41,4.73,71.2,1.42-23.29,8.48-20.47,15.45-45.25,19.77-22.92,3.99-44.14,11.72-46.1,33.37,0,0,17.46-20.49,34.02-14.67,30.83,10.84,85.7-19.82,65.81-8.34-14.65,8.46-13.13,16.22-36.58,24.7-21.88,7.91-41.43,19.2-39.6,40.87,0,0,13.64-23.21,30.96-20.36,21.39,3.53,50.87-13.48,67.39-23.02-19.02,15.96-13.91,21.49-35.76,34.05-20.17,11.59-37.47,26.11-31.9,47.12,0,0,9.4-25.23,26.95-25.42,32.68-.36,73.75-47.93,58.99-30.34-10.87,12.96-6.79,19.73-25.93,35.72-17.85,14.92-32.37,32.22-23.24,51.95,0,0,4.88-26.48,22.13-29.72,21.31-4,43.19-30.07,55.46-44.68-12.42,21.51-5.72,24.96-21.96,44.23-14.99,17.79-26.28,37.35-13.86,55.19,0,0,.21-26.92,16.63-33.11,30.58-11.51,52.91-70.27,45.06-48.69-5.79,15.9.37,20.86-12.15,42.44-11.67,20.12-19.4,41.34-4.07,56.76,0,0-4.47-26.55,10.63-35.49,18.65-11.05,30.31-43.03,36.83-60.95-4.31,24.46,3.16,25.41-5.51,49.08-8,21.85-11.92,44.08,5.85,56.61,0,0-9.01-25.37,4.31-36.8,24.8-21.28,25.69-84.12,25.69-61.16,0,16.92,7.48,19.48,3.1,44.03-4.09,22.9-4.09,45.48,15.59,54.73,0,0-13.28-23.42-2.15-36.99,13.75-16.76,13.76-50.8,13.76-69.87,4.31,24.41,11.66,22.84,11.61,48-.05,23.26,3.87,45.5,24.86,51.19,0,0-17.15-20.76-8.54-36.05,16.14-28.69-4.81-88.31,3.22-66.26,5.79,15.9,13.69,15.74,17.97,40.32,3.99,22.92,11.72,44.14,33.37,46.1,0,0-20.49-17.46-14.67-34.02,7.19-20.45-4.44-52.44-10.96-70.37,12.39,21.46,18.77,17.48,27.33,41.13,7.91,21.88,19.2,41.43,40.87,39.6,0,0-23.21-13.64-20.36-30.96,5.32-32.24-34.4-80.95-19.64-63.37,10.87,12.96,18.25,10.11,30.68,31.74,11.59,20.17,26.11,37.47,47.12,31.9,0,0-25.23-9.4-25.42-26.95-.24-21.68-22.11-47.76-34.37-62.37,19.02,15.96,23.58,9.96,39.75,29.31,14.92,17.85,32.22,32.37,51.95,23.24,0,0-26.48-4.88-29.72-22.13-6.03-32.12-60.01-64.31-40.13-52.83,14.65,8.46,20.61,3.26,39.68,19.33,17.79,14.99,37.35,26.28,55.19,13.86,0,0-26.92-.21-33.11-16.63-7.64-20.29-37.11-37.32-53.63-46.85,23.29,8.48,25.61,1.32,47.37,13.94,20.12,11.67,41.34,19.4,56.76,4.07,0,0-26.55,4.47-35.49-10.63-16.65-28.12-78.39-39.91-55.77-35.92,16.66,2.94,20.48-3.99,43.9,4.59,21.85,8,44.08,11.92,56.61-5.85,0,0-25.37,9.02-36.8-4.31Zm-241.02,137.88c-89.59,0-162.47-72.89-162.47-162.48s72.88-162.48,162.47-162.48,162.48,72.89,162.48,162.48-72.89,162.48-162.48,162.48Z"/></g></g><circle class="cls-2" cx="479.47" cy="479.47" r="479.47"/></g></g></g></g></g></svg>