<?xml version="1.0" encoding="UTF-8"?><svg xmlns="http://www.w3.org/2000/svg" xmlns:xlink="http://www.w3.org/1999/xlink" viewBox="0 0 958.95 958.95"><defs><style>.cls-1{fill:#fff;}.cls-2{isolation:isolate;}.cls-3{fill:url(#radial-gradient);mix-blend-mode:multiply;opacity:.3;}.cls-4{fill:#f00129;}.cls-5{clip-path:url(#clippath);}.cls-6{fill:none;}.cls-7{fill:#0532ad;}</style><clipPath id="clippath"><circle class="cls-6" cx="479.47" cy="479.47" r="479.47"/></clipPath><radialGradient id="radial-gradient" cx="479.47" cy="479.47" fx="479.47" fy="479.47" r="479.47" gradientUnits="userSpaceOnUse"><stop offset="0" stop-color="#fff"/><stop offset=".36" stop-color="#fdfdfd"/><stop offset=".48" stop-color="#f6f6f6"/><stop offset=".58" stop-color="#eaeaea"/><stop offset=".65" stop-color="#d9d9d9"/><stop offset=".71" stop-color="#c3c3c3"/><stop offset=".77" stop-color="#a8a8a8"/><stop offset=".82" stop-color="#878787"/><stop offset=".87" stop-color="#626262"/><stop offset=".91" stop-color="#373737"/><stop offset=".95" stop-color="#090909"/><stop offset=".96" stop-color="#000"/></radialGradient></defs><g class="cls-2"><g id="Layer_2"><g id="Layer_1-2"><g id="Cambodia"><g class="cls-5"><g><path class="cls-7" d="m-269.7,0h1498.36v958.95H-269.7V0Z"/><path class="cls-4" d="m-269.7,239.74h1498.36v479.47H-269.7V239.74Z"/><path class="cls-1" d="m774.7,648.05v-29.99h-15.51v-25.62h-15.39v-19.3h-9.19v-14.94h-13.49c-3.58-2.25-7.5-6.48-8.85-11.27l-.24-.84h-.2v-47.7c1.55-5.81,6.51-10.92,10.04-11.9l.84-.23h0v-48.16h-1.15c-3.59,0-6.14,2.34-7.79,4.58v-14.65l-.45-.35c-2.03-1.57-4.46-1.65-7.24-.25l-.63.32v4.25h-7.9v-21.53h-1.15c-1.89,0-2.84,1.94-3.93,4.19-1.36,2.8-2.9,5.97-6.26,5.97-.94,0-1.18-.4-1.27-.56-.58-1-.12-3.26,1.09-5.36,2.08-3.6,4.05-8.11,1.06-16.04l-1.14-3.01-1.03,3.05c-1.18,3.49-3.48,5.15-4.34,5.28,0-.1.02-.26.08-.48.5-1.88,1.32-3.29,2.1-4.65,1.84-3.18,3.58-6.19.84-13.56l-1.54-4.13-.68,4.35c-.6,3.85-2.05,5.32-2.74,5.55-.22.08-.29.02-.31,0-.19-.17-.36-.84-.06-1.95.33-1.26.76-2.34,1.17-3.39,1.37-3.5,2.56-6.52-.49-12.82l-1.4-2.9-.75,3.13c-.95,3.95-1.87,5.29-2.26,5.71-.17-.37-.39-1.18-.39-2.64v-.67c0-7.76.02-16.54-10.17-20.08-.29-2.15-1.42-7.64-5.4-7.64s-5.12,5.49-5.41,7.64c-10.18,3.54-10.17,12.32-10.16,20.08v.67c0,1.46-.22,2.27-.39,2.64-.4-.42-1.32-1.76-2.26-5.71l-.75-3.13-1.41,2.9c-3.05,6.3-1.87,9.32-.49,12.82.41,1.05.84,2.13,1.18,3.39.3,1.11.13,1.78-.06,1.95-.02.02-.09.08-.31,0-.68-.24-2.13-1.7-2.73-5.55l-.68-4.35-1.54,4.13c-2.75,7.37-1.01,10.38.83,13.56.79,1.36,1.6,2.77,2.11,4.64.06.22.08.38.08.48-.86-.13-3.16-1.78-4.34-5.27l-1.03-3.05-1.14,3.01c-3.24,8.58-.55,13.25,1.06,16.04,1.21,2.1,1.67,4.35,1.09,5.36-.09.15-.32.56-1.27.56-3.36,0-4.9-3.17-6.26-5.97-1.09-2.25-2.03-4.19-3.93-4.19h-1.15v37.79h-9.56v-1.85l-.48-.34c-1.75-1.26-4.36-.98-6.04-.19l-.66.31v2.16h-58.5l.1-34.8-1.58.62c-5.81,2.29-6.89,7.51-6.93,7.73v5.29h-5.3s-2.45-.13-2.45-4.86c0-3.45.78-6.09,2.19-7.44.83-.8,1.86-1.16,3.17-1.1l1.2.05v-14.5l-1.3.17c-.09.01-6.71.96-10.33,6.96v-3.44h-1.15c-4.83,0-5.23,5.86-5.25,16.27h-1.09v-12.09c.09-3.11,1.72-4.62,3.44-6.22,1.6-1.49,3.26-3.03,3.36-5.64.04-.31.85-7.68-1.23-11.27l-1.39-2.4-.72,2.68c-1.39,5.2-3.25,6.37-3.98,6.27-.62-.08-1.08-.96-1.08-2.04,0-2.49,1.74-5.1,5.2-10.32.83-1.25,1.76-2.65,2.79-4.23,2.01-3.1.93-12.11-1.86-15.55l-1.69-2.08-.35,2.66c-.96,7.39-1.98,9.88-4.07,9.88-.58,0-2.35,0-2.35-3.79,0-2.6,1.1-4.4,2.37-6.49.82-1.34,1.67-2.73,2.29-4.45,1.88-5.14.77-10.82-2.75-14.13l-1.55-1.45-.37,2.09c-.27,1.48-.46,2.78-.63,3.92-.68,4.54-.93,5.24-2.2,5.29-.87-.31-1.43-.8-1.68-1.48-1-2.67,2.21-7.89,3.42-9.86.19-.3.35-.56.47-.77l.12-.28c1.36-5.07-2.25-9.19-2.4-9.36l-1.34-1.5-.61,1.92c-1.94,6.05-2.32,5.95-3.57,5.62-.52-.14-.82-.44-.95-.95-.3-1.15.33-3.34,2.44-5.42,2.57-2.53,2.43-6.41-.35-9.45l-1.12-1.22-.75,1.48c-1.19,2.33-2.73,3.08-3.4,2.84-.33-.12-.29-.59-.24-.86l2.33-11.57h-2.76l.96-7.58h-3.51l.84-6.32h-6.06l.56-6.38h-5.58c-.06-1.9-.44-6.15-2.68-8.51-1.04-1.1-2.33-1.67-3.89-1.69-1.51.03-2.8.6-3.84,1.69-2.23,2.36-2.62,6.61-2.68,8.51h-5.57l.56,6.38h-6.07l.84,6.32h-3.51l.96,7.58h-2.73l2.09,11.71c-.06.37-.22.73-.49.78-.55.1-1.75-.59-2.94-2.91l-.76-1.48-1.12,1.22c-2.77,3.03-2.92,6.92-.35,9.45,2.11,2.07,2.75,4.26,2.45,5.41-.13.51-.44.82-.95.96-1.24.33-1.63.44-3.57-5.62l-.72-2.25-1.33,1.96c-.42.63-4.1,6.22-2.19,9.52.12.21.28.47.47.78,1.32,2.15,4.41,7.19,3.42,9.85-.26.69-.81,1.17-1.68,1.48-1.27-.05-1.52-.74-2.2-5.28-.17-1.14-.37-2.44-.63-3.93l-.37-2.09-1.55,1.45c-3.53,3.31-4.63,8.99-2.75,14.13.63,1.71,1.47,3.1,2.29,4.44,1.28,2.09,2.38,3.89,2.38,6.49,0,3.79-1.77,3.79-2.36,3.79-2.08,0-3.11-2.49-4.06-9.88l-.34-2.66-1.69,2.08c-2.8,3.44-3.88,12.45-1.86,15.55,1.02,1.57,1.95,2.96,2.77,4.21,3.47,5.22,5.21,7.85,5.21,10.34,0,1.08-.47,1.96-1.08,2.04-.73.09-2.59-1.08-3.98-6.27l-.72-2.68-1.39,2.4c-2.08,3.6-1.27,10.96-1.24,11.19.11,2.7,1.76,4.24,3.37,5.73,1.72,1.6,3.35,3.11,3.44,6.18v12.12h-1.02c0-11.16-.18-16.27-5.62-16.27h-1.15v3.49c-3.62-5.98-10.19-7-10.28-7.01l-1.3-.17v14.5l1.2-.05c1.31-.06,2.34.3,3.17,1.1,1.41,1.35,2.19,4,2.19,7.44,0,4.63-2.37,4.85-2.45,4.86h-.24s-5.8,0-5.8,0v-5.07l-.04-.3c-.06-.22-1.52-5.38-7.3-7.65l-1.57-.62v34.79h-56.45v-2.16l-.66-.31c-1.68-.79-4.28-1.06-6.04.19l-.48.34v1.85h-9.56v-37.79h-1.15c-1.89,0-2.84,1.94-3.93,4.19-1.36,2.8-2.9,5.97-6.26,5.97-.95,0-1.18-.41-1.27-.56-.58-1-.12-3.26,1.09-5.36,1.61-2.79,4.3-7.45,1.06-16.04l-1.14-3.01-1.03,3.05c-1.18,3.49-3.48,5.14-4.34,5.27,0-.1.02-.26.08-.48.5-1.88,1.32-3.28,2.11-4.65,1.84-3.18,3.58-6.19.83-13.56l-1.54-4.13-.68,4.35c-.6,3.85-2.05,5.32-2.73,5.55-.22.07-.29.02-.31,0-.19-.17-.36-.84-.06-1.95.33-1.26.76-2.34,1.17-3.39,1.37-3.5,2.56-6.52-.49-12.82l-1.41-2.9-.75,3.13c-.94,3.95-1.87,5.29-2.26,5.71-.17-.37-.39-1.18-.39-2.64v-.67c0-7.76.02-16.54-10.16-20.08-.29-2.15-1.42-7.64-5.41-7.64s-5.11,5.49-5.4,7.64c-10.18,3.54-10.17,12.32-10.17,20.08v.67c0,1.46-.22,2.27-.38,2.64-.4-.42-1.32-1.76-2.26-5.71l-.75-3.14-1.41,2.9c-3.05,6.3-1.87,9.32-.49,12.82.41,1.05.84,2.14,1.17,3.39.3,1.11.13,1.78-.06,1.95-.02.02-.09.08-.31,0-.68-.24-2.14-1.7-2.74-5.55l-.68-4.35-1.54,4.13c-2.74,7.37-1.01,10.37.84,13.56.79,1.36,1.6,2.77,2.1,4.65.06.22.08.37.08.48-.86-.13-3.16-1.78-4.34-5.28l-1.03-3.05-1.14,3.01c-3.24,8.59-.55,13.25,1.06,16.04,1.21,2.1,1.67,4.35,1.09,5.36-.09.15-.32.56-1.27.56-3.36,0-4.9-3.17-6.26-5.97-1.09-2.25-2.03-4.19-3.93-4.19h-1.15v21.53h-7.9v-4.25l-.63-.32c-2.77-1.4-5.21-1.32-7.24.25l-.45.35v14.65c-1.65-2.24-4.2-4.58-7.79-4.58h-1.15v48.16h0s.84.24.84.24c3.53.98,8.49,6.09,10.04,11.9v48.63c-1.37,4.75-5.25,8.94-8.81,11.18h-14.02v14.94h-9.2v19.43l-15.39-.14v25.64h-15.5v29.99s-15.5,0-15.5,0v32.29h110.61v.04h8.49s23.88,0,23.88,0h0s8.51,0,8.51,0v-.04h138.14v.04h8.75s23.88,0,23.88,0h0s8.25,0,8.25,0v-.04h139.19v.04h8.49s23.88,0,23.88,0h0s8.51,0,8.51,0v-.04h110.88v-32.29h-15.49Z"/></g><circle class="cls-3" cx="479.47" cy="479.47" r="479.47"/></g></g></g></g></g></svg>