<?xml version="1.0" encoding="UTF-8"?><svg xmlns="http://www.w3.org/2000/svg" xmlns:xlink="http://www.w3.org/1999/xlink" viewBox="0 0 958.95 958.95"><defs><style>.cls-1{fill:#fff;}.cls-2{isolation:isolate;}.cls-3{fill:url(#radial-gradient);mix-blend-mode:multiply;opacity:.3;}.cls-4{clip-path:url(#clippath);}.cls-5{fill:none;}.cls-6{fill:#cd2e3a;}.cls-7{fill:#0047a0;}</style><clipPath id="clippath"><circle class="cls-5" cx="479.47" cy="479.47" r="479.47"/></clipPath><radialGradient id="radial-gradient" cx="479.47" cy="479.47" fx="479.47" fy="479.47" r="479.47" gradientUnits="userSpaceOnUse"><stop offset="0" stop-color="#fff"/><stop offset=".36" stop-color="#fdfdfd"/><stop offset=".48" stop-color="#f6f6f6"/><stop offset=".58" stop-color="#eaeaea"/><stop offset=".65" stop-color="#d9d9d9"/><stop offset=".71" stop-color="#c3c3c3"/><stop offset=".77" stop-color="#a8a8a8"/><stop offset=".82" stop-color="#878787"/><stop offset=".87" stop-color="#626262"/><stop offset=".91" stop-color="#373737"/><stop offset=".95" stop-color="#090909"/><stop offset=".96" stop-color="#000"/></radialGradient></defs><g class="cls-2"><g id="Layer_2"><g id="Layer_1-2"><g id="South_Korea"><g class="cls-4"><g><rect class="cls-1" x="-240.02" width="1438.99" height="958.95"/><path class="cls-7" d="m687.26,602.69l-.04.04c-42.07,70.84-119.37,118.28-207.75,118.28-133.38,0-241.53-108.11-241.53-241.53,0-44.93,12.25-86.97,33.67-123.01-52.06,128.94,95.97,250.96,207.82,123.04l.04-.04c111.89-127.98,260.03-5.79,207.79,123.22Z"/><path class="cls-6" d="m687.26,602.69c52.24-129.01-95.9-251.2-207.79-123.22l-.04.04c-111.85,127.91-259.89,5.89-207.82-123.04,0-.07.04-.11.11-.18,42.04-70.84,119.37-118.35,207.75-118.35,133.42,0,241.53,108.15,241.53,241.53,0,45-12.32,87.15-33.74,123.22Z"/><path d="m271.72,356.29c-.07.07-.11.11-.11.18,0-.07.04-.14.07-.21l.04.04Z"/><rect x="-6.82" y="214.55" width="239.71" height="42.36" transform="translate(-145.6 197.61) rotate(-56)"/><rect x="-55.6" y="181.65" width="239.71" height="42.36" transform="translate(-139.82 142.67) rotate(-56)"/><rect x="43.15" y="248.25" width="239.71" height="42.36" transform="translate(-151.51 253.89) rotate(-56)"/><rect x="56.68" y="615.77" width="42.36" height="108.57" transform="translate(-356.9 154.28) rotate(-33.5)"/><rect x="128.45" y="723.08" width="42.36" height="110.8" transform="translate(-404.82 211.9) rotate(-33.5)"/><rect x="43.81" y="637.36" width="42.36" height="239.71" transform="translate(-407.14 161.65) rotate(-33.5)"/><rect x="143.14" y="571.61" width="42.36" height="239.71" transform="translate(-354.35 205.55) rotate(-33.5)"/><rect x="803.36" y="788.6" width="110.28" height="42.36" transform="translate(-292.9 1068.67) rotate(-56)"/><rect x="875.88" y="681.21" width="110.1" height="42.36" transform="translate(-171.95 1081.38) rotate(-56)"/><rect x="755.02" y="756.24" width="110.28" height="42.36" transform="translate(-287.39 1014.34) rotate(-56)"/><rect x="827.54" y="648.86" width="110.1" height="42.36" transform="translate(-166.44 1027.05) rotate(-56)"/><rect x="706.68" y="723.89" width="110.28" height="42.36" transform="translate(-281.88 960) rotate(-56)"/><rect x="779.19" y="616.51" width="110.1" height="42.36" transform="translate(-160.93 972.71) rotate(-56)"/><rect x="823.72" y="114.35" width="42.35" height="239.71" transform="translate(11.08 505.23) rotate(-33.5)"/><rect x="909.16" y="202.76" width="42.35" height="107.88" transform="translate(12.86 556.14) rotate(-33.5)"/><rect x="837.26" y="92.57" width="42.35" height="111.01" transform="translate(60.87 498.4) rotate(-33.5)"/><rect x="809.83" y="268.5" width="42.35" height="107.89" transform="translate(-39.93 512.22) rotate(-33.5)"/><rect x="737.94" y="158.31" width="42.35" height="111.01" transform="translate(8.09 454.5) rotate(-33.5)"/></g><circle class="cls-3" cx="479.47" cy="479.47" r="479.47"/></g></g></g></g></g></svg>