<?xml version="1.0" encoding="UTF-8"?><svg xmlns="http://www.w3.org/2000/svg" xmlns:xlink="http://www.w3.org/1999/xlink" viewBox="0 0 958.95 958.95"><defs><style>.cls-1{fill:#ffec2d;}.cls-2{isolation:isolate;}.cls-3{fill:url(#radial-gradient);mix-blend-mode:multiply;opacity:.3;}.cls-4{clip-path:url(#clippath);}.cls-5{fill:#00abc2;}.cls-6{fill:none;}</style><clipPath id="clippath"><circle class="cls-6" cx="479.47" cy="479.47" r="479.47"/></clipPath><radialGradient id="radial-gradient" cx="479.47" cy="479.47" fx="479.47" fy="479.47" r="479.47" gradientUnits="userSpaceOnUse"><stop offset="0" stop-color="#fff"/><stop offset=".36" stop-color="#fdfdfd"/><stop offset=".48" stop-color="#f6f6f6"/><stop offset=".58" stop-color="#eaeaea"/><stop offset=".65" stop-color="#d9d9d9"/><stop offset=".71" stop-color="#c3c3c3"/><stop offset=".77" stop-color="#a8a8a8"/><stop offset=".82" stop-color="#878787"/><stop offset=".87" stop-color="#626262"/><stop offset=".91" stop-color="#373737"/><stop offset=".95" stop-color="#090909"/><stop offset=".96" stop-color="#000"/></radialGradient></defs><g class="cls-2"><g id="Layer_2"><g id="Layer_1-2"><g id="Kazakhstan"><g class="cls-4"><rect class="cls-5" x="-556.9" width="1917.9" height="958.95"/><path class="cls-1" d="m479.47,714.4c-172.55,0-312.93-140.38-312.93-312.93h76.47c0,130.38,106.08,236.46,236.46,236.46s236.47-106.08,236.47-236.46h76.47c0,172.55-140.38,312.93-312.94,312.93Z"/><g><path class="cls-1" d="m489.71,239.75c-5.62-25.16-10.23-38.15-10.23-38.15,0,0-4.62,13-10.23,38.15-5.24,23.45,25.71,23.45,20.47,0Z"/><path class="cls-1" d="m461.47,240.43c-9.9-23.8-16.7-35.8-16.7-35.8,0,0-2.29,13.6-3.45,39.35-1.09,24,29.39,18.63,20.16-3.55Z"/><path class="cls-1" d="m433.78,246c-13.88-21.72-22.67-32.35-22.67-32.35,0,0,.11,13.79,3.43,39.35,3.1,23.83,32.18,13.24,19.23-7Z"/><path class="cls-1" d="m407.48,256.3c-17.44-18.98-27.94-27.92-27.94-27.92,0,0,2.5,13.56,10.21,38.16,7.19,22.93,33.99,7.46,17.73-10.23Z"/><path class="cls-1" d="m383.36,271.01c-20.47-15.66-32.36-22.65-32.36-22.65,0,0,4.82,12.92,16.68,35.8,11.06,21.33,34.77,1.44,15.68-13.16Z"/><path class="cls-1" d="m362.17,289.68c-22.88-11.87-35.81-16.68-35.81-16.68,0,0,6.99,11.89,22.65,32.36,14.6,19.09,34.49-4.62,13.16-15.68Z"/><path class="cls-1" d="m344.54,311.75c-24.6-7.71-38.16-10.21-38.16-10.21,0,0,8.95,10.5,27.92,27.94,17.69,16.26,33.16-10.54,10.23-17.73Z"/><path class="cls-1" d="m331.01,336.54c-25.56-3.32-39.35-3.43-39.35-3.43,0,0,10.63,8.78,32.35,22.67,20.25,12.94,30.83-16.14,7-19.23Z"/><path class="cls-1" d="m321.99,363.31c-25.75,1.17-39.35,3.45-39.35,3.45,0,0,12,6.8,35.8,16.7,22.19,9.23,27.56-21.24,3.55-20.16Z"/><path class="cls-1" d="m317.75,391.23c-25.16,5.62-38.15,10.23-38.15,10.23,0,0,13,4.62,38.15,10.23,23.45,5.24,23.45-25.71,0-20.47Z"/><path class="cls-1" d="m318.43,419.47c-23.8,9.9-35.8,16.7-35.8,16.7,0,0,13.6,2.29,39.35,3.45,24,1.09,18.63-29.39-3.55-20.16Z"/><path class="cls-1" d="m324.01,447.16c-21.72,13.88-32.35,22.67-32.35,22.67,0,0,13.79-.11,39.35-3.43,23.83-3.1,13.24-32.18-7-19.23Z"/><path class="cls-1" d="m334.3,473.47c-18.98,17.44-27.92,27.94-27.92,27.94,0,0,13.56-2.5,38.16-10.21,22.93-7.19,7.46-33.99-10.23-17.73Z"/><path class="cls-1" d="m349.01,497.58c-15.66,20.47-22.65,32.36-22.65,32.36,0,0,12.92-4.82,35.8-16.68,21.33-11.06,1.44-34.77-13.16-15.68Z"/><path class="cls-1" d="m367.68,518.77c-11.87,22.88-16.68,35.81-16.68,35.81,0,0,11.89-6.99,32.36-22.65,19.09-14.6-4.62-34.49-15.68-13.16Z"/><path class="cls-1" d="m389.75,536.4c-7.71,24.6-10.21,38.16-10.21,38.16,0,0,10.5-8.95,27.94-27.92,16.26-17.69-10.54-33.16-17.73-10.23Z"/><path class="cls-1" d="m414.55,549.94c-3.32,25.56-3.43,39.35-3.43,39.35,0,0,8.78-10.63,22.67-32.35,12.94-20.25-16.14-30.83-19.23-7Z"/><path class="cls-1" d="m441.31,558.95c1.17,25.75,3.45,39.35,3.45,39.35,0,0,6.8-12,16.7-35.8,9.23-22.19-21.24-27.56-20.16-3.55Z"/><path class="cls-1" d="m469.24,563.19c5.62,25.16,10.23,38.15,10.23,38.15,0,0,4.62-13,10.23-38.15,5.24-23.45-25.71-23.45-20.47,0Z"/><path class="cls-1" d="m497.48,562.51c9.9,23.8,16.7,35.8,16.7,35.8,0,0,2.29-13.6,3.45-39.35,1.09-24-29.39-18.63-20.16,3.55Z"/><path class="cls-1" d="m525.17,556.94c13.88,21.72,22.67,32.35,22.67,32.35,0,0-.11-13.79-3.43-39.35-3.1-23.83-32.18-13.24-19.23,7Z"/><path class="cls-1" d="m551.47,546.64c17.44,18.98,27.94,27.92,27.94,27.92,0,0-2.5-13.56-10.21-38.16-7.19-22.93-33.99-7.46-17.73,10.23Z"/><path class="cls-1" d="m575.59,531.93c20.47,15.66,32.36,22.65,32.36,22.65,0,0-4.82-12.92-16.68-35.8-11.06-21.33-34.77-1.44-15.68,13.16Z"/><path class="cls-1" d="m596.78,513.26c22.88,11.87,35.81,16.68,35.81,16.68,0,0-6.99-11.89-22.65-32.36-14.6-19.09-34.49,4.62-13.16,15.68Z"/><path class="cls-1" d="m614.41,491.19c24.6,7.71,38.16,10.21,38.16,10.21,0,0-8.95-10.5-27.92-27.94-17.69-16.26-33.16,10.54-10.23,17.73Z"/><path class="cls-1" d="m627.94,466.4c25.56,3.32,39.35,3.43,39.35,3.43,0,0-10.63-8.78-32.35-22.67-20.25-12.94-30.83,16.14-7,19.23Z"/><path class="cls-1" d="m636.96,439.63c25.75-1.17,39.35-3.45,39.35-3.45,0,0-12-6.8-35.8-16.7-22.19-9.23-27.56,21.24-3.55,20.16Z"/><path class="cls-1" d="m641.19,411.7c25.16-5.62,38.15-10.23,38.15-10.23,0,0-13-4.62-38.15-10.23-23.45-5.24-23.45,25.71,0,20.47Z"/><path class="cls-1" d="m640.51,383.46c23.8-9.9,35.8-16.7,35.8-16.7,0,0-13.6-2.29-39.35-3.45-24-1.09-18.63,29.39,3.55,20.16Z"/><path class="cls-1" d="m634.94,355.77c21.72-13.88,32.35-22.67,32.35-22.67,0,0-13.79.11-39.35,3.43-23.83,3.1-13.24,32.18,7,19.23Z"/><path class="cls-1" d="m624.64,329.47c18.98-17.44,27.92-27.94,27.92-27.94,0,0-13.56,2.5-38.16,10.21-22.93,7.19-7.46,33.99,10.23,17.73Z"/><path class="cls-1" d="m609.94,305.36c15.66-20.47,22.65-32.36,22.65-32.36,0,0-12.92,4.82-35.8,16.68-21.33,11.06-1.44,34.77,13.16,15.68Z"/><path class="cls-1" d="m591.27,284.16c11.87-22.88,16.68-35.81,16.68-35.81,0,0-11.89,6.99-32.36,22.65-19.09,14.6,4.62,34.49,15.68,13.16Z"/><path class="cls-1" d="m569.2,266.53c7.71-24.6,10.21-38.16,10.21-38.16,0,0-10.5,8.95-27.94,27.92-16.26,17.69,10.54,33.16,17.73,10.23Z"/><path class="cls-1" d="m544.4,253c3.32-25.56,3.43-39.35,3.43-39.35,0,0-8.78,10.63-22.67,32.35-12.94,20.25,16.14,30.83,19.23,7Z"/><path class="cls-1" d="m517.63,243.98c-1.17-25.75-3.45-39.35-3.45-39.35,0,0-6.8,12-16.7,35.8-9.23,22.19,21.24,27.56,20.16,3.55Z"/></g><rect class="cls-1" x="-30.26" y="51.41" width="113.03" height="856.24"/><circle class="cls-1" cx="479.47" cy="401.47" r="128.48"/><circle class="cls-3" cx="479.47" cy="479.47" r="479.47"/></g></g></g></g></g></svg>