<?xml version="1.0" encoding="UTF-8"?><svg xmlns="http://www.w3.org/2000/svg" xmlns:xlink="http://www.w3.org/1999/xlink" viewBox="0 0 958.95 958.95"><defs><style>.cls-1{fill:#fff;}.cls-2{isolation:isolate;}.cls-3{fill:url(#radial-gradient);mix-blend-mode:multiply;opacity:.3;}.cls-4{clip-path:url(#clippath);}.cls-5{fill:none;}.cls-6{fill:#ed1c24;}.cls-7{fill:#00a651;}</style><clipPath id="clippath"><circle class="cls-5" cx="479.47" cy="479.47" r="479.47"/></clipPath><radialGradient id="radial-gradient" cx="479.47" cy="479.47" fx="479.47" fy="479.47" r="479.47" gradientUnits="userSpaceOnUse"><stop offset="0" stop-color="#fff"/><stop offset=".36" stop-color="#fdfdfd"/><stop offset=".48" stop-color="#f6f6f6"/><stop offset=".58" stop-color="#eaeaea"/><stop offset=".65" stop-color="#d9d9d9"/><stop offset=".71" stop-color="#c3c3c3"/><stop offset=".77" stop-color="#a8a8a8"/><stop offset=".82" stop-color="#878787"/><stop offset=".87" stop-color="#626262"/><stop offset=".91" stop-color="#373737"/><stop offset=".95" stop-color="#090909"/><stop offset=".96" stop-color="#000"/></radialGradient></defs><g class="cls-2"><g id="Layer_2"><g id="Layer_1-2"><g id="Lebanon"><g class="cls-4"><g><rect class="cls-6" x="-240.02" width="1438.99" height="239.62"/><rect class="cls-6" x="-240.02" y="719.33" width="1438.99" height="239.62"/><rect class="cls-1" x="-240.02" y="239.62" width="1438.99" height="479.71"/><polygon class="cls-7" points="708.92 632.98 558.11 505.87 672.29 520.95 569.96 424 632.44 424 507.48 357.21 587.19 367.98 479.47 261.34 371.75 367.98 451.47 357.21 326.51 424 388.99 424 286.65 520.95 400.84 505.87 250.03 632.98 422.38 597.43 349.13 697.61 479.47 697.61 609.82 697.61 536.57 597.43 708.92 632.98"/></g><circle class="cls-3" cx="479.47" cy="479.47" r="479.47"/></g></g></g></g></g></svg>