<?xml version="1.0" encoding="UTF-8"?><svg xmlns="http://www.w3.org/2000/svg" xmlns:xlink="http://www.w3.org/1999/xlink" viewBox="0 0 958.95 958.95"><defs><style>.cls-1{fill:#f68101;}.cls-2{fill:#ffca1b;}.cls-3{isolation:isolate;}.cls-4{fill:url(#radial-gradient);mix-blend-mode:multiply;opacity:.3;}.cls-5{clip-path:url(#clippath);}.cls-6{fill:#01695f;}.cls-7{fill:none;}.cls-8{fill:#a32238;}.cls-9{fill:#010101;}</style><clipPath id="clippath"><circle class="cls-7" cx="479.47" cy="479.47" r="479.47"/></clipPath><radialGradient id="radial-gradient" cx="479.47" cy="479.47" fx="479.47" fy="479.47" r="479.47" gradientUnits="userSpaceOnUse"><stop offset="0" stop-color="#fff"/><stop offset=".36" stop-color="#fdfdfd"/><stop offset=".48" stop-color="#f6f6f6"/><stop offset=".58" stop-color="#eaeaea"/><stop offset=".65" stop-color="#d9d9d9"/><stop offset=".71" stop-color="#c3c3c3"/><stop offset=".77" stop-color="#a8a8a8"/><stop offset=".82" stop-color="#878787"/><stop offset=".87" stop-color="#626262"/><stop offset=".91" stop-color="#373737"/><stop offset=".95" stop-color="#090909"/><stop offset=".96" stop-color="#000"/></radialGradient></defs><g class="cls-3"><g id="Layer_2"><g id="Layer_1-2"><g id="Sri_Lanka"><g class="cls-5"><g><rect class="cls-1" x="-267.48" y="0" width="639.3" height="958.95"/><rect class="cls-6" x="-267.48" y="0" width="343.62" height="958.95"/><path class="cls-2" d="m-267.48,0h1917.9v958.95H-267.48V0Zm79.91,79.91v799.12H339.85V79.91H-187.57Z"/><rect class="cls-8" x="419.76" y="79.91" width="1158.73" height="799.12"/><g id="A"><g id="B"><path class="cls-2" d="m529.94,744.88s-10.86,22.12-22.86,31.13c-17.78,13.35-54.23,12.39-69.7,27.97-18.54,18.37,1.06,42.65,1.27,44.75.42,4.27-.68,8.55-1.02,12.82,0,0,12.5.15,17.76.97,7.91,1.23,11,7.68,25.74,6.72,37.05-2.41,35.55-35.8,37.65-64.33,1.86-10.87,6.17-25.03,8.61-35.9,2.1-9.31,2.55-24.14,2.55-24.14h0Z"/><path class="cls-9" d="m478.23,871.05c-7.86,0-12.19-2.21-16.06-4.18-2.37-1.21-4.41-2.25-7.03-2.66-5.09-.79-17.4-.95-17.52-.95-.47,0-.92-.21-1.23-.55-.32-.35-.48-.81-.44-1.28.11-1.46.32-2.92.52-4.38.39-2.82.76-5.49.5-8.14-.05-.06-.6-1-1.09-1.84-4.02-6.9-16.25-27.88.31-44.29,8.59-8.65,23.29-12.36,37.5-15.95,11.98-3.03,24.37-6.16,32.38-12.17,11.53-8.66,22.25-30.31,22.35-30.52.35-.72,1.17-1.09,1.94-.9.77.19,1.31.9,1.29,1.7-.02.61-.48,15.1-2.59,24.46-.95,4.23-2.16,8.85-3.44,13.75-1.98,7.6-4.03,15.46-5.16,22.06-.17,2.34-.32,4.87-.48,7.42-1.62,26.26-3.45,56.03-38.74,58.32-1.06.07-2.06.1-3.01.1Zm-38.72-11.16c3.71.08,12,.32,16.15.96,3.16.49,5.53,1.7,8.05,2.99,4.14,2.11,8.43,4.29,17.31,3.72,32.3-2.1,33.96-29.06,35.57-55.13.16-2.56.32-5.11.5-7.62,1.17-6.9,3.24-14.83,5.24-22.5,1.27-4.87,2.47-9.47,3.41-13.64,1.09-4.85,1.73-11.3,2.09-16.26-4.23,7.38-11.66,18.93-19.73,24.98-8.55,6.43-21.28,9.64-33.58,12.75-13.76,3.48-28,7.07-35.93,15.06-14.7,14.57-3.86,33.17.22,40.17,1.03,1.78,1.46,2.52,1.53,3.22.3,3.05-.11,6.05-.52,8.94-.11.79-.22,1.58-.32,2.38Z"/></g></g><g id="A-2"><g id="B-2"><path class="cls-2" d="m529.94,214.06s-10.86-22.12-22.86-31.13c-17.78-13.35-54.23-12.39-69.7-27.97-18.54-18.37,1.06-42.65,1.27-44.75.42-4.27-.68-8.55-1.02-12.82,0,0,12.5-.15,17.76-.97,7.91-1.23,11-7.68,25.74-6.72,37.05,2.41,35.55,35.8,37.65,64.33,1.86,10.87,6.17,25.03,8.61,35.9,2.1,9.31,2.55,24.14,2.55,24.14h0Z"/><path class="cls-9" d="m529.94,215.76c-.64,0-1.24-.36-1.53-.95-.11-.22-10.82-21.86-22.35-30.52-8.01-6.01-20.39-9.14-32.37-12.17-14.21-3.59-28.91-7.3-37.51-15.96-16.55-16.4-4.32-37.38-.3-44.28.48-.83,1.03-1.78,1.13-2.05.22-2.44-.15-5.11-.54-7.93-.2-1.46-.4-2.92-.52-4.38-.04-.47.12-.93.44-1.28.32-.35.76-.55,1.24-.55.12,0,12.43-.16,17.52-.95,2.62-.41,4.66-1.45,7.03-2.66,4.34-2.21,9.24-4.7,19.07-4.08,35.29,2.29,37.12,32.06,38.74,58.32.16,2.55.31,5.09.5,7.58,1.11,6.43,3.16,14.29,5.14,21.9,1.28,4.9,2.48,9.52,3.44,13.75,2.11,9.36,2.57,23.85,2.59,24.46.03.8-.51,1.51-1.29,1.7-.14.03-.27.05-.41.05Zm-90.43-116.71c.1.79.2,1.58.32,2.38.4,2.9.82,5.89.52,8.94-.07.7-.5,1.44-1.53,3.22-4.08,7-14.92,25.61-.23,40.16,7.94,8,22.17,11.6,35.94,15.07,12.31,3.11,25.03,6.32,33.58,12.75,8.07,6.06,15.5,17.61,19.73,24.98-.36-4.96-1-11.41-2.09-16.26-.94-4.17-2.14-8.77-3.41-13.64-2-7.67-4.07-15.6-5.22-22.34-.2-2.67-.36-5.22-.52-7.79-1.6-26.08-3.26-53.04-35.57-55.13-8.91-.59-13.17,1.6-17.31,3.72-2.52,1.28-4.89,2.49-8.05,2.99-4.14.65-12.43.89-16.15.96Z"/></g></g><g id="C"><path class="cls-2" d="m1252.09,764.46c.41,19.26,15.72,15.87,31.83,8.05,3.07-2.41,3.63-2.46,7.96-.66,2.64,1.1,8.65,1.95,13.88,1.95,13.69,0,19.52-3.83,19.52-12.81,0-4.09-3.52-8.43-12.07-14.89-3.05-2.31-5.24-5.34-6.11-8.47-2.03-7.32-1.69-21.97.61-26.42,2.01-3.89,7.96-7.04,11.77-7.78,14.31-2.77,15.69-19.25,16.11-31.66-20.65,13.35-35.39-16.65-33.77-34.24,1.27-13.72,2.79-26.39,13.59-61.42,13.73-44.53,17.54-58.45,16.73-78.59-1.41-35.01-12.73-51.68-33.13-72.61,17.32-12.36,29.69-29.43,31.12-46.69,2.05-24.74-9.35-43.04-33.95-55.23-21.41-10.61-49.47-13.35-88.18-8.61-22.96,3.84-83.64,9.03-72.31-33.3-16.37,2.47-13.96,21.56-7.12,33.8-21.25-11.57-20.06-30.04-18.3-37.69,2.22-6.95,11.49-14.64,17.85-14.09-28.37-16.55-40.52,4.87-42.54,19.39-25.96-16.52-15.83-48.06,4.04-55.38,9.84-5.35,21.08-4.37,29.5-.34,6.09,2.92,12.4,16.03,7.6,21.33,23.47-2.29,8.26-34.14-8.59-37.56,26.95-9.61,39.05,20.23,39.4,38.17.45,5.84-4.41,20.59-9.8,20.79,36.8,15.49,31.71-40.65,23.07-56.21,5.33,2.92,5.71,1.55,8.81,3.21,25.54,11.87,24.67,41.6,14.13,51.71,3.6.47,16.81-1.92,20.76-5.08,9.91-7.91,11.61-19.94,4.59-32.52l-3.42-6.13,7.89,8.32c6.04,6.37,10.76,12.26,17.11,26.49,3.68,8.24,12.32,33.62,40.6,37.2-10.92-11.6-8.87-26.16-16.29-38.55,7.55,6.08,4.4,3.53,17.49,16.8,21.22,21.53,30.67,28.33,43.25,31.14,17.14,3.83,32.58-5.03,32.58-18.7,0-10.78-8.19-17.69-17.81-15.03-14.19,5.47-9.53,15.31-7.75,19.33-4.34,0-18.65-6.47-27.66-13.18-4.3-3.2-17.79-15.18-29.98-26.63-34.95-32.8-46.45-41.19-69.06-50.38-35.07-14.26-70.46-16.01-104.26-5.16-27.13,8.71-42.59,23.62-49.57,47.82-1.65,5.71-2.07,10.68-1.6,18.91.73,12.75,4.12,20.93,12.03,28.96l4.71,4.79-4.12,6.69c-4.87,7.92-6.48,19.94-3.76,28.19,1.64,4.97,6.8,14.28,10.46,14.85,6.94-28.31,27.78-22.9,44.62-15.74,22.94,8.72,27.72,9.57,49.79,8.88,17.4-.55,21.9-1.21,40.89-5.98,26.38-6.64,36.97-7.59,54.52-4.91,22.42,3.42,41.31,14.69,48.59,28.98,2.66,5.22,3.24,8.27,3.25,16.88.02,9.13-.51,11.52-3.92,18.19-2.44,4.77-6.04,9.29-9.5,11.94-9.39,7.16-15.49,8.23-47.08,8.25-29.36.02-45.68,1.25-103.04,7.78-46.99,5.35-79.01,3.95-101.5-1.92,4.54,4.87,7.14,3.64,14.65,7.55.59,4.56-18.76,12.92-27.74,11.74-6.83-1.36-12.85-3.97-19.03-6.92,1.22,7.03,3.59,9.96,7.41,15.87-7.45-3.01-14.85-8.2-21.42-11.99-.1,5.24,11.91,19.25,21.1,23.84-20.07-.68-30.83-7.86-41.2-16.43-2.1,10.2-8.97,19.15-16.45,27.18.64-13.52-18.61-27.66-19.43-38.81,9.53,10.41,16.58,23.79,21.39,31.26,8.39-8.9,11.85-16.62,11.84-28.33,6.11,8.45,17.85,19.66,29.12,19.2-6.97-9.71-11.23-16.82-12.17-27.18,5.38,5.15,11.52,8.97,17.65,13.23-.47-5.44-1.65-10.33-1.42-16.32,8.87,14.57,34.96,16.54,47.05,4.7-1.02,0-5.62-1.96-10.21-4.35-6.37-3.32-12.28-4.68-19.7-5.31-19.28-2.08-29.45-5.53-39.11-21.74-3.83,6.17-6.43,10.29-10.67,15.83l-1.88-4.34-1.88-4.34-3.24,13.38-3.24,13.38-5.38-2.95c-5.8-3.18-17.63-12.01-19.67-18.96-1.69,2.97-2.25,5.03-3.32,15.48-18.95-.99-35.91-28.15-37.2-31.84-.78,3.17-2.45,9.93-4.63,14.9-3.39,7.71-3.78,9.7-2.7,13.61l1.26,4.57-5.04-3.99c-2.77-2.2-6.3-6.03-7.83-8.51-1.54-2.49-3.28-4.22-3.88-3.85-.6.37-2.09,3.31-3.32,6.52s-2.76,4.52-3.27,5.85c-2.72-1.94-7-7.05-7.45-11.19l-.41-3.79,1.82,3.91c1,2.15,3.55,6.04,4.61,6.92,2.67-1.24,5.52-19.39,8.16-22.52,0,5.1,3.16,13.23,7.28,18.64l3.32,4.35,5.06-11.81c2.81-6.56,5.08-14,5.1-16.73l.04-4.91c11.78,19.32,22.36,31.49,37.31,37.01l3.31-22.28c5.72,11.54,15.14,22.78,24.55,27.62,2.76,0,5.64-19.36,3.83-25.8-1.16-4.14-7.68-12.55-9.37-12.55-1.76,5.92-2.31,12.81-7.44,17.5-9.73-11.58-20.48-26.3-25.65-32.06l-3.85,25.87c-8.14-10.56-26.86-21.3-29.61-38.26,6.27,8.8,13.3,20.5,27.39,30.85.16-3.45,5.03-27.59,5.12-31.59,2.05,9.12,18.82,34.92,26.67,40.84,2.98-3.24,5.09-11.29,4.44-18.41l-.83-9.16c5.83,8.27,15.37,26.52,21.02,31.01,6.09.3,9.15-18.8,9.21-23.19l1.7,5.44c3.45,11.02,11.95,20.86,21.45,24.84,5.22,2.18,19.27,3.15,22.33,3.58-4.45-7.62-5.38-12.61-5.41-21.22-.03-8.18-1.72-11.7-3.23-12.64-8.24-5.1-14.28-11.7-20.09-19.71-3.68-5.07-7.6-12.59-7.92-13.48-4.65,7.35-3.84,16.14-6.61,19-1.43-.35-15.52-19.09-17.24-21.08-1.16,3.25-7.65,20.75-8.18,21.46-.22.29-1.64-1.06-3.16-3-10.71-9.66-15.84-12.03-22.68-23.59-1.66,2.4-1.43,3.65-2.59,7.54-.97-1.56-19.65-16.17-21.83-17.01l-2.53,19.9c-17.03-11.16-31.05-28.13-29.83-34.49,3.37,6.66,27.41,27.62,27.41,27.62l1.32-25.07c2.43,4.71,12.44,15,19.11,19.64l5.38,3.75c-.12-12.55,1.2-25.93-2.42-37.98,3.78,5.55,19.48,20.45,20.72,19.21,1.49-7.52.57-13.63,1.09-21.53,6.81,6.64,4.09,6.46,10.66,11.55l3.02-15.86,2.4,3.95c9.19,8.85,15.01,16.92,24.85,23.66,8.14-11.78,7.78-23.84,8.17-37.58,4.09,15.2-.24,28.88,8.19,40.47,2.8,3.85,16.87,16.07,25.38,19.38-2.96-3.89-4.8-13.16-3.92-23.65,1.09-12.39-1.7-19.95-2.26-25.36-3.34-1.99-11.13-8.42-15.17-16.75,11.13,14.41,31.5,19.05,42.32,14.15l-4.84-3.69c-3.42-2.61-6.29-6.82-9.77-14.37-3.59-7.76-6.61-12.15-11.08-16.09-3.39-2.98-6.68-5.42-7.32-5.42s1.71-2.44,5.13-5.54c11.85-10.71,18.66-28.7,17.63-36.29-1.45,2.12-21.91,18.69-41.06,14.97,2.29-8.97-12.38-25.85-20.18-28.65,3.74,11.99-6.34,26.51-17.4,26.84-6.41,0-11.87-3.31-17.89-10.86-6.8-8.52-15-13.84-25.65-13.69-3.28.05-6.44-.1-9.72-.06,3.21,1.82,6.4,5.78,6.4,9.67,0,4.35-6.63,11.91-10.81,11.02-15.03-3.2-32.17-17.8-46.81-11.48,4.91,1,7.72,20.41-7.58,24.8-16.98,4.87-49.07,13.33-62.51,12.46,13.63-11.74,5.87-25.32-6.27-20.63-35.55,13.73-8.76,64.95,15.49,83.48-.64-4.59-1.51-7.32-1.79-10.69,7.52,5.75,19.01,11.93,25.6,15.53.03-4.2,1.68-9.16,2.68-11.35,4.99,9.16,12.75,17.43,18.57,23.55,9.42,11.52,20.07,21.84,21.02,35.49-15.08-14.04-31.52-16.7-48.82-9.02,9.52-8.5,10.42-13.89-4.32-9.54-11.37,3.45-22.69,3-31-1.24l-5.5-2.81c.58,15.29-5.38,34.85-18.22,39.6,12.17,13.24,24.26,2.68,29.85-10.23-1.48,8.08-1.2,14.66-.45,21.5,6.94-5.39,13.18-10.87,17.1-18.6.59,7.87.54,18.91,6.69,23,0-5.88,1.67-18.42,11.43-21.58-2.49,8.72-3.46,17.81,5.12,17.98.17-6.28,1.31-8.53,3.76-11.21,10.09-5.4,18.43.41,18.13,9.51-.38,10.12-7.74,21.02-20.84,30.9-30.39,22.91-49.22,47.91-58.56,77.76-4.78,15.28-5.95,42.94-2.48,58.67,6.56,29.7,22.85,54.08,46.77,69.95,8.32,5.52,29.18,15.06,30.32,14.72-4.65-15.25-5.8-40.89-4.2-61.3,2.03,9.58,4.88,54.75,8.48,63.7,7.95,31.79,10.41,54.17,7.93,72.17-1.82,13.17-4.42,20.15-8.83,23.61-4.4,3.46-8.97,3.25-17.89-.83-9.11-4.17-17.26-3.81-22.38.98-5.18,4.86-15.02,17.59-15.36,19.58,2.91,3.38,12.29,1.3,12.29-2.65,0-1.3,2.73-6.31,4.1-7.55-3.27,12.3,1.34,14.64,10.03,14.21,15.4-.48,8.91-9.27,16.01-12.03-.82,1.69-1.47,4.67-1.47,6.56,0,5.14,4.92,7.13,17.47,7.09,9.01-.03,11.59-.58,17.65-3.74l7.1-3.7,7.23,2.29c8.17,2.58,20.63,2.85,25.1.54,10.96-5.66,11.57-12.24,2.14-23.09-6.8-7.83-4.52-11.36,10.2-15.76,18.05-6.81,25.21-14.97,24.88-32.34-11.64,13.53-29.5-2.02-24.54-16.58,2.11-10.36,10.95-31.39,25.7-50.6,11.52-15,29.01-68.7,31.42-77.33-1.07,24.59-11.62,51.91-28.31,76.99-5.72,8.61-7.43,12.23-7.43,12.23,0,0,33.26-8.06,49.59-14.21,7.24-2.72,24.59-9.65,38.57-15.4,32.23-13.25,57-21.73,71.44-24.46,20.6-3.89,46.81-.82,62.93,7.38,4.56,2.32,7.95,5.02,39.15,31.27,8.14,6.85,20.67,16.61,27.83,21.69,14.27,10.11,26.89,22.11,29.88,28.4,2.4,5.06,2.6,10.29,1.44,37.81-1.06,25.25-1.93,29.24-7.4,33.84-3.68,3.09-4.83,3.65-18.22,3.3-23.49-.61-23.66,1.69-28.82,21.91-.92,3.63-3.29,9.12-5.16,11.35,9.95,3.01,19.9-2.27,21.61-10.01.96-4.32,3.72-8.19,6.42-8.91-3.38,7.11-5.63,11.87-4.63,20.85,25.7.08,17.21-3.79,22.25-17.16h0Zm-392.72-294.59c-4.8-9.77-4.04-16.85-3.5-27.1-8.11,2.24-9.76,3.68-17.24,9.72-3.92-19.77,10.27-26.75,16.71-32.01-.12,4.14-15.09,12.7-14.16,26.28,7.21-4.78,17.94-11.25,20.02-11.62-1.89,2.15-4.72,23.64-.16,30.54,1.21-1.85,8.1-9.63,13.44-13.59,5.34-3.95,11.41-10.09,12.24-11.64,1.4,3.89,6.11,12.22,8.56,16,5.62-12.09,11.92-16.98,19.27-26.73,1.04,5.49,4.25,26.4,6.8,27.39,6.81-7.05,13.05-24.27,15.69-25.86-3.57,13.77-10.15,22.54-16.19,34.33-3.93-9.26-7.62-19.09-8.24-29-13.14,14.26-13.54,12.75-13.01,30.96-5.86-6.62-10.01-14.16-12.43-22.43-9.37,9.32-24.12,17.1-25.17,29.05l-2.59-4.29Zm55.72-184.93c-7.03-1.15-16.79-5.35-31.46-13.48-8.41-4.66-13.97-5.68-18.31-3.35-7.13,3.81-3.99,13.65,3.91,11.04,7.71-2.54,1.29-5.87.09-6.98,2.99-.09,7.66,2.15,7.66,4.67,0,3.03-6.08,5.94-10.42,4.98-12.31-2.7-7.94-17.6,5.16-17.6,2.06,0,7.75,2.14,12.65,4.76,20.56,10.98,23.52,12.13,34.53,13.36,5.98.67,10.82.86,11.25.84-1.18-2.18-8.32-10.23-15.97-14.12,4.23-1.56,18.62.96,34.22,6.35,12.4,4.28,14.8,4.7,23.65,4.14,5.42-.34,12.41-1.67,15.54-2.96l5.69-2.34c-7.05-6.7-16.18-9.23-23.74-13.94,1.99-.53,11.14-2.84,18.08-2.6,11.36.39,33.82-13.6,37.48-14.64-2.05,2.17-9.22,8.71-14.34,11.28-7.81,3.92-11.19,4.7-20.99,5.53l-11.53.94c6.98,4.29,13.32,8.49,20.17,13.02-32.47,15.82-39.6,7.19-73.85-2.22l6.29,7.38,6.29,7.38c-7.35-.13-14.86-.27-22.04-1.45Zm256.29,483.84c12.63,6.11,32.19,6.49,36.77-3.79,2.04-5.25.55-15.96-3.27-23.51-1.84-3.63-3.95-9.3-4.69-12.61-1.57-7.01-.5-9.83,5.69-14.91,13.13-10.78,16.47-14.96,18.04-22.56.85-4.1.08-10.24.08-10.24-5.59,5.37-18.04,6.81-23.84,2.04-11.67-10.84,16.51-26.37,19.86-45.08-11.82-11.49-26.42-23.64-39.79-36.12-15.54-14.51-41.03-20.61-62.79-17.9-3.52.44-7.72.62-7.72.62l.54,4.48c0,12.8,8.17,31.57,22.78,52.31,12.91,18.32,19.92,29.97,21.77,36.14,1.05,3.52,1.13,13.29.29,34.77-1.15,29.05-1.27,29.98-4.34,33.24-3.92,4.17-10.82,4.46-21.14.91-21.16-7.28-31.11-4.52-37.97,21.13,3.09,3.73,17.19,4.71,17.32-1.73.06-5.16,1.01-6.88,5.13-9.78-3.5,7.36-.76,14.58,4.3,17.31,10.36,5.57,18.31-10.27,22.15-12.36-.24,21.01,10.61,16.32,30.85,7.63h0Zm-484.6-85.11c7.71,7.71,15.77,11.77,25.62,1.28-14.73-5.06-21.84-13.07-25.73-29.01,6.73,9.38,20.66,13.59,28.66,10.36,8-3.23,8.75-7.92,8.65-14.41-.1-6.49-6.31-9.78-10.36-9.78s-10.24,3.89-7.85,13.14c-30.41-7-20.91-33.24-7.13-44.47-7.63-6.25-12.96-11.64-15.13-26.34,3.04,1.33,7.26,6.71,16,6.9,7.09-.68,10.61-6.11,10.64-11.2,0-4.84-2.55-8.37-6.75-8.43-4.2-.05-6.8,2.88-6.24,10.5-7.96-3.31-12.14-9.45-14.13-17.97-5.86,4.57-12.19,4.46-12.63,5.56-.75,4.15-9.92,12.56-13.7,11.58,1.33-2.15.28-7.98-2.12-8.83-6.73-2.37-10.74,4.23-8.21,11.88,4.76,12.26,20.45,3.91,23.57.11-1.18,12.92-6.36,20.65-11.77,26.53,14.61,18.39,14.8,40.69-9.07,45.09.81-8.53-.4-11.77-7.3-13.08-6.23-.18-9.86,3.75-9.86,10.67,0,8.33,6.86,14.48,16.16,14.48,10.6-1.29,13.61-4.87,20.7-11.44-4.94,12.25-13.66,24.51-26.51,28.13,10.28,10.87,19.02,6.07,27.53-1.4-2.84,11.56-.62,15.54,7.94,25.23,7.79-10.88,9.31-12.96,8.99-25.08h0Zm98.58-35.31c7.65-7.25,13.74-15.46,19.83-23.96-26.07-22.48-38.87-52.17-39.73-77.24-15.69-17.99-48.27-51.51-51.3-54.6-2.31-2.35-4.62-2.25-5.96-1.58-1.46.73-1.87,2.73-1.46,4.6.83,3.75,5.64,9.32,7.08,11.89-19.44,6.77-15.71,21.5-5.77,31.74-3.27.11-6.49-.24-7.69-.16-2.82,10.52-11.6,17.05-14.39,19.77.2,3.83-.73,5.46,1.54,9.04,18.2-13,19.56-10.3,20.98-10.13,3.92.49,11.76,14.91,16.1,21.8-10.62,7.51-14.65,15.63-8.73,29.53,13.82-17.03,16.85-7.27,26.26,7.03,11.68,19.55,28.69,40.4,32.96,40.4.99,0,5.62-3.66,10.3-8.14h0Zm-107.71-83.77c2.53-1.31,3.84-2.98,3.83-4.89-.04-5.72-1.89-6.82-10.68-6.39-7.03.75-12.29-1.71-18.58-3.68-1.73,0-.43,5.2,2.12,8.44,6.28,7.98,15.5,10.55,23.31,6.51h0Zm20.07-30.36c-2.78,3.16-13.36,10.02-17.33,17.28l3.58,5.74c7.78-6.7,14.16-11.87,13.75-23.02h0Zm-18.12,13.51c4.2-6.08,3.29-10.35-10.7-10.29-8.96.04-14.29-3.35-21.89-6.06-.39,0-.7,2.11-.7,4.69,0,8.56,9.3,14.46,23.19,14.72,5.69.11,7.98,0,10.1-3.07Zm16.59-22.03c-5.24,2.05-9.48,6.69-14.97,9.88.47,1.86,2.06,4.54,3.35,6.95,8.24-4,12.71-12.75,11.62-16.83h0Zm-11.43-5.03c-15.38,0-24.08-.63-36.48-8.98-16.27,14.33,16.24,23.38,23.03,23.2,10.9.44,14.46-6.3,13.45-14.23h0Zm12.03-6.31c-4.43,1.93-5.28,1.79-10.07,5.61.28,4.4.34,5.76,1.15,8.94,4.4-2.09,8.55-8.36,8.93-14.55Zm-10.07,2.31c3.57-1.8,2.56-11.4-.11-11.54-8.71-.46-15.06-3.33-20.47-7.82-11.4-9.56-24.61.58-15.21,11.75,6.4,7.61,27.07,12,35.78,7.61Zm19.99-12.6c-5.98-.33-11.73.01-16.61,1.16,2.09,2.29,3.14,5.41,2.35,7.64,6.17-1.56,9.5-4.13,14.26-8.8h0Zm-2.39-10.84c-11.62,2.57-21.78,5.2-32.32,4.32-.33.69,2.43,2.69,5.99,3.72,4.84,1.4,22.75.8,27.87.24-.44-2.77-.96-5.53-1.55-8.28Zm-2.41-2.83c7.81-2.38,18.05-8.98,21.72-13.98,3.56-6.42,3.54-17.25-1.33-20.94-13.39-10.12-23.04,6.55-14.6,15.43l2.73,2.91c-19.06,12.87-48.84,7.98-62.67-.58,5.43-3.06,8.06-9.68,6.29-15.51-2.49-4.59-5.15-5.44-11.68-5.39-7.59.06-10.37,5.75-10.37,13.7,0,10.99,11.01,21.07,24.07,25.24,13.07,4.17,39.31,1.11,45.85-.88,6.54-2,0,0,0,0h0Zm4.36-15.76c-5.76-6.37-6.72-12.19-3.7-18.73,4.31-93.39-12.61-199.52,18.62-290.58-66.92,10.48-66.54,211.82-66.15,288.65,4.59,12.67-.89,17.97-4.2,19.25,17.39,7.25,36.29,8.34,55.42,1.41h0Zm333.63-92.97c-6.27-6.3-14.3-28.5-16.88-36.55-12.82-9.79-13.98-12.19-21.56-27.57-.43,1.34-5.45,9.48-6.87,10.76-7.08-3.54-16.33-15.43-26.2-22.85-.1.55-.29,2.66-.79,5.33-.5,2.68-2.95,7.81-3.67,9.15-2.82-3.54-5.8-6.03-8-9.65-.35,6.53-1.53,10.29-1.97,18.35-6.12-3.72-7.82-6.07-15.72-10.67-.74,10.72,1.2,24.14,8.65,30.99,5.26,4.64,14.52,11.69,15.36,11.69.39,0,2.02-2.49,3.63-5.54,2.44-4.61,2.9-7.4,2.74-16.62l-.19-11.08,1.63,6.12c1.76,6.62,5.57,12.75,13.53,21.78l5.06,5.75,3.03-10.98,3.03-10.98,5.61,11.19c6.18,12.34,24.68,31.75,39.57,31.37h0Zm-230.89-51.69c-11.8-2.28-26.24-.22-37.2-7.6.16,8.47,7.69,16.46,13.6,20.24,6.31,3.92,20.94,4.24,31.5.68,8.87-2.99,12.98-2.11,14,3,.34,1.67-.83,3.82-.83,3.82,12.91-3.09,23,.36,33.64,5.98-9.58-26.36-45.1-25.32-54.72-26.12h0Z"/><path class="cls-9" d="m1230.62,786.04c-.26,0-.53,0-.81,0h-3.95s-.44-3.94-.44-3.94c-.04-.41-.09-.82-.12-1.22-.5.36-1.03.7-1.58,1.02-5.47,3.2-12.25,3.94-18.59,2.02l-6.42-1.95,4.31-5.14c.39-.47.86-1.24,1.35-2.17-.76.39-1.57.73-2.41,1.04-8.33,3.05-20.65,2.17-30.64-2.08-13.51,5.79-22.58,9.39-29.15,5.02-2.64-1.76-4.16-4.48-5.02-7.47-4.81,5.16-12.06,10.99-20.88,6.24-2.23-1.2-4.18-3.06-5.62-5.38-1,.9-2.24,1.62-3.72,2.14-5.64,1.97-15.04.81-18.72-3.63l-1.46-1.76.59-2.21c3.72-13.92,8.5-21.79,15.47-25.5,8.43-4.49,19-1.85,28.23,1.32,8.38,2.88,13.91,2.96,16.47.24,1.86-1.97,2.06-2.94,3.14-30.38.54-13.57,1.01-29.62-.1-33.32-1.67-5.58-8.78-17.31-21.15-34.86-15.11-21.46-23.48-40.82-23.59-54.59l-.29-2.37c-14.19,2.7-38.56,11.06-70.49,24.19-14.05,5.78-31.41,12.71-38.69,15.45-16.4,6.17-48.74,14.04-50.11,14.37l-2.93.71c-8.79,14.48-13.77,27.79-15.16,34.57l-.15.54c-2.03,5.97,1.33,12.15,5.76,14.68,2.29,1.31,6.8,2.74,11.23-2.42l7.57-8.8.22,11.6c.41,21.5-10.79,30.17-27.74,36.57-9.54,2.86-10.85,4.54-11.03,4.87h0s.2,1.08,2.6,3.84c3.84,4.42,8.8,11.1,7.48,17.99-.9,4.71-4.48,8.61-10.93,11.94-6.01,3.1-19.98,2.42-28.46-.25l-5.48-1.73-5.47,2.85c-6.7,3.49-10.01,4.21-19.68,4.24-10.44.07-15.89-1.26-19.12-4.48-.26-.26-.5-.52-.72-.8-2.3,2.03-5.91,3.47-12.06,3.66-4.36.22-9.91-.05-13.22-4.15-.13-.16-.26-.33-.38-.5-.79.53-1.68.98-2.68,1.35-4.27,1.58-10.36,1.56-13.64-2.25l-1.36-1.57.35-2.05c.71-4.2,12.92-18.54,16.69-22.08,6.49-6.08,16.42-6.73,27.25-1.78,8.83,4.04,11.08,3.12,13.31,1.38,3.35-2.63,5.56-9.03,7.17-20.73,2.38-17.3.03-38.8-7.63-69.64-6.74-.44-30.78-13.92-32.96-15.36-2.46-1.64-4.85-3.35-7.15-5.15-5.92,8.23-11.93,16.2-19.53,23.4-9.78,9.36-12.19,9.36-13.35,9.36-9.31,0-31.71-34.12-36.76-42.56-.97-1.47-1.97-3.05-2.9-4.54-2.6-4.13-5.83-9.26-7.55-9.36-.33-.01-2.72.19-8.56,7.39l-4.64,5.72-2.88-6.77c-3.07-7.23-3.87-13.5-2.3-19.13-2.38,2.17-5.57,3.7-9.53,4.07l-.26.02h-.26c-3.58-.08-6.53-.87-8.98-1.92,2.43,6.07,6.09,9.46,11.01,13.49l4.19,3.44-4.2,3.43c-6.8,5.55-12.98,15.97-11.02,24.36,1.09,4.66,4.62,8.2,10.53,10.58.39-2.86,1.53-4.98,2.67-6.45,2.4-3.1,6.23-5.02,10-5.02,6.11,0,14.64,4.91,14.78,14.15.11,7.03-.68,14.25-11.42,18.58-5.83,2.34-13.29,1.68-20.08-1.17,3.76,5.36,9.07,8.82,16.93,11.53l6.49,2.23-4.7,5c-4.74,5.04-9.72,7.64-14.8,7.72-3.72.05-7.03-1.18-9.96-2.98-.92,6.65-3.62,10.43-9.39,18.48l-3.24,4.52-3.77-4.05c-6.21-7.02-9.71-11.81-10.15-18.62-6.66,3.6-15.63,5.02-25.22-5.1l-5.04-5.32,7.05-1.99c5.67-1.6,10.27-5.13,13.91-9.26-1.85.52-3.94.93-6.36,1.23l-.53.03c-11.74,0-20.6-8.13-20.6-18.91,0-4.81,1.46-8.78,4.23-11.47,2.56-2.49,6.15-3.75,10.19-3.63l.7.08c8.23,1.56,10.62,6.27,11.04,11.59,4.62-1.81,7.69-4.69,9.16-8.63,2.77-7.38-.35-18.06-8.14-27.86l-2.36-2.97,2.56-2.79c3.24-3.53,6.61-7.91,8.72-14.39-3.34,1.28-7.08,1.98-10.64,1.42-4.97-.8-8.79-4.02-10.75-9.06-2.04-6.16-1.04-12.03,2.53-15.52,2.92-2.86,7.02-3.64,11.28-2.14,2.17.77,3.84,2.64,4.82,5.42.11.29.2.59.29.91,1.61-1.33,3.24-3,4.16-4.33-5.37-1.21-10.5-4.47-14.5-9.55-2.39-3.05-4.98-8.94-3.31-12.6-3.63-3.2-5.67-7.35-5.67-12.14,0-2.02,0-5.55,1.64-7.57-1.51-1.49-2.69-3.14-3.4-4.96-1.39-3.56-1.64-9.05,5.07-15.04-3.37-6.19-1.85-12.05,1.62-15.53.16-.16.33-.32.5-.47-11.94-6.03-19.77-16.19-19.77-26.45,0-16.26,10.33-18.1,14.77-18.14,3.23-.04,5.95.19,8.28.99-.39-120.41,6.88-278.09,69.91-287.95l7.26-1.14-2.38,6.95c-21.46,62.57-19.89,132.91-18.39,200.93.6,27.25,1.23,55.37.26,82.11,4.36-2.62,10.7-3.16,17.7,2.15,6.98,5.27,7.09,18.4,2.54,26.62l-.3.47c-2.23,3.04-6.32,6.45-10.97,9.39.37.3.74.64,1.1,1.01.31.31,29.46,30.21,47.03,49.77-.17-14.02,1.47-29.32,4.67-39.53,9.68-30.93,28.78-56.34,60.12-79.97,11.98-9.03,18.75-18.81,19.08-27.54.09-2.7-.94-4.93-2.81-6.1-2.08-1.29-5.01-1.16-8.13.33-1.28,1.5-1.96,2.96-2.09,7.76l-.11,4.4-4.4-.08c-4.87-.09-7.51-2.32-8.88-4.17-1.01-1.36-1.69-2.95-2.04-4.83-1.05,3.79-1.1,7.42-1.1,8.16v8.27l-6.89-4.58c-4.72-3.14-6.66-8.62-7.58-14.37-3.51,3.8-7.4,6.96-11.03,9.78l-6.25,4.85-.87-7.86c-.23-2.11-.44-4.29-.55-6.6-3.12,2.76-6.56,4.54-10.07,5.13-4.31.74-10.87.05-17.63-7.3l-4.47-4.86,6.19-2.29c10.28-3.81,15.87-20.93,15.33-35.28l-.13-3.41c-4.15-4.76-7.2-10.63-7.31-16.66l-.16-8.51,7.07,4.75c6.49,4.37,14.59,4.94,23.16,5.55,4.04.29,8.22.58,12.16,1.33.88.07,1.97.12,3.22.19,7.08.36,19.12.98,30.39,5.23-3.62-3.82-8.09-8.68-12.15-14.18,0,.16,0,.32,0,.48l-.05,7.42-7.59-4.15c-4.54-2.48-10.59-5.78-16.29-9.33.03.19.06.39.08.58l1.48,10.67-8.56-6.54c-19.02-14.53-37.25-45.04-34.06-67.32,1.6-11.23,8.4-19.46,19.67-23.81,7.13-2.76,14.23-.79,17.64,4.9,2.28,3.81,2.67,9.3-.19,14.96,11.68-1.42,29.96-5.56,51.7-11.8,4.09-1.17,6.72-3.79,7.79-7.78,1.07-3.96.13-7.44-.55-8.56l-13.15-2.69,12.95-5.59c11.39-4.91,23.54.59,34.25,5.44,5.41,2.45,10.51,4.76,15.24,5.77,1.52-.25,5.42-4.8,5.45-6.69,0-1.87-1.9-4.54-4.15-5.81l-14.2-8.05,16.32-.24c1.69-.03,3.35,0,5.01.03,1.56.03,3.12.05,4.71.03,11.36-.06,20.8,4.86,29.17,15.36,6.46,8.1,10.92,9.19,14.42,9.19,3.49-.11,7.34-2.54,10.18-6.51,3.23-4.53,4.38-10.12,2.99-14.57l-2.65-8.5,8.38,3.02c7.88,2.83,21.79,17.23,23.23,28.91,15.73.72,31.56-12.09,32.99-13.74l6.5-9.52,1.41,11.6c1.31,9.65-6.56,28.88-19.05,40.17-.54.49-1.02.93-1.45,1.33,1.02.81,2.2,1.8,3.59,3.01,4.93,4.34,8.34,9.26,12.18,17.55,2.53,5.47,4.66,9,6.84,11.27-4.38-6.73-6.53-14.28-7.09-24.21-.5-8.67-.02-14.2,1.76-20.39,7.37-25.54,24.05-41.68,52.48-50.81,34.98-11.23,71.07-9.45,107.28,5.27,23.2,9.43,35.04,18.05,70.42,51.25,11.92,11.19,25.48,23.24,29.6,26.31,5.63,4.19,13.08,8.03,18.48,10.26-.21-2.2,0-4.59.99-7.01,1.79-4.32,5.72-7.68,11.7-9.98l.41-.14c5.75-1.59,11.39-.59,15.86,2.81,4.8,3.66,7.56,9.67,7.56,16.49s-3.06,12.94-8.61,17.39c-7.45,5.97-18.44,8.08-29.37,5.64-13.63-3.05-23.4-10-45.44-32.35-1.48-1.5-2.75-2.8-3.86-3.93,1.83,7.12,3.67,13.83,9.04,19.54l8.45,8.98-12.24-1.55c-28.69-3.63-38.86-27.54-43.2-37.74-.32-.76-.62-1.45-.89-2.05-3.28-7.36-6.1-12.36-8.81-16.26.21,8.4-3.36,16.01-10.56,21.75-5.09,4.06-19.66,6.59-24.09,6.01l-9.17-1.19,6.68-6.4c4.42-4.23,6.53-13.03,5.15-21.38-.97-5.85-4.52-16.48-17.37-22.77,4.28,15.3,5.06,38.48-4.75,49.42-4.44,4.96-12.86,9.55-27.7,3.31l-13.44-5.66-4.84-.42c-3.67-.33-11.34,5.42-13.19,10.86-1.06,4.75-1.96,14.37,4.77,23.2-.81-5.28-.51-10.67,1.73-15.24,1.82-3.71,5.73-8.39,14-9.64l6.69-1.01-1.75,6.54c-2.36,8.83-1.4,15.45,2.95,20.25,10.65,11.72,40.22,11.58,64.34,7.54,39.84-4.87,68.64-2,90.88,9.01,26.34,13.05,38.59,33.09,36.4,59.57-1.37,16.56-11.81,33.42-28.87,46.87,19.41,20.61,29.56,38.34,30.9,71.88.86,21.25-3.38,36.16-16.92,80.07-10.36,33.62-12.09,46.29-13.41,60.52-.95,10.25,4.54,25.68,13.3,30.99,4.27,2.59,8.74,2.3,13.64-.87l7.13-4.61-.29,8.48c-.36,10.47-1.1,32.26-19.7,35.86-2.95.57-7.47,3.13-8.68,5.46-1.52,2.94-2.2,16.27-.27,23.2.6,2.18,2.25,4.41,4.51,6.12,8.3,6.28,13.83,11.81,13.83,18.43,0,17.24-18.03,17.24-23.96,17.24-4.87,0-11.84-.72-15.59-2.29-.44-.18-1.65-.69-2.27-.87-.26.17-.68.48-1.23.92l-.81.5c-9.1,4.42-22.18,9.69-30.73,4.45-.77-.47-1.48-1.01-2.13-1.61-2.46,5.4-8.08,6.71-22.36,6.71Zm11.95-32.03l-4.11,8.65c-2.67,5.63-4.37,9.2-4.44,14.51,11-.11,11.13-1,11.65-4.73.33-2.37.78-5.61,2.27-9.55l4.62-12.25c-2.82.36-6.58.36-12.27.21q-19.55-.5-24.15,17.55l-.26,1.03c-.49,1.93-1.34,4.33-2.35,6.63,2.04-.18,3.99-.79,5.72-1.8,2.36-1.38,3.98-3.4,4.45-5.55,1.1-4.95,4.58-10.89,9.61-12.23l9.25-2.47Zm13.64-4.2l.31,14.55c.1,4.74,1.18,7.77,3.22,9.02,2.46,1.49,8.22,1.88,21.83-4.67,4.36-3.31,6.79-3.14,12.01-.96,1.85.77,7.18,1.6,12.18,1.6,15.09,0,15.09-4.84,15.09-8.38,0-2.36-3.47-6.19-10.31-11.36-3.84-2.9-6.57-6.74-7.71-10.82-2.15-7.73-2.08-23.8.94-29.64,3.03-5.85,10.73-9.29,14.87-10.09,8.06-1.56,11.02-9.08,12.09-20.29-5.42,1.45-10.84.69-15.77-2.29-12-7.27-18.76-26.23-17.54-39.38,1.37-14.77,3.15-27.88,13.77-62.31,14.08-45.68,17.3-58.27,16.54-77.1-1.32-32.82-11.33-48.62-31.88-69.69l-3.61-3.7,4.21-3c17.09-12.19,28.03-28.43,29.28-43.45,1.89-22.81-8.42-39.46-31.5-50.9-20.61-10.21-47.84-12.81-85.67-8.19-16.25,2.72-56.2,7.22-72.17-10.35-4.76-5.24-6.91-11.83-6.45-19.67-.35.45-.66.94-.93,1.48-2.51,5.11-1.09,14.36,3.45,22.48l7.47,13.38-13.46-7.33c-24.97-13.6-22.01-36.02-20.5-42.57l.1-.36c1.5-4.69,5.58-9.75,10.44-13.16-5.46-1.66-10.24-1.52-14.28.44-7.49,3.64-11.27,13.04-12.24,19.98l-.95,6.83-5.82-3.7c-12.51-7.97-18.86-20.24-17.42-33.68,1.42-13.2,10.24-25,22-29.48,10.06-5.35,22.46-5.46,33.25-.29,5.15,2.47,10.07,9.62,11.44,16.64.11.6.2,1.18.27,1.75,1.21-1.29,1.5-2.85,1.57-4.17.41-7.89-7.96-20.26-17.07-22.11l-15.61-3.17,15-5.35c9.93-3.54,19.25-2.6,26.96,2.72,12.25,8.46,18.1,26.42,18.36,39.54.36,4.59-1.87,13.2-5.37,18.93,6.77,1,9.47-2.01,10.52-3.18,8.95-9.98,5.37-38.93-.18-48.92l-7.45-13.41,13.46,7.37c2.42,1.33,3.38,1.51,4.4,1.7,1.09.2,2.44.46,4.38,1.49,12.46,5.78,20.65,16.33,22.85,29.58,1.22,7.31.4,14.65-2.07,20.64,3.82-.8,7.77-1.97,9.25-3.15,8.25-6.58,9.49-16.14,3.48-26.9l-16.49-29.55c-32.33-11.88-64.46-12.85-95.59-2.86-25.71,8.25-40.1,22.08-46.67,44.83-1.5,5.19-1.87,9.75-1.43,17.43.67,11.74,3.59,18.82,10.76,26.1l7.15,7.26-5.94,9.65c-4.16,6.76-5.62,17.51-3.33,24.48.89,2.69,2.55,5.86,4.13,8.27,2.93-7.36,7.27-12.5,12.94-15.34,11.13-5.57,24.84-1.06,35.53,3.49,22.32,8.48,26.35,9.21,47.92,8.53,17.11-.54,21.22-1.14,39.95-5.85,27.02-6.8,38.06-7.78,56.27-4.99,24.02,3.67,43.89,15.68,51.87,31.35,2.99,5.88,3.73,9.59,3.74,18.89.02,9.83-.64,12.85-4.4,20.21-2.74,5.37-6.76,10.39-10.76,13.45-10.88,8.29-19.14,9.14-49.77,9.16-29.12.02-45.42,1.25-102.55,7.75-33.52,3.82-60.89,4.39-82.91,1.71-.07,1.84-.97,3.63-2.69,5.34-5.39,5.38-21.24,11.47-30.07,10.31-3.87-.77-7.43-1.87-10.72-3.11.61,1.01,1.3,2.06,2.09,3.26l8.88,13.75-12.96-5.24c-1.67-.68-3.31-1.44-4.94-2.26,2.66,2.48,5.54,4.68,8.26,6.04l18.18,9.08-20.31-.68c-18.32-.62-29.56-6.51-38.7-13.34-3.56,9.03-10,16.71-15.56,22.68l-8.24,8.83.57-12.06c.27-5.8-4.75-12.63-9.62-19.23-3.89-5.29-7.62-10.35-9.13-15.46-2.73,9.37-6.72,16.43-10.93,23.87-1.65,2.92-3.34,5.9-4.99,9.11l-4.32,8.42-3.7-8.71c-2.84-6.67-5.57-13.71-7.19-20.96-5.98,6.6-5.93,8.18-5.55,21.05l.36,12.23-8.1-9.16c-4.7-5.3-8.4-11.21-11.07-17.61-1.3,1.1-2.62,2.18-3.92,3.24-7.35,6.01-14.29,11.69-14.89,18.45l-1.19,13.52-9.79-16.24c-4.18-8.51-4.57-15.2-4.28-22.76-2.74,1.26-4.82,2.94-9.17,6.46l-6.23,5.03-1.43-7.19c-3.95-19.92,8.24-28.88,15.52-34.24,1-.73,1.93-1.41,2.72-2.06l7.52-6.15-.29,9.71c-.09,3.08-2.28,5.45-5.32,8.74-2.1,2.27-4.45,4.82-6.21,7.69,4.82-2.93,10.1-5.9,12.2-6.27l12.38-2.17-8.01,9.15c-.98,2.45-2.17,11.79-1.68,18.74,2.69-2.82,5.88-5.85,8.72-7.95,5-3.7,10.25-9.09,11.03-10.28l4.71-8.81,3.3,9.52c.68,1.89,2.39,5.24,4.19,8.48,2.73-4.45,5.59-7.92,8.56-11.41l-15.1-11.95c-2.69-2.13-5.92-5.53-7.93-8.29-.07.18-.15.37-.22.57-.94,2.47-2.05,4.07-2.78,5.13-.21.3-.4.55-.53.8l-2.06,5.31-4.61-3.37c-3.48-2.48-8.66-8.56-9.29-14.33l-3.3-30.46,12.88,27.69c.34-1.21.66-2.4.93-3.38,1.8-6.67,2.91-10.55,4.69-12.67l7.82-9.27v12.13c0,3.25,2.01,9.34,5.12,14.17l2.03-4.74c2.92-6.81,4.73-13.34,4.74-15.02l.1-11.39c-3.36-4.62-5.94-9.78-6.91-15.73l-3.04-18.74,11.02,15.45c.87,1.21,1.74,2.48,2.66,3.8,4.67,6.73,9.85,14.19,17.91,21.34.32-1.86.71-4,1.14-6.43,1.15-6.4,2.72-15.16,2.76-16.97l.36-16.77c-1.86-1.45-3.74-2.89-5.42-4.15l-2.51,19.72-5.93-3.88c-16.48-10.8-33.58-29.48-31.76-39.03l2.44-12.75,5.87,11.58c1.61,3.17,10.9,12.29,19.52,20.16l1.7-32.22,7.5,14.58c1.13,2.19,4.78,6.45,8.92,10.52l.09-4.03,1.19,5.26c2.01,1.91,4.08,3.71,5.99,5.18,0-.04,0-.08,0-.13.15-9.54.31-19.4-2.3-28.09l-4.6-15.34c-2.8-.21-5.59-.52-8.38-.97h0c-7.53-1.24-17.68-5.55-32.89-13.98-.1-.05-.19-.11-.29-.16.16.62.22,1.19.22,1.67,0,2.31-1.19,4.53-3.36,6.28-3.32,2.67-8.44,3.91-12.44,3.04-8.18-1.8-11.26-7.93-10.69-13.2.69-6.37,6.81-13.15,16.79-13.15,3.84,0,11.32,3.45,14.74,5.28,20.03,10.7,22.55,11.7,32.81,12.85-2.14-1.84-4.6-3.64-7.1-4.91l-9.03-4.59,9.5-3.51c.09-.03.18-.07.28-.1l-1.09-1.28,3.08.85c7.48-1.01,22.4,2.52,34.93,6.84,12.24,4.22,13.97,4.41,21.93,3.91,4.42-.28,9.53-1.22,12.52-2.09-2.53-1.52-5.24-2.83-8.03-4.18-3.01-1.45-6.13-2.95-9.07-4.78l-8.68-5.4,9.87-2.64c1.89-.5,11.67-3.02,19.38-2.75,2.03.09,4.66-.48,7.54-1.4l-3.18-6.56,4.68,6.06c6.83-2.39,14.72-6.49,19.74-9.1,3.99-2.07,5.97-3.09,7.33-3.47l12-3.4c2.1-3.6,3.7-7.22,4.8-10.47-8.86,5.62-22.43,11.56-35.8,8.97l-4.61-.9,1.16-4.55c1.08-4.22-4.92-13.26-10.9-18.88-.58,4.28-2.28,8.56-5,12.37-4.44,6.22-10.89,10.04-17.26,10.23h0c-7.98,0-14.56-3.86-21.47-12.52-6.54-8.2-13.46-12.03-21.73-12.03-.16,0-.32,0-.46,0,.7,1.62,1.12,3.37,1.12,5.18,0,4.6-3.71,9.69-7.15,12.48-3.06,2.48-6.18,3.48-9,2.88-5.66-1.2-11.45-3.83-17.05-6.36-7.61-3.45-14.86-6.71-21.38-6.58.48,1.59.78,3.38.86,5.33.3,7.6-3.37,17.62-14.67,20.86-17.8,5.11-49.82,13.54-64.01,12.62l-10.82-.71,8.22-7.07c5.54-4.77,6.51-9.54,5.06-11.96-1.15-1.92-3.77-2.37-6.85-1.18-8.32,3.22-12.93,8.71-14.09,16.8-2.14,15.01,8.58,36.4,21.65,50.66l-.7-8.4,7.94,6.08c5.41,4.14,13.24,8.66,19.43,12.1.65-2.61,1.5-4.88,2.11-6.23l3.67-8.09,4.25,7.8c4.86,8.91,12.7,17.16,17.89,22.62l.22.25c1.42,1.73,2.86,3.43,4.29,5.12,8.26,9.75,16.81,19.84,17.72,32.86l.79,11.21-8.22-7.65c-13.59-12.64-27.97-15.33-44.01-8.22l-10.64,4.72.72,9.6c.07.9.13,1.85.19,2.81.11,1.87.25,3.94.47,6,2.26-5.15,6-9.43,11.68-11.27l7.9-2.56-2.28,7.99c-.75,2.65-1.18,4.72-1.39,6.34.7-1.31,1.6-2.53,2.74-3.77l.51-.56.67-.36c6.23-3.34,12.67-3.48,17.66-.38,4.57,2.84,7.19,8.05,7,13.94-.44,11.46-8.46,23.64-22.6,34.3-29.79,22.46-47.9,46.46-57,75.54-4.55,14.54-5.68,41.42-2.38,56.39,6.33,28.68,21.85,51.92,44.89,67.22,4.99,3.31,14.77,8.15,21.55,11.21-3.22-16.47-3.58-38.19-2.3-54.44l2.39-30.57,6.36,29.99c.83,3.93,1.74,12.93,2.79,23.34,1.47,14.65,3.49,34.71,5.47,39.62l.19.58c8.12,32.44,10.59,55.22,8.02,73.85-2.01,14.54-5.04,22.22-10.48,26.49-2.81,2.21-5.64,3.23-8.65,3.37l-3.29,6.78c-.51,1.05-1.03,3.38-1.03,4.63,0,.57.11.69.19.77.58.58,2.97,1.89,12.83,1.89,8.72-.03,10.48-.56,15.62-3.24l8.73-4.55,8.99,2.84c7.85,2.48,18.93,2.27,21.73.83,3.82-1.97,5.94-3.9,6.29-5.74.3-1.58-.4-4.68-5.46-10.51-2.77-3.19-5.78-7.46-4.41-12.16,1.53-5.25,7.52-8.01,16.69-10.75,12.99-4.91,19.1-10.15,21.03-19.29-4.46,1.49-9.32,1.02-13.87-1.59-7.37-4.22-13.28-14.36-9.84-24.95,2.47-11.77,11.77-33,26.47-52.15,10.33-13.45,27.45-64.27,30.66-75.82l10.38-37.24-1.68,38.63c-1.07,24.56-11.38,52.7-29.04,79.25-.69,1.03-1.32,2-1.89,2.88,11.08-2.86,28.51-7.58,38.81-11.46,7.22-2.72,24.47-9.6,38.45-15.35,32.54-13.38,57.54-21.93,72.29-24.72,21.68-4.1,48.71-.9,65.77,7.78,4.99,2.54,8.36,5.22,39.99,31.83,8.08,6.79,20.43,16.42,27.54,21.46,12.35,8.76,27.43,21.92,31.32,30.11,2.83,5.97,3.08,11.19,1.87,39.9-1.07,25.56-1.89,31.09-8.97,37.04-1.86,1.56-3.38,2.61-5.27,3.3Zm-84.84,18.97l1.75,4.07-1.75-4.07Zm-26.34-15.14l-.08,7.55c-.09,7.74,1.46,9.62,2.14,10.07,2.85,1.9,12.81-2.38,22.45-6.52l1.86-.8,1.91.84c8.17,3.94,18.95,5.03,25.63,2.59,2.62-.96,4.36-2.37,5.17-4.19,1.35-3.49.33-12.78-3.18-19.7-2.02-3.98-4.24-9.97-5.06-13.65-1.94-8.66-.26-13.17,7.21-19.31,12.94-10.64,15.26-14,16.51-20.03.11-.54.19-1.15.24-1.79-7.34,2.74-16.75,2.62-22.47-2.09-9.86-9.15-1.32-19.67,6.21-28.94,4.55-5.61,9.65-11.88,11.56-18.12-6.07-5.8-12.74-11.72-19.78-17.95-6-5.32-12.2-10.82-18.14-16.36-13.64-12.73-37.44-19.45-59.22-16.74-1.09.14-2.24.25-3.31.34v.36c.01,11.8,8.02,29.93,21.99,49.76,13.28,18.86,20.39,30.75,22.39,37.42,1.06,3.54,1.48,10.6.47,36.22-1.17,29.75-1.25,31.54-5.54,36.1-5.24,5.56-13.67,6.24-25.81,2.07-2.07-.71-3.98-1.31-5.74-1.78l-4.34,9.11c-2.42,5.09-.68,9.85,2.4,11.5,3.73,2.01,7.21-.89,12.71-7.34,1.93-2.27,3.46-4.06,5.22-5.01l6.63-3.61Zm-48.24,12.07c2.47.7,6.42.76,7.72-.11.12-6.29,1.79-9.37,7.01-13.04l6.51-4.58c-4.84-.86-8.35-.55-11.07.9-4.11,2.19-7.38,7.57-10.18,16.83Zm-277.94-22.22l-2.58,9.7c-1.62,6.11-.58,7.63-.46,7.78.21.26,1.27,1.1,5.98.87,6.49-.2,6.95-1.47,7.86-4.01.85-2.36,2.13-5.93,6.77-7.73l3.38-1.31c-2.59-.63-5.34-1.7-8.32-3.06-4.79-2.19-9.15-2.94-12.63-2.24Zm-15.11,14.36c-.33.43-.64.85-.94,1.26.28-.1.53-.22.73-.34.05-.29.12-.6.21-.91Zm423.55-86.01l1.09,8.78c.09.7.82,7-.14,11.68-1.92,9.29-6.57,14.41-19.57,25.09-5.11,4.2-5.32,5.44-4.18,10.52.67,2.97,2.64,8.27,4.32,11.58,1.64,3.23,3.01,7.28,3.83,11.42,4.23-7.89,10.85-9.36,27.86-8.91,12.17.31,12.6-.03,15.26-2.26,3.94-3.31,4.8-6.1,5.82-30.63,1.1-26.23.95-31.58-1.02-35.73-2.3-4.84-13.56-16.14-28.44-26.68-2.29-1.62-5.1-3.7-8.14-6.01-2.11,8.47-8.18,15.95-13.57,22.59-8.14,10.02-10.33,13.84-7.25,16.69,3.68,3.03,13.58,2.03,17.75-1.99l6.38-6.13Zm-549.79-.96l-3.37,13.69c-1.94,7.9-1.37,11.07,3.32,16.96,4.6-6.68,5.11-8.92,4.88-17.75l-.29-11.1,7.86,7.85c4.3,4.3,7.7,6.31,10.67,6.31h.1c.97-.02,1.98-.26,3.02-.72-11.42-5.75-17.8-14.64-21.34-29.13l-3.33-13.64-6.09,15.09c-3.2,7.94-9.99,20.88-21.95,27.62,4.52,2.01,9.12.1,15.93-5.88l10.59-9.3Zm-36.14-23.38c-1.52,0-2.68.39-3.44,1.13-1.27,1.24-1.54,3.46-1.54,5.11,0,5.75,4.81,9.94,11.47,10.05,8.08-1.02,10.51-3.3,16.29-8.71l14.46-13.42-1.68-6.89,5.27,7.34c-.16-.52-.3-1.03-.42-1.53-2.5-10.72,3.06-22.08,10.22-29.66-6.15-5.63-10.87-12.26-12.87-25.83l-1.17-7.92,7.33,3.22c1.27.56,2.42,1.39,3.65,2.28,1.74,1.26,3.63,2.63,6.11,3.47-6.89-2.98-11.69-7.98-14.56-15.2-1.84.84-3.56,1.38-4.99,1.78l-1.12,12.24c-1.16,12.61-5.86,20.66-10.5,26.34,8.15,11.58,10.88,23.91,7.28,33.52-2.17,5.79-7.62,13.21-21.23,15.72l-5.77,1.06.55-5.84c.68-7.2-.08-7.61-3.34-8.24Zm48.78,5.69l.11.16c5.63,7.85,17.4,11.24,23.4,8.83,5.51-2.22,5.96-4.44,5.87-10.23-.06-3.86-4.21-5.42-5.93-5.42-.85,0-2.15.5-3,1.59-1.31,1.7-1.03,4.21-.57,6.02l1.82,7.06-7.11-1.64c-6.47-1.49-11.19-3.76-14.62-6.37Zm37.6-57.59c.2,0,.41,0,.61.02,6.26.37,9.9,6.16,14.52,13.48.91,1.44,1.87,2.97,2.91,4.55,11.16,18.68,24.41,34.37,29.06,37.89,1.51-1.1,4.17-3.28,7.43-6.4l.02-.02c6.43-6.09,11.76-12.95,16.94-20.09-22.62-20.8-36.73-48.89-38.16-76.14-12.72-14.47-34.9-37.55-44.93-47.91l-.82.81c.96,1.34,1.78,2.5,2.34,3.51l2.57,4.61-4.98,1.74c-6.21,2.17-9.82,5.18-10.71,8.97-1.03,4.35,1.46,10.15,6.66,15.5l6.98,7.19-10.02.33c-1.66.05-3.31,0-4.67-.06-2.96,7.54-8.31,12.82-11.93,16.12,11.24-7.32,14.77-7.24,17.73-6.3,4.68.8,8.8,6.87,16.31,19.36.99,1.65,1.91,3.17,2.7,4.43l2.24,3.56-3.43,2.42c-7.61,5.39-10.5,10.36-9.36,17.27,3.61-3.32,6.79-4.82,9.98-4.82Zm-76.33-11.02c.92,1.25,2.04,1.61,2.99,1.76,4.35.71,10.61-2.87,12.08-4.56-.84.68-1.65,1.26-2.36,1.71-3.28,2.1-6.06,2.81-8.52,2.17l-4.18-1.08Zm51.87-8.45c-.36,0-.8.04-.97.23-.11.11-1.04,1.24-.72,5.51l.32,4.3c2.92-1.38,3.81-4.27,3.81-6.08,0-.9-.17-3.94-2.38-3.97h-.06Zm-51.34.35c-.6,0-.85.25-.96.35-.9.88-1.33,3.25-.43,6.08l2.39-3.87c.06-.36-.15-1.74-.47-2.5-.2-.04-.38-.06-.53-.06Zm51.35-9.22c.06,0,.11,0,.17,0,6.55.08,11.13,5.37,11.13,12.86,0,.87-.09,1.74-.24,2.62,1.25-1.47,2.7-2.9,4.37-4.3-.22-.37-.45-.75-.69-1.14-2.68-4.47-8.21-13.65-10.59-15.26-.25-.05-.5-.12-.77-.21-.21-.1-3.39.24-16.18,9.34.83,1.33,1.8,2.5,2.91,3.52.53-1.75,1.35-3.2,2.47-4.39,1.3-1.39,3.65-3.02,7.43-3.02Zm-44.59-10.88c4.86,5.43,11.37,7.12,16.9,4.26,1.2-.62,1.46-1.09,1.46-1.1-.03-.88-.11-1.38-.17-1.64-.56-.17-2.05-.37-5.89-.18-4.58.49-8.55-.25-12.3-1.34Zm50.32-3.05s.02,0,.03,0c0,0-.02,0-.03,0Zm-58.09-15.66c1.29,5,8.59,8.49,18.64,8.68,5.48.12,5.66-.13,6.37-1.15h0c.8-1.16,1.15-1.91,1.3-2.34-.8-.36-2.96-1.01-8.33-1h-.19c-7.38,0-12.69-2.11-17.8-4.19Zm20.25-7.22c2.69.11,5.91-.19,7.67-2.11.84-.91,1.27-2.09,1.47-3.28-11.68-.15-20.47-1.17-31.33-7.67-.75,1.11-.96,2.08-.64,2.91,2.1,5.34,17.84,10.21,22.82,10.15Zm-14.54-32.53c-1.5,0-2.75.48-3.57,1.3-1.57,1.58-1.11,4.18,1.24,6.97,4.97,5.91,22.85,9.82,30,6.69.29-.75.33-2.35.13-3.48-8.17-.75-14.93-3.54-21.15-8.7-2.34-1.97-4.71-2.78-6.66-2.78Zm28.06,14.78h0s0,0,0,0h0Zm29.41-12.67l1.21.07c-1.5-1.55-2.67-2.75-3.41-3.52.6,1.09,1.42,2.33,2.2,3.45Zm-71.2-43.27c-.18,0-.35,0-.54,0-2.09.02-5.97.05-5.97,9.27,0,8.3,8.83,17.14,20.99,21.01,11.96,3.81,37.16.95,43.2-.9h.05c7.38-2.28,16.25-8.31,19.23-12.15,2.71-5.17,2.19-13.14-.26-15-2.13-1.61-6.12-3.84-8.97-.65-2.04,2.29-2.53,6.57.25,9.5l6.31,6.72-4.31,2.91c-20.81,14.06-52.57,8.75-67.49-.49l-6.45-3.93.13-.05,6.48-3.65c3.47-1.95,5.28-6.18,4.33-9.96-1.07-1.93-1.79-2.64-6.98-2.64Zm16.13,14.76c13.26,4.21,26.67,4.47,40.01.76-3.17-5.6-3.45-11.35-.89-17.41,1.25-28.04.62-56.68-.05-86.99-1.46-65.94-2.97-134.05,16.26-196-56,24.32-55.25,215.54-54.92,281.33,2.86,8.38,1.89,14.35-.41,18.32Zm284.97-47.84l3.68,4.02c7.55,8.25,13.64,18.35,18.08,25.72.22.36.43.71.64,1.06,4.96-6.44,6.82-12.4,6.81-20.85v-6.73s-2.31,9.53-2.31,9.53l-10.45-5.73c-3.88-2.13-10.76-6.89-15.84-12.33-.18,1.44-.38,3.19-.6,5.32Zm-26.99-4.65l1.86,9.85c.17.87.38,2.11.64,3.6.53,3.06,1.77,10.16,3,15.46,1.92-3.21,3.77-6.87,5.39-10.08,3.26-6.47,4.67-9.15,6.81-10.44l.42-.25c-13.17-2.88-24.66-15.37-31.23-24.61-.63,1.92-1.33,3.85-2.1,5.6-3.33,7.6-3.14,8.3-2.49,10.65l4.64,16.79c.2-.24.4-.47.6-.71,2.07-2.42,4.2-4.93,6.42-7.87l6.03-8Zm57.46,2.64l6.76,9.35c4.03,5.58,9.6,11.13,15.32,14.41-3.33-5.77-5.68-11.8-6.37-19.39l-1.06-11.77,8.54,8.17c2.79,2.67,5.82,4.98,9.01,7.22-.23-2.28-.37-4.67-.27-7.29l.18-4.76c-6.88-2.67-12.48-6.8-17.61-13.62-2.25,3.5-4.39,6.62-7.25,10.37l-4.58,6-1.52-3.49-1.16,4.79Zm-109.6,15.86h0Zm74.9-2.88s0,0,0,0t0,0Zm74.67-14.69l.18.29c3.22,5.28,9.87,9.03,17.82,10.02,5.73.71,11.37-.05,15.99-2.03-1.03-.5-1.98-.99-2.79-1.41-5.37-2.8-10.59-4.2-18.02-4.83-4.86-.52-9.21-1.15-13.16-2.04Zm-60.55-10.09c3.21,3.93,6.67,7.28,10.1,9.72,1.25-5.14,2.28-14.69,1.25-18.37-.34-1.22-1.49-3.17-2.78-5.02-1.18,4.19-2.92,8.51-6.77,12.04l-1.8,1.64Zm81.25,1.22l12.51,3.27c23.66,6.18,56.33,6.77,99.88,1.81,57.55-6.55,74-7.79,103.54-7.81,32.01-.02,36.37-1.22,44.4-7.34,2.95-2.25,6.11-6.25,8.25-10.43,3.09-6.05,3.44-7.71,3.43-16.17,0-8.34-.56-10.55-2.77-14.88-6.61-12.97-24.39-23.41-45.31-26.61-17-2.59-26.86-1.69-52.77,4.83-19.35,4.87-24.04,5.56-41.83,6.12-22.71.71-28-.23-51.51-9.17-9.1-3.87-20.38-7.72-28.25-3.78-4.88,2.44-8.41,7.97-10.48,16.44l-.97,3.95-4.02-.62c-8.04-1.25-13.93-17.68-13.99-17.84-3.11-9.47-1.35-22.88,4.2-31.9l1.05-1.71-1.66.75c-6.34,2.88-15.32,3.01-24.23.33.13.72.28,1.5.44,2.33.99,5.07,2.35,12.01,1.5,21.65-.81,9.71.96,17.85,3.03,20.57l9.53,12.51-14.66-5.69c-1.7-.66-3.57-1.62-5.5-2.76,3.95,11.25,9.96,25.48,14.06,29.6l7.24,7.29-10.27.27c-3.24.08-6.56-.56-9.8-1.74.6,2.49.92,5.53.93,9.12.03,7.13.62,11.38,4.03,17.63Zm-108.93-2.37c2.63,2.15,5.3,3.91,8.08,5.35l3.13-21.07c-1.02-1.3-2.02-2.59-2.98-3.83-1.58-2.03-3.08-3.96-4.47-5.73l-3.76,25.28Zm61.98-37.66l4.35,13.91c3.04,9.74,10.65,18.61,18.93,22.07,2.55,1.07,8.38,1.87,13.15,2.41-1.91-5.13-2.35-9.79-2.38-15.95-.02-6.38-1.11-8.58-1.39-9.05-7.68-4.81-14.19-11.21-21.09-20.71-1.23-1.7-2.49-3.66-3.66-5.59-.19.85-.37,1.69-.53,2.5-.75,3.68-1.41,6.86-3.58,9.09l-1.76,1.81-2.05-.5Zm-74.87,23.65c3.43,4.62,6.73,8.41,10.06,11.53l-3.68-4.78c-1.66-2.15-3.9-4.41-6.38-6.76Zm62.92,1.28c.62.86,1.21,1.64,1.77,2.32,2.05-3.77,4.12-13.09,4.18-17.53l.2-14.44c-1.99-2.37-4.91-6.04-9.37-11.77-2.29,6.18-5.29,14.08-6.05,15.1l-1.31,1.76-2.29.06c-1.18.07-2.28-.3-3.76-1.6l.4.57c2.1,2.98,4.58,7.07,7.21,11.4,1.77,2.91,3.71,6.1,5.59,9.04l.44-1.81,2.98,6.88Zm-48.33-48.42l2.53,11.21c1.58,7.01,13.34,25.71,21.17,34.55.93-2.95,1.55-6.88,1.2-10.74l-1.89-20.76c-.22-.19-.44-.37-.66-.56-4.32-3.63-7.83-6.58-11.35-10.99l-2.52,8.45-5.02-8.14c-.56-.57-1.82-1.66-3.47-3.01Zm-129.14,5.51l-3.55,19.44c-.78,4.27-1.04,8.06-.98,11.79,4-3.63,7.08-7.27,9.33-11.69l2.96-5.84-10.47,4.65,21.05-18.81c1.2-1.07,2.15-2,2.89-2.78-.84.19-1.84.45-3.01.8-6.19,1.88-12.42,2.69-18.22,2.43Zm-29.99,29.5c1.74.9,3.45,1.21,5.12.93,4.6-.78,9.66-6.1,12.89-13.55l7.49-17.3c-3.87-.56-7.51-1.62-10.78-3.17-1.01,12.94-5.92,26.18-14.73,33.09Zm227.62-49.98l7.86,15.7c4.45,8.88,15.35,21.07,25.8,26.33-5.06-9.87-9.47-22.69-10.85-26.85-10.29-7.94-13.3-11.68-18.08-20.94-1.38,2.1-2.75,3.98-3.6,4.74l-1.13,1.02Zm-53.77-6.51c.5,7.56,2.58,15.31,7.24,19.6,3.31,2.92,8.1,6.68,11.2,8.95.27-.48.57-1.02.88-1.61,1.91-3.61,2.38-5.51,2.23-14.47l-.2-11.44-3.54-4.44c-.44-.55-.88-1.07-1.32-1.58-.3,2.23-.59,4.67-.75,7.75l-.39,7.4-6.33-3.85c-2.92-1.78-4.93-3.28-6.87-4.73-.69-.52-1.39-1.04-2.14-1.59Zm27.57-9.22l4.13,15.52c1.54,5.81,4.98,11.33,12.22,19.59l5.52-20c-4.36-2.34-8.85-6.76-14.01-11.84-2.19-2.15-4.42-4.35-6.68-6.41-.33,1.03-.74,2.11-1.17,3.14Zm-130.66,27.65c4.45,0,8.59.7,12.49,1.83-11.26-10.3-29.68-11.24-39.68-11.75-1.47-.07-2.74-.14-3.73-.22l-.47-.06c-3.5-.68-7.31-.95-11.35-1.24-5.61-.4-11.7-.83-17.54-2.52,2.23,3.31,5.4,6.3,8.52,8.3,2.23,1.39,6.49,2.27,11.42,2.43l2.96-6.84-1.25,6.86c4.77-.01,10-.69,14.57-2.23,7.07-2.38,11.74-2.56,15.16-.58,2.24,1.3,3.74,3.4,4.45,6.25,1.52-.16,3-.23,4.45-.23Zm164.41-68.48l2.83,10.52c1.73,6.42,2.06,12.62,2.35,18.09.43,8.02.8,14.94,5.14,20.92,1.55,2.13,7.68,7.68,13.83,12.15-.64-4.31-.79-9.18-.37-14.19.74-8.42-.43-14.39-1.36-19.19-.22-1.1-.42-2.17-.6-3.2-4.6-3.26-11.3-9.69-15.05-17.42l-4.31-8.89-2.47,1.2Zm-30.99,22.8c2.96,2.88,5.56,5.64,8.07,8.32,4.05,4.31,7.67,8.17,12.02,11.67,4.45-8.6,4.67-17.71,4.93-28.03l.34-12.03c-13.87,6.53-23.59,8.59-32.62,8.16l7.25,11.92Zm-45.41-8.3l7.7,11.29c2.14,3.14,8.75,9.77,13.48,13.96.07-1.78.06-3.59.06-5.51,0-2.69-.02-5.47.18-8.57l.62-9.61,6.89,6.73c2.53,2.46,3.88,4.11,4.82,5.39l2.08-10.93-.04-2.14.26.97,1-5.26c-7.69-.55-14.99-2.88-24.09-5.8-.94-.3-1.9-.61-2.88-.92l9.22,10.82-9.82-.17c-3.13-.05-6.3-.11-9.49-.25Zm320.86-51.64l19.34,15.57c5.53,4.45,5.62,4.54,9.96,9.03,1.71,1.78,4.13,4.28,7.91,8.11,20.6,20.89,29.43,27.33,41.06,29.93,8.34,1.86,16.52.4,21.89-3.9,2.41-1.93,5.29-5.32,5.29-10.47,0-4.03-1.48-7.47-4.06-9.44-2.17-1.65-4.98-2.14-7.93-1.37-3.49,1.38-5.67,3.07-6.48,5.02-1.1,2.67.41,6.06,1.31,8.09l2.78,6.23-6.73.2c-6.16,0-21.81-7.73-30.3-14.06-4.42-3.29-18.04-15.38-30.37-26.95-34.38-32.26-45.77-40.59-67.7-49.51-.37-.15-.74-.3-1.11-.45l23.51,24.8c6.81,7.18,11.69,13.72,17.95,27.74.28.64.6,1.37.95,2.19,3.38,7.96,9.82,23.07,25.52,29.63-2.1-4.55-3.3-9.22-4.48-13.79-1.4-5.46-2.73-10.61-5.53-15.29l-12.76-21.3Zm-243.61,22.83l13.41,17.35c7.15,9.25,19.17,14.2,28.64,14.33-2.91-3.02-5.51-7.25-8.47-13.67-3.31-7.16-6.02-11.13-9.99-14.62-2.47-2.17-4.45-3.67-5.41-4.31h-2.03l-1.19-2.89c-.71-1.85-.33-3.33,1.12-5.16-2.64,2.12-5.57,4.22-8.17,5.53-3.06,1.54-5.54,2.63-7.92,3.45Zm99.64-33.94c-4.46,0-8.84,1.06-12.72,3.17l-.59.27c-8.82,3.25-15.48,12.18-16.56,22.22-.53,4.97.04,13.69,8.21,21.31,2.48-7.78,7.43-15.72,15.53-19.65,5.3-2.57,11.19-3.16,17.63-1.77l7.47-8.25c.57-.64.71-2.17.34-4.01-.89-4.55-4.21-9.22-6.58-10.35-4.08-1.96-8.45-2.94-12.74-2.94Zm-101.76,43.55l3,1.98-5.05-10.43c-.07.01-.14.03-.21.04l2.26,8.4Zm-10.95-7.21c2.28,1.49,4.56,2.99,6.88,4.52l.16-5.39c-2.06.36-4.31.62-7.04.87Zm124.92-10.64c4.33,1.03,8.9,2.94,13.69,5.74l10.39,6.06,6.57-.25c2.28-1.39,6.18-11.26,5.81-16.03-.23-11.53-5.3-26.29-14.55-32.67-2.01-1.39-4.16-2.33-6.46-2.83,6.74,6.39,11.48,15.72,11.06,23.9-.44,8.5-6.43,14.13-16.02,15.07l-10.49,1.02Z"/></g><g id="C-2"><path class="cls-2" d="m1252.09,764.46c.41,19.26,15.72,15.87,31.83,8.05,3.07-2.41,3.63-2.46,7.96-.66,2.64,1.1,8.65,1.95,13.88,1.95,13.69,0,19.52-3.83,19.52-12.81,0-4.09-3.52-8.43-12.07-14.89-3.05-2.31-5.24-5.34-6.11-8.47-2.03-7.32-1.69-21.97.61-26.42,2.01-3.89,7.96-7.04,11.77-7.78,14.31-2.77,15.69-19.25,16.11-31.66-20.65,13.35-35.39-16.65-33.77-34.24,1.27-13.72,2.79-26.39,13.59-61.42,13.73-44.53,17.54-58.45,16.73-78.59-1.41-35.01-12.73-51.68-33.13-72.61,17.32-12.36,29.69-29.43,31.12-46.69,2.05-24.74-9.35-43.04-33.95-55.23-21.41-10.61-49.47-13.35-88.18-8.61-22.96,3.84-83.64,9.03-72.31-33.3-16.37,2.47-13.96,21.56-7.12,33.8-21.25-11.57-20.06-30.04-18.3-37.69,2.22-6.95,11.49-14.64,17.85-14.09-28.37-16.55-40.52,4.87-42.54,19.39-25.96-16.52-15.83-48.06,4.04-55.38,9.84-5.35,21.08-4.37,29.5-.34,6.09,2.92,12.4,16.03,7.6,21.33,23.47-2.29,8.26-34.14-8.59-37.56,26.95-9.61,39.05,20.23,39.4,38.17.45,5.84-4.41,20.59-9.8,20.79,36.8,15.49,31.71-40.65,23.07-56.21,5.33,2.92,5.71,1.55,8.81,3.21,25.54,11.87,24.67,41.6,14.13,51.71,3.6.47,16.81-1.92,20.76-5.08,9.91-7.91,11.61-19.94,4.59-32.52l-3.42-6.13,7.89,8.32c6.04,6.37,10.76,12.26,17.11,26.49,3.68,8.24,12.32,33.62,40.6,37.2-10.92-11.6-8.87-26.16-16.29-38.55,7.55,6.08,4.4,3.53,17.49,16.8,21.22,21.53,30.67,28.33,43.25,31.14,17.14,3.83,32.58-5.03,32.58-18.7,0-10.78-8.19-17.69-17.81-15.03-14.19,5.47-9.53,15.31-7.75,19.33-4.34,0-18.65-6.47-27.66-13.18-4.3-3.2-17.79-15.18-29.98-26.63-34.95-32.8-46.45-41.19-69.06-50.38-35.07-14.26-70.46-16.01-104.26-5.16-27.13,8.71-42.59,23.62-49.57,47.82-1.65,5.71-2.07,10.68-1.6,18.91.73,12.75,4.12,20.93,12.03,28.96l4.71,4.79-4.12,6.69c-4.87,7.92-6.48,19.94-3.76,28.19,1.64,4.97,6.8,14.28,10.46,14.85,6.94-28.31,27.78-22.9,44.62-15.74,22.94,8.72,27.72,9.57,49.79,8.88,17.4-.55,21.9-1.21,40.89-5.98,26.38-6.64,36.97-7.59,54.52-4.91,22.42,3.42,41.31,14.69,48.59,28.98,2.66,5.22,3.24,8.27,3.25,16.88.02,9.13-.51,11.52-3.92,18.19-2.44,4.77-6.04,9.29-9.5,11.94-9.39,7.16-15.49,8.23-47.08,8.25-29.36.02-45.68,1.25-103.04,7.78-46.99,5.35-79.01,3.95-101.5-1.92,4.54,4.87,7.14,3.64,14.65,7.55.59,4.56-18.76,12.92-27.74,11.74-6.83-1.36-12.85-3.97-19.03-6.92,1.22,7.03,3.59,9.96,7.41,15.87-7.45-3.01-14.85-8.2-21.42-11.99-.1,5.24,11.91,19.25,21.1,23.84-20.07-.68-30.83-7.86-41.2-16.43-2.1,10.2-8.97,19.15-16.45,27.18.64-13.52-18.61-27.66-19.43-38.81,9.53,10.41,16.58,23.79,21.39,31.26,8.39-8.9,11.85-16.62,11.84-28.33,6.11,8.45,17.85,19.66,29.12,19.2-6.97-9.71-11.23-16.82-12.17-27.18,5.38,5.15,11.52,8.97,17.65,13.23-.47-5.44-1.65-10.33-1.42-16.32,8.87,14.57,34.96,16.54,47.05,4.7-1.02,0-5.62-1.96-10.21-4.35-6.37-3.32-12.28-4.68-19.7-5.31-19.28-2.08-29.45-5.53-39.11-21.74-3.83,6.17-6.43,10.29-10.67,15.83l-1.88-4.34-1.88-4.34-3.24,13.38-3.24,13.38-5.38-2.95c-5.8-3.18-17.63-12.01-19.67-18.96-1.69,2.97-2.25,5.03-3.32,15.48-18.95-.99-35.91-28.15-37.2-31.84-.78,3.17-2.45,9.93-4.63,14.9-3.39,7.71-3.78,9.7-2.7,13.61l1.26,4.57-5.04-3.99c-2.77-2.2-6.3-6.03-7.83-8.51-1.54-2.49-3.28-4.22-3.88-3.85-.6.37-2.09,3.31-3.32,6.52s-2.76,4.52-3.27,5.85c-2.72-1.94-7-7.05-7.45-11.19l-.41-3.79,1.82,3.91c1,2.15,3.55,6.04,4.61,6.92,2.67-1.24,5.52-19.39,8.16-22.52,0,5.1,3.16,13.23,7.28,18.64l3.32,4.35,5.06-11.81c2.81-6.56,5.08-14,5.1-16.73l.04-4.91c11.78,19.32,22.36,31.49,37.31,37.01l3.31-22.28c5.72,11.54,15.14,22.78,24.55,27.62,2.76,0,5.64-19.36,3.83-25.8-1.16-4.14-7.68-12.55-9.37-12.55-1.76,5.92-2.31,12.81-7.44,17.5-9.73-11.58-20.48-26.3-25.65-32.06l-3.85,25.87c-8.14-10.56-26.86-21.3-29.61-38.26,6.27,8.8,13.3,20.5,27.39,30.85.16-3.45,5.03-27.59,5.12-31.59,2.05,9.12,18.82,34.92,26.67,40.84,2.98-3.24,5.09-11.29,4.44-18.41l-.83-9.16c5.83,8.27,15.37,26.52,21.02,31.01,6.09.3,9.15-18.8,9.21-23.19l1.7,5.44c3.45,11.02,11.95,20.86,21.45,24.84,5.22,2.18,19.27,3.15,22.33,3.58-4.45-7.62-5.38-12.61-5.41-21.22-.03-8.18-1.72-11.7-3.23-12.64-8.24-5.1-14.28-11.7-20.09-19.71-3.68-5.07-7.6-12.59-7.92-13.48-4.65,7.35-3.84,16.14-6.61,19-1.43-.35-15.52-19.09-17.24-21.08-1.16,3.25-7.65,20.75-8.18,21.46-.22.29-1.64-1.06-3.16-3-10.71-9.66-15.84-12.03-22.68-23.59-1.66,2.4-1.43,3.65-2.59,7.54-.97-1.56-19.65-16.17-21.83-17.01l-2.53,19.9c-17.03-11.16-31.05-28.13-29.83-34.49,3.37,6.66,27.41,27.62,27.41,27.62l1.32-25.07c2.43,4.71,12.44,15,19.11,19.64l5.38,3.75c-.12-12.55,1.2-25.93-2.42-37.98,3.78,5.55,19.48,20.45,20.72,19.21,1.49-7.52.57-13.63,1.09-21.53,6.81,6.64,4.09,6.46,10.66,11.55l3.02-15.86,2.4,3.95c9.19,8.85,15.01,16.92,24.85,23.66,8.14-11.78,7.78-23.84,8.17-37.58,4.09,15.2-.24,28.88,8.19,40.47,2.8,3.85,16.87,16.07,25.38,19.38-2.96-3.89-4.8-13.16-3.92-23.65,1.09-12.39-1.7-19.95-2.26-25.36-3.34-1.99-11.13-8.42-15.17-16.75,11.13,14.41,31.5,19.05,42.32,14.15l-4.84-3.69c-3.42-2.61-6.29-6.82-9.77-14.37-3.59-7.76-6.61-12.15-11.08-16.09-3.39-2.98-6.68-5.42-7.32-5.42s1.71-2.44,5.13-5.54c11.85-10.71,18.66-28.7,17.63-36.29-1.45,2.12-21.91,18.69-41.06,14.97,2.29-8.97-12.38-25.85-20.18-28.65,3.74,11.99-6.34,26.51-17.4,26.84-6.41,0-11.87-3.31-17.89-10.86-6.8-8.52-15-13.84-25.65-13.69-3.28.05-6.44-.1-9.72-.06,3.21,1.82,6.4,5.78,6.4,9.67,0,4.35-6.63,11.91-10.81,11.02-15.03-3.2-32.17-17.8-46.81-11.48,4.91,1,7.72,20.41-7.58,24.8-16.98,4.87-49.07,13.33-62.51,12.46,13.63-11.74,5.87-25.32-6.27-20.63-35.55,13.73-8.76,64.95,15.49,83.48-.64-4.59-1.51-7.32-1.79-10.69,7.52,5.75,19.01,11.93,25.6,15.53.03-4.2,1.68-9.16,2.68-11.35,4.99,9.16,12.75,17.43,18.57,23.55,9.42,11.52,20.07,21.84,21.02,35.49-15.08-14.04-31.52-16.7-48.82-9.02,9.52-8.5,10.42-13.89-4.32-9.54-11.37,3.45-22.69,3-31-1.24l-5.5-2.81c.58,15.29-5.38,34.85-18.22,39.6,12.17,13.24,24.26,2.68,29.85-10.23-1.48,8.08-1.2,14.66-.45,21.5,6.94-5.39,13.18-10.87,17.1-18.6.59,7.87.54,18.91,6.69,23,0-5.88,1.67-18.42,11.43-21.58-2.49,8.72-3.46,17.81,5.12,17.98.17-6.28,1.31-8.53,3.76-11.21,10.09-5.4,18.43.41,18.13,9.51-.38,10.12-7.74,21.02-20.84,30.9-30.39,22.91-49.22,47.91-58.56,77.76-4.78,15.28-5.95,42.94-2.48,58.67,6.56,29.7,22.85,54.08,46.77,69.95,8.32,5.52,29.18,15.06,30.32,14.72-4.65-15.25-5.8-40.89-4.2-61.3,2.03,9.58,4.88,54.75,8.48,63.7,7.95,31.79,10.41,54.17,7.93,72.17-1.82,13.17-4.42,20.15-8.83,23.61-4.4,3.46-8.97,3.25-17.89-.83-9.11-4.17-17.26-3.81-22.38.98-5.18,4.86-15.02,17.59-15.36,19.58,2.91,3.38,12.29,1.3,12.29-2.65,0-1.3,2.73-6.31,4.1-7.55-3.27,12.3,1.34,14.64,10.03,14.21,15.4-.48,8.91-9.27,16.01-12.03-.82,1.69-1.47,4.67-1.47,6.56,0,5.14,4.92,7.13,17.47,7.09,9.01-.03,11.59-.58,17.65-3.74l7.1-3.7,7.23,2.29c8.17,2.58,20.63,2.85,25.1.54,10.96-5.66,11.57-12.24,2.14-23.09-6.8-7.83-4.52-11.36,10.2-15.76,18.05-6.81,25.21-14.97,24.88-32.34-11.64,13.53-29.5-2.02-24.54-16.58,2.11-10.36,10.95-31.39,25.7-50.6,11.52-15,29.01-68.7,31.42-77.33-1.07,24.59-11.62,51.91-28.31,76.99-5.72,8.61-7.43,12.23-7.43,12.23,0,0,33.26-8.06,49.59-14.21,7.24-2.72,24.59-9.65,38.57-15.4,32.23-13.25,57-21.73,71.44-24.46,20.6-3.89,46.81-.82,62.93,7.38,4.56,2.32,7.95,5.02,39.15,31.27,8.14,6.85,20.67,16.61,27.83,21.69,14.27,10.11,26.89,22.11,29.88,28.4,2.4,5.06,2.6,10.29,1.44,37.81-1.06,25.25-1.93,29.24-7.4,33.84-3.68,3.09-4.83,3.65-18.22,3.3-23.49-.61-23.66,1.69-28.82,21.91-.92,3.63-3.29,9.12-5.16,11.35,9.95,3.01,19.9-2.27,21.61-10.01.96-4.32,3.72-8.19,6.42-8.91-3.38,7.11-5.63,11.87-4.63,20.85,25.7.08,17.21-3.79,22.25-17.16h0Zm-392.72-294.59c-4.8-9.77-4.04-16.85-3.5-27.1-8.11,2.24-9.76,3.68-17.24,9.72-3.92-19.77,10.27-26.75,16.71-32.01-.12,4.14-15.09,12.7-14.16,26.28,7.21-4.78,17.94-11.25,20.02-11.62-1.89,2.15-4.72,23.64-.16,30.54,1.21-1.85,8.1-9.63,13.44-13.59,5.34-3.95,11.41-10.09,12.24-11.64,1.4,3.89,6.11,12.22,8.56,16,5.62-12.09,11.92-16.98,19.27-26.73,1.04,5.49,4.25,26.4,6.8,27.39,6.81-7.05,13.05-24.27,15.69-25.86-3.57,13.77-10.15,22.54-16.19,34.33-3.93-9.26-7.62-19.09-8.24-29-13.14,14.26-13.54,12.75-13.01,30.96-5.86-6.62-10.01-14.16-12.43-22.43-9.37,9.32-24.12,17.1-25.17,29.05l-2.59-4.29Zm55.72-184.93c-7.03-1.15-16.79-5.35-31.46-13.48-8.41-4.66-13.97-5.68-18.31-3.35-7.13,3.81-3.99,13.65,3.91,11.04,7.71-2.54,1.29-5.87.09-6.98,2.99-.09,7.66,2.15,7.66,4.67,0,3.03-6.08,5.94-10.42,4.98-12.31-2.7-7.94-17.6,5.16-17.6,2.06,0,7.75,2.14,12.65,4.76,20.56,10.98,23.52,12.13,34.53,13.36,5.98.67,10.82.86,11.25.84-1.18-2.18-8.32-10.23-15.97-14.12,4.23-1.56,18.62.96,34.22,6.35,12.4,4.28,14.8,4.7,23.65,4.14,5.42-.34,12.41-1.67,15.54-2.96l5.69-2.34c-7.05-6.7-16.18-9.23-23.74-13.94,1.99-.53,11.14-2.84,18.08-2.6,11.36.39,33.82-13.6,37.48-14.64-2.05,2.17-9.22,8.71-14.34,11.28-7.81,3.92-11.19,4.7-20.99,5.53l-11.53.94c6.98,4.29,13.32,8.49,20.17,13.02-32.47,15.82-39.6,7.19-73.85-2.22l6.29,7.38,6.29,7.38c-7.35-.13-14.86-.27-22.04-1.45Zm256.29,483.84c12.63,6.11,32.19,6.49,36.77-3.79,2.04-5.25.55-15.96-3.27-23.51-1.84-3.63-3.95-9.3-4.69-12.61-1.57-7.01-.5-9.83,5.69-14.91,13.13-10.78,16.47-14.96,18.04-22.56.85-4.1.08-10.24.08-10.24-5.59,5.37-18.04,6.81-23.84,2.04-11.67-10.84,16.51-26.37,19.86-45.08-11.82-11.49-26.42-23.64-39.79-36.12-15.54-14.51-41.03-20.61-62.79-17.9-3.52.44-7.72.62-7.72.62l.54,4.48c0,12.8,8.17,31.57,22.78,52.31,12.91,18.32,19.92,29.97,21.77,36.14,1.05,3.52,1.13,13.29.29,34.77-1.15,29.05-1.27,29.98-4.34,33.24-3.92,4.17-10.82,4.46-21.14.91-21.16-7.28-31.11-4.52-37.97,21.13,3.09,3.73,17.19,4.71,17.32-1.73.06-5.16,1.01-6.88,5.13-9.78-3.5,7.36-.76,14.58,4.3,17.31,10.36,5.57,18.31-10.27,22.15-12.36-.24,21.01,10.61,16.32,30.85,7.63h0Zm-484.6-85.11c7.71,7.71,15.77,11.77,25.62,1.28-14.73-5.06-21.84-13.07-25.73-29.01,6.73,9.38,20.66,13.59,28.66,10.36,8-3.23,8.75-7.92,8.65-14.41-.1-6.49-6.31-9.78-10.36-9.78s-10.24,3.89-7.85,13.14c-30.41-7-20.91-33.24-7.13-44.47-7.63-6.25-12.96-11.64-15.13-26.34,3.04,1.33,7.26,6.71,16,6.9,7.09-.68,10.61-6.11,10.64-11.2,0-4.84-2.55-8.37-6.75-8.43-4.2-.05-6.8,2.88-6.24,10.5-7.96-3.31-12.14-9.45-14.13-17.97-5.86,4.57-12.19,4.46-12.63,5.56-.75,4.15-9.92,12.56-13.7,11.58,1.33-2.15.28-7.98-2.12-8.83-6.73-2.37-10.74,4.23-8.21,11.88,4.76,12.26,20.45,3.91,23.57.11-1.18,12.92-6.36,20.65-11.77,26.53,14.61,18.39,14.8,40.69-9.07,45.09.81-8.53-.4-11.77-7.3-13.08-6.23-.18-9.86,3.75-9.86,10.67,0,8.33,6.86,14.48,16.16,14.48,10.6-1.29,13.61-4.87,20.7-11.44-4.94,12.25-13.66,24.51-26.51,28.13,10.28,10.87,19.02,6.07,27.53-1.4-2.84,11.56-.62,15.54,7.94,25.23,7.79-10.88,9.31-12.96,8.99-25.08h0Zm98.58-35.31c7.65-7.25,13.74-15.46,19.83-23.96-26.07-22.48-38.87-52.17-39.73-77.24-15.69-17.99-48.27-51.51-51.3-54.6-2.31-2.35-4.62-2.25-5.96-1.58-1.46.73-1.87,2.73-1.46,4.6.83,3.75,5.64,9.32,7.08,11.89-19.44,6.77-15.71,21.5-5.77,31.74-3.27.11-6.49-.24-7.69-.16-2.82,10.52-11.6,17.05-14.39,19.77.2,3.83-.73,5.46,1.54,9.04,18.2-13,19.56-10.3,20.98-10.13,3.92.49,11.76,14.91,16.1,21.8-10.62,7.51-14.65,15.63-8.73,29.53,13.82-17.03,16.85-7.27,26.26,7.03,11.68,19.55,28.69,40.4,32.96,40.4.99,0,5.62-3.66,10.3-8.14h0Zm-107.71-83.77c2.53-1.31,3.84-2.98,3.83-4.89-.04-5.72-1.89-6.82-10.68-6.39-7.03.75-12.29-1.71-18.58-3.68-1.73,0-.43,5.2,2.12,8.44,6.28,7.98,15.5,10.55,23.31,6.51h0Zm20.07-30.36c-2.78,3.16-13.36,10.02-17.33,17.28l3.58,5.74c7.78-6.7,14.16-11.87,13.75-23.02h0Zm-18.12,13.51c4.2-6.08,3.29-10.35-10.7-10.29-8.96.04-14.29-3.35-21.89-6.06-.39,0-.7,2.11-.7,4.69,0,8.56,9.3,14.46,23.19,14.72,5.69.11,7.98,0,10.1-3.07Zm16.59-22.03c-5.24,2.05-9.48,6.69-14.97,9.88.47,1.86,2.06,4.54,3.35,6.95,8.24-4,12.71-12.75,11.62-16.83h0Zm-11.43-5.03c-15.38,0-24.08-.63-36.48-8.98-16.27,14.33,16.24,23.38,23.03,23.2,10.9.44,14.46-6.3,13.45-14.23h0Zm12.03-6.31c-4.43,1.93-5.28,1.79-10.07,5.61.28,4.4.34,5.76,1.15,8.94,4.4-2.09,8.55-8.36,8.93-14.55Zm-10.07,2.31c3.57-1.8,2.56-11.4-.11-11.54-8.71-.46-15.06-3.33-20.47-7.82-11.4-9.56-24.61.58-15.21,11.75,6.4,7.61,27.07,12,35.78,7.61Zm19.99-12.6c-5.98-.33-11.73.01-16.61,1.16,2.09,2.29,3.14,5.41,2.35,7.64,6.17-1.56,9.5-4.13,14.26-8.8h0Zm-2.39-10.84c-11.62,2.57-21.78,5.2-32.32,4.32-.33.69,2.43,2.69,5.99,3.72,4.84,1.4,22.75.8,27.87.24-.44-2.77-.96-5.53-1.55-8.28Zm-2.41-2.83c7.81-2.38,18.05-8.98,21.72-13.98,3.56-6.42,3.54-17.25-1.33-20.94-13.39-10.12-23.04,6.55-14.6,15.43l2.73,2.91c-19.06,12.87-48.84,7.98-62.67-.58,5.43-3.06,8.06-9.68,6.29-15.51-2.49-4.59-5.15-5.44-11.68-5.39-7.59.06-10.37,5.75-10.37,13.7,0,10.99,11.01,21.07,24.07,25.24,13.07,4.17,39.31,1.11,45.85-.88,6.54-2,0,0,0,0h0Zm4.36-15.76c-5.76-6.37-6.72-12.19-3.7-18.73,4.31-93.39-12.61-199.52,18.62-290.58-66.92,10.48-66.54,211.82-66.15,288.65,4.59,12.67-.89,17.97-4.2,19.25,17.39,7.25,36.29,8.34,55.42,1.41h0Zm333.63-92.97c-6.27-6.3-14.3-28.5-16.88-36.55-12.82-9.79-13.98-12.19-21.56-27.57-.43,1.34-5.45,9.48-6.87,10.76-7.08-3.54-16.33-15.43-26.2-22.85-.1.55-.29,2.66-.79,5.33-.5,2.68-2.95,7.81-3.67,9.15-2.82-3.54-5.8-6.03-8-9.65-.35,6.53-1.53,10.29-1.97,18.35-6.12-3.72-7.82-6.07-15.72-10.67-.74,10.72,1.2,24.14,8.65,30.99,5.26,4.64,14.52,11.69,15.36,11.69.39,0,2.02-2.49,3.63-5.54,2.44-4.61,2.9-7.4,2.74-16.62l-.19-11.08,1.63,6.12c1.76,6.62,5.57,12.75,13.53,21.78l5.06,5.75,3.03-10.98,3.03-10.98,5.61,11.19c6.18,12.34,24.68,31.75,39.57,31.37h0Zm-230.89-51.69c-11.8-2.28-26.24-.22-37.2-7.6.16,8.47,7.69,16.46,13.6,20.24,6.31,3.92,20.94,4.24,31.5.68,8.87-2.99,12.98-2.11,14,3,.34,1.67-.83,3.82-.83,3.82,12.91-3.09,23,.36,33.64,5.98-9.58-26.36-45.1-25.32-54.72-26.12h0Z"/></g></g><circle class="cls-4" cx="479.47" cy="479.47" r="479.47"/></g></g></g></g></g></svg>