<?xml version="1.0" encoding="UTF-8"?><svg xmlns="http://www.w3.org/2000/svg" xmlns:xlink="http://www.w3.org/1999/xlink" viewBox="0 0 958.95 958.95"><defs><style>.cls-1{fill:#ffe300;}.cls-2{fill:#eb1e31;}.cls-3{isolation:isolate;}.cls-4{fill:url(#radial-gradient);mix-blend-mode:multiply;opacity:.3;}.cls-5{clip-path:url(#clippath);}.cls-6{fill:none;}.cls-7{fill:#006bbf;}</style><clipPath id="clippath"><circle class="cls-6" cx="479.47" cy="479.47" r="479.47"/></clipPath><radialGradient id="radial-gradient" cx="479.47" cy="479.47" fx="479.47" fy="479.47" r="479.47" gradientUnits="userSpaceOnUse"><stop offset="0" stop-color="#fff"/><stop offset=".36" stop-color="#fdfdfd"/><stop offset=".48" stop-color="#f6f6f6"/><stop offset=".58" stop-color="#eaeaea"/><stop offset=".65" stop-color="#d9d9d9"/><stop offset=".71" stop-color="#c3c3c3"/><stop offset=".77" stop-color="#a8a8a8"/><stop offset=".82" stop-color="#878787"/><stop offset=".87" stop-color="#626262"/><stop offset=".91" stop-color="#373737"/><stop offset=".95" stop-color="#090909"/><stop offset=".96" stop-color="#000"/></radialGradient></defs><g class="cls-3"><g id="Layer_2"><g id="Layer_1-2"><g id="Mongolia"><g class="cls-5"><g><rect class="cls-2" width="639.15" height="958.95"/><rect class="cls-7" x="639.15" width="639.59" height="958.95"/><path class="cls-1" d="m325.02,96.49c-11.31,19.26-.24,30.37,5.61,37.1,7.44,8.56,2.27,22.32-.59,27.72-2.85,5.4-1.83,13.45-1.83,13.45,0,6.22,3.9,8.87,7.9,8.59,6.15-.43,8.83-7.93,5.15-12.88-4.42-5.94-5.47-11.74-2.45-16.09,3.67-5.3-1.22-15.8-1.22-15.8,4.18.41,10.29,7.85,10.19,14.98-.24,17.12,15.66,16.61,10.25,39.2-7.87,32.84-39.12,30.92-39.12,30.92,0,0-29.59,1.91-37.46-30.92-5.42-22.59,10.49-22.08,10.25-39.2-.1-7.13,6.01-14.57,10.19-14.98,0,0-4.89,10.5-1.22,15.8,3.01,4.35,1.97,10.15-2.45,16.09-3.68,4.95-1,12.45,5.15,12.88,4,.28,7.9-2.37,7.9-8.59,0,0,1.02-8.05-1.83-13.45-2.85-5.4-2.2-15.49,3.97-21.91,6.18-6.42,3.16-15.39,2.04-19.67-1.12-4.28-2.24-19.26,9.58-23.24Z"/><circle class="cls-1" cx="319.73" cy="303.48" r="63.72"/><path class="cls-1" d="m360.01,554.59c5.26,10.74,9.41,23.47,7.68,34.9-3.19,21.57-14.28,32.79-38.27,38.83-3.93.99-8.33,1.6-13.81,1.98-7.77.47-21.7,3.75-27.74,19.93-9.92,26.45,17.09,50.57,19.63,52.77h.04c3.97.6,8.02.91,12.17.91,44.27,0,80.12-35.85,80.12-80.12,0-29.55-16.01-55.36-39.82-69.2Zm-40.3,127.71c-8.89,0-16.09-7.25-16.09-16.14s7.21-16.14,16.09-16.14,16.14,7.21,16.14,16.14-7.21,16.14-16.14,16.14Zm-43.96-36.59c8.93-23.86,30.29-27.74,39.05-28.35,4.66-.3,8.33-.82,11.48-1.6,21.31-5.35,26.53-14.02,28.65-28.17,1.9-12.81-7.25-30.16-14.54-41.16t0-.04c-6.6-1.73-13.5-2.68-20.67-2.68-44.22,0-80.08,35.85-80.08,80.08,0,31.28,17.91,58.38,44.05,71.53-8.28-12.38-15.27-30.07-7.94-49.62Zm43.96-80.38c8.93,0,16.14,7.25,16.14,16.14s-7.21,16.14-16.14,16.14-16.09-7.25-16.09-16.14,7.21-16.14,16.09-16.14Zm20.67-18.9s.04-.04,0-.04c-6.6-1.73-13.5-2.68-20.67-2.68-44.22,0-80.08,35.85-80.08,80.08,0,31.28,17.91,58.38,44.05,71.53-8.28-12.38-15.27-30.07-7.94-49.62,8.93-23.86,30.29-27.74,39.05-28.35,4.66-.3,8.33-.82,11.48-1.6,21.31-5.35,26.53-14.02,28.65-28.17,1.9-12.81-7.25-30.16-14.54-41.16Zm-20.67,51.17c-8.89,0-16.09-7.25-16.09-16.14s7.21-16.14,16.09-16.14,16.14,7.25,16.14,16.14-7.21,16.14-16.14,16.14Z"/><path class="cls-1" d="m407.69,328.16c0,48.58-39.39,87.97-87.97,87.97s-87.93-39.39-87.93-87.97c0-.82,0-1.64.09-2.46,14.5,34.17,48.37,58.12,87.84,58.12s73.35-23.95,87.89-58.12c.09.82.09,1.64.09,2.46Z"/><polygon class="cls-1" points="319.73 431.39 240.99 431.39 319.73 479.47 398.47 431.39 319.73 431.39"/><rect class="cls-1" x="239.61" y="495.6" width="160.42" height="31.8"/><polygon class="cls-1" points="319.73 768.14 240.99 768.14 319.73 816.23 398.47 768.14 319.73 768.14"/><rect class="cls-1" x="239.61" y="720" width="160.42" height="31.8"/><g><rect class="cls-1" x="415.13" y="431.39" width="80.72" height="384.84"/><rect class="cls-1" x="143.62" y="431.39" width="80.72" height="384.84"/></g></g><circle class="cls-4" cx="479.47" cy="479.47" r="479.47"/></g></g></g></g></g></svg>