<?xml version="1.0" encoding="UTF-8"?><svg xmlns="http://www.w3.org/2000/svg" xmlns:xlink="http://www.w3.org/1999/xlink" viewBox="0 0 958.95 958.95"><defs><style>.cls-1{fill:#006;}.cls-2{fill:#fff;}.cls-3{isolation:isolate;}.cls-4{fill:#c00;}.cls-5{fill:url(#radial-gradient);mix-blend-mode:multiply;opacity:.3;}.cls-6{clip-path:url(#clippath);}.cls-7{fill:none;}.cls-8{fill:#fc0;}</style><clipPath id="clippath"><circle class="cls-7" cx="479.47" cy="479.47" r="479.47"/></clipPath><radialGradient id="radial-gradient" cx="479.47" cy="479.47" fx="479.47" fy="479.47" r="479.47" gradientUnits="userSpaceOnUse"><stop offset="0" stop-color="#fff"/><stop offset=".36" stop-color="#fdfdfd"/><stop offset=".48" stop-color="#f6f6f6"/><stop offset=".58" stop-color="#eaeaea"/><stop offset=".65" stop-color="#d9d9d9"/><stop offset=".71" stop-color="#c3c3c3"/><stop offset=".77" stop-color="#a8a8a8"/><stop offset=".82" stop-color="#878787"/><stop offset=".87" stop-color="#626262"/><stop offset=".91" stop-color="#373737"/><stop offset=".95" stop-color="#090909"/><stop offset=".96" stop-color="#000"/></radialGradient></defs><g class="cls-3"><g id="Layer_2"><g id="Layer_1-2"><g id="Malaysia"><g class="cls-6"><g><rect class="cls-2" width="1917.9" height="958.95"/><rect class="cls-1" width="958.95" height="548.05"/><rect class="cls-4" y="548.05" width="1917.9" height="68.95"/><rect class="cls-4" y="685.06" width="1917.9" height="68.95"/><rect class="cls-4" y="822.08" width="1917.9" height="68.95"/><polygon class="cls-8" points="599.27 103.9 614.53 205.71 673.08 120.75 642.32 219.61 732.27 167.96 661.22 244.39 765.12 236.17 668.02 274.03 765.12 311.88 660.77 303.63 732.27 380.09 642.32 327.21 673.08 427.3 614.38 340.81 599.27 444.15 583.55 341.56 525.45 427.3 556.21 327.66 466.26 380.09 537.46 303.48 433.41 311.88 531.11 274.03 433.41 236.17 537.31 244.24 466.26 167.96 556.21 219.76 525.45 120.75 583.4 206.01 599.27 103.9"/><path class="cls-8" d="m508.44,444.89c-32.88,22.22-72.5,35.19-115.19,35.19-113.83,0-206.08-92.25-206.08-206.04s92.25-206.04,206.08-206.04c42.61,0,82.23,12.97,115.07,35.1-20.64-8.06-43.08-12.45-66.57-12.45-101.25,0-183.35,82.1-183.35,183.39s82.1,183.35,183.35,183.35c23.54,0,46.02-4.44,66.7-12.5Z"/></g><circle class="cls-5" cx="479.47" cy="479.47" r="479.47"/></g></g></g></g></g></svg>