<?xml version="1.0" encoding="UTF-8"?><svg xmlns="http://www.w3.org/2000/svg" xmlns:xlink="http://www.w3.org/1999/xlink" viewBox="0 0 958.95 958.95"><defs><style>.cls-1{fill:#003893;}.cls-2{fill:#fff;}.cls-3{isolation:isolate;}.cls-4{fill:url(#radial-gradient);mix-blend-mode:multiply;opacity:.3;}.cls-5{clip-path:url(#clippath);}.cls-6{fill:none;}.cls-7{fill:#dc143c;}</style><clipPath id="clippath"><circle class="cls-6" cx="479.47" cy="479.47" r="479.47"/></clipPath><radialGradient id="radial-gradient" cx="479.47" cy="479.47" fx="479.47" fy="479.47" r="479.47" gradientUnits="userSpaceOnUse"><stop offset="0" stop-color="#fff"/><stop offset=".36" stop-color="#fdfdfd"/><stop offset=".48" stop-color="#f6f6f6"/><stop offset=".58" stop-color="#eaeaea"/><stop offset=".65" stop-color="#d9d9d9"/><stop offset=".71" stop-color="#c3c3c3"/><stop offset=".77" stop-color="#a8a8a8"/><stop offset=".82" stop-color="#878787"/><stop offset=".87" stop-color="#626262"/><stop offset=".91" stop-color="#373737"/><stop offset=".95" stop-color="#090909"/><stop offset=".96" stop-color="#000"/></radialGradient></defs><g class="cls-3"><g id="Layer_2"><g id="Layer_1-2"><g id="Nepal"><g class="cls-5"><g><path class="cls-1" d="m873.22,490.95L207.79,73.98v811h640.53l-394.13-394.03h419.03Zm-84.95,369.17H232.65V118.9l554.09,347.18h-392.57l394.1,394.03Z"/><polygon class="cls-7" points="788.27 860.11 232.65 860.11 232.65 118.9 786.74 466.09 394.17 466.09 788.27 860.11"/><polygon class="cls-2" points="444.33 684.64 490.39 664.32 444.33 644 474.66 604.05 425 610.25 430.7 560.25 391.02 590.87 371.3 544.65 351.59 590.87 311.91 560.25 317.61 610.25 267.95 604.05 298.28 644 252.22 664.32 298.28 684.64 267.95 724.6 317.61 718.39 311.91 768.39 351.59 737.77 371.3 783.99 391.02 737.77 430.7 768.39 425 718.39 474.66 724.6 444.33 684.64"/><path class="cls-2" d="m482.7,332.62c-8.44,26.26-25.91,48.45-48.75,62.96l-10.95-8.15,18.79-14.01-22.65-5.96,11.91-19.71-23.07,3.19,3.02-23.41-19.63,12.5-5.96-22.9-14.1,18.62-14.1-18.62-5.96,22.9-19.63-12.5,3.02,23.41-23.07-3.19,11.91,19.71-22.65,5.96,18.79,14.01-10.96,8.16c-22.82-14.49-40.29-36.65-48.74-62.86-.04.71-.04,1.46-.04,2.17,0,61.55,49.86,111.44,111.41,111.44s111.44-49.9,111.44-111.44c0-.75,0-1.53-.04-2.27Z"/></g><circle class="cls-4" cx="479.47" cy="479.47" r="479.47"/></g></g></g></g></g></svg>