<?xml version="1.0" encoding="UTF-8"?><svg xmlns="http://www.w3.org/2000/svg" xmlns:xlink="http://www.w3.org/1999/xlink" viewBox="0 0 958.95 958.95"><defs><style>.cls-1{fill:#fff;}.cls-2{isolation:isolate;}.cls-3{fill:url(#radial-gradient);mix-blend-mode:multiply;opacity:.3;}.cls-4{fill:#007e3c;}.cls-5{clip-path:url(#clippath);}.cls-6,.cls-7{fill:none;}.cls-7{stroke:#fff;stroke-linecap:round;stroke-linejoin:round;stroke-width:17.26px;}.cls-8{fill:#df1a23;}</style><clipPath id="clippath"><circle class="cls-6" cx="479.47" cy="479.47" r="479.47"/></clipPath><radialGradient id="radial-gradient" cx="479.47" cy="479.47" fx="479.47" fy="479.47" r="479.47" gradientUnits="userSpaceOnUse"><stop offset="0" stop-color="#fff"/><stop offset=".36" stop-color="#fdfdfd"/><stop offset=".48" stop-color="#f6f6f6"/><stop offset=".58" stop-color="#eaeaea"/><stop offset=".65" stop-color="#d9d9d9"/><stop offset=".71" stop-color="#c3c3c3"/><stop offset=".77" stop-color="#a8a8a8"/><stop offset=".82" stop-color="#878787"/><stop offset=".87" stop-color="#626262"/><stop offset=".91" stop-color="#373737"/><stop offset=".95" stop-color="#090909"/><stop offset=".96" stop-color="#000"/></radialGradient></defs><g class="cls-2"><g id="Layer_2"><g id="Layer_1-2"><g id="Oman"><g class="cls-5"><g><rect class="cls-1" y="0" width="1917.62" height="319.65"/><rect class="cls-8" y="319.65" width="1917.62" height="319.65"/><rect class="cls-4" y="639.3" width="1917.62" height="319.65"/><rect class="cls-8" y="0" width="637.78" height="957.66"/><path class="cls-7" d="m170.07,313.27c113.73-78.3,165.23-135.1,261.04-286.05"/><g><path class="cls-1" d="m170.08,321.89c-2.74,0-5.44-1.31-7.12-3.74-2.7-3.92-1.71-9.3,2.22-12,112.3-77.31,163.06-132.96,258.64-283.57,2.55-4.02,7.89-5.22,11.91-2.66,4.02,2.55,5.22,7.88,2.66,11.91-97.1,153-148.8,209.62-263.43,288.54-1.49,1.03-3.2,1.52-4.88,1.52Z"/><path class="cls-1" d="m470.2,321.89c-1.69,0-3.39-.49-4.88-1.52C350.68,241.46,298.99,184.83,201.89,31.84c-2.55-4.02-1.36-9.35,2.66-11.91,4.02-2.55,9.35-1.36,11.91,2.66,95.58,150.6,146.34,206.25,258.64,283.57,3.93,2.7,4.92,8.08,2.22,12-1.67,2.43-4.37,3.74-7.12,3.74Z"/></g><rect class="cls-1" x="214.36" y="148.55" width="211.55" height="32.95" rx="6.79" ry="6.79"/></g><circle class="cls-3" cx="479.47" cy="479.47" r="479.47"/></g></g></g></g></g></svg>