<?xml version="1.0" encoding="UTF-8"?><svg xmlns="http://www.w3.org/2000/svg" xmlns:xlink="http://www.w3.org/1999/xlink" viewBox="0 0 958.95 958.95"><defs><style>.cls-1{fill:#fff;}.cls-2{isolation:isolate;}.cls-3{fill:#ce1126;}.cls-4{fill:url(#radial-gradient);mix-blend-mode:multiply;opacity:.3;}.cls-5{clip-path:url(#clippath);}.cls-6{fill:none;}.cls-7{fill:#0038a8;}.cls-8{fill:#fcd116;}</style><clipPath id="clippath"><circle class="cls-6" cx="479.47" cy="479.47" r="479.47"/></clipPath><radialGradient id="radial-gradient" cx="479.47" cy="479.47" fx="479.47" fy="479.47" r="479.47" gradientUnits="userSpaceOnUse"><stop offset="0" stop-color="#fff"/><stop offset=".36" stop-color="#fdfdfd"/><stop offset=".48" stop-color="#f6f6f6"/><stop offset=".58" stop-color="#eaeaea"/><stop offset=".65" stop-color="#d9d9d9"/><stop offset=".71" stop-color="#c3c3c3"/><stop offset=".77" stop-color="#a8a8a8"/><stop offset=".82" stop-color="#878787"/><stop offset=".87" stop-color="#626262"/><stop offset=".91" stop-color="#373737"/><stop offset=".95" stop-color="#090909"/><stop offset=".96" stop-color="#000"/></radialGradient></defs><g class="cls-2"><g id="Layer_2"><g id="Layer_1-2"><g id="Philippines"><g class="cls-5"><g><rect class="cls-3" y="479.47" width="1917.9" height="479.47"/><rect class="cls-7" width="1917.9" height="479.47"/><polygon class="cls-1" points="0 0 829.07 479.47 0 958.95 0 0"/><polygon class="cls-8" points="47.45 82.25 76.85 108.72 111.12 88.94 95.03 125.08 124.43 151.55 85.08 147.42 68.99 183.56 60.76 144.86 21.42 140.73 55.68 120.95 47.45 82.25"/><polygon class="cls-8" points="69.47 775.98 85.33 812.23 124.7 808.34 95.13 834.63 110.99 870.87 76.86 850.87 47.29 877.15 55.76 838.51 21.62 818.51 61 814.63 69.47 775.98"/><polygon class="cls-8" points="698.02 427.31 698.15 466.88 735.82 478.97 698.24 491.33 698.37 530.89 675.01 498.96 637.43 511.32 660.57 479.23 637.21 447.3 674.87 459.4 698.02 427.31"/><g><circle class="cls-8" cx="297.83" cy="479.58" r="96.29"/><g><polygon class="cls-8" points="279.72 384.99 264.77 309.73 274.72 299.78 285.89 384.03 281.66 385.9 279.72 384.99"/><polygon class="cls-8" points="315.95 384.99 330.89 309.73 320.95 299.78 309.77 384.03 314 385.9 315.95 384.99"/><polygon class="cls-8" points="298.13 277.13 285.89 289.37 291.74 383.48 298.13 397.68 304.52 383.48 310.37 289.37 298.13 277.13"/></g><g><polygon class="cls-8" points="218.14 425.51 154.35 382.85 154.35 368.79 221.82 420.46 220.16 424.77 218.14 425.51"/><polygon class="cls-8" points="243.76 399.89 201.1 336.1 187.04 336.1 238.71 403.57 243.03 401.91 243.76 399.89"/><polygon class="cls-8" points="154.89 336.22 154.89 353.53 225.57 415.94 240.13 421.46 234.61 406.9 172.2 336.22 154.89 336.22"/></g><g><polygon class="cls-8" points="203.24 497.7 127.98 512.64 118.03 502.7 202.28 491.52 204.15 495.75 203.24 497.7"/><polygon class="cls-8" points="203.24 461.47 127.98 446.52 118.03 456.47 202.28 467.64 204.15 463.41 203.24 461.47"/><polygon class="cls-8" points="95.38 479.28 107.62 491.52 201.73 485.67 215.93 479.28 201.73 472.89 107.62 467.04 95.38 479.28"/></g><g><polygon class="cls-8" points="243.76 559.28 201.1 623.07 187.04 623.07 238.71 555.59 243.03 557.26 243.76 559.28"/><polygon class="cls-8" points="218.14 533.66 154.35 576.31 154.35 590.38 221.82 538.71 220.16 534.39 218.14 533.66"/><polygon class="cls-8" points="154.47 622.52 171.78 622.52 234.19 551.84 239.71 537.28 225.15 542.81 154.47 605.22 154.47 622.52"/></g><g><polygon class="cls-8" points="315.95 574.17 330.89 649.44 320.95 659.38 309.77 575.14 314 573.26 315.95 574.17"/><polygon class="cls-8" points="279.72 574.17 264.77 649.44 274.72 659.38 285.89 575.14 281.66 573.26 279.72 574.17"/><polygon class="cls-8" points="297.53 682.03 309.77 669.79 303.92 575.68 297.53 561.48 291.14 575.68 285.29 669.79 297.53 682.03"/></g><g><polygon class="cls-8" points="377.53 533.66 441.32 576.31 441.32 590.38 373.85 538.71 375.51 534.39 377.53 533.66"/><polygon class="cls-8" points="351.91 559.28 394.56 623.07 408.63 623.07 356.96 555.59 352.64 557.26 351.91 559.28"/><polygon class="cls-8" points="440.78 622.95 440.78 605.64 370.09 543.23 355.53 537.71 361.06 552.27 423.47 622.95 440.78 622.95"/></g><g><polygon class="cls-8" points="392.42 461.47 467.69 446.52 477.64 456.47 393.39 467.64 391.51 463.41 392.42 461.47"/><polygon class="cls-8" points="392.42 497.7 467.69 512.64 477.64 502.7 393.39 491.52 391.51 495.75 392.42 497.7"/><polygon class="cls-8" points="500.28 479.88 488.04 467.64 393.93 473.49 379.73 479.88 393.93 486.27 488.04 492.12 500.28 479.88"/></g><g><polygon class="cls-8" points="351.91 399.89 394.56 336.1 408.63 336.1 356.96 403.57 352.64 401.91 351.91 399.89"/><polygon class="cls-8" points="377.53 425.51 441.32 382.85 441.32 368.79 373.85 420.46 375.51 424.77 377.53 425.51"/><polygon class="cls-8" points="441.2 336.64 423.89 336.64 361.48 407.32 355.96 421.88 370.52 416.36 441.2 353.95 441.2 336.64"/></g></g></g><circle class="cls-4" cx="479.47" cy="479.47" r="479.47"/></g></g></g></g></g></svg>