<?xml version="1.0" encoding="UTF-8"?><svg xmlns="http://www.w3.org/2000/svg" xmlns:xlink="http://www.w3.org/1999/xlink" viewBox="0 0 958.95 958.95"><defs><style>.cls-1{fill:#fff;}.cls-2{isolation:isolate;}.cls-3{fill:url(#radial-gradient);mix-blend-mode:multiply;opacity:.3;}.cls-4{fill:#01411c;}.cls-5{clip-path:url(#clippath);}.cls-6{fill:none;}</style><clipPath id="clippath"><circle class="cls-6" cx="479.47" cy="479.47" r="479.47"/></clipPath><radialGradient id="radial-gradient" cx="479.47" cy="479.47" fx="479.47" fy="479.47" r="479.47" gradientUnits="userSpaceOnUse"><stop offset="0" stop-color="#fff"/><stop offset=".36" stop-color="#fdfdfd"/><stop offset=".48" stop-color="#f6f6f6"/><stop offset=".58" stop-color="#eaeaea"/><stop offset=".65" stop-color="#d9d9d9"/><stop offset=".71" stop-color="#c3c3c3"/><stop offset=".77" stop-color="#a8a8a8"/><stop offset=".82" stop-color="#878787"/><stop offset=".87" stop-color="#626262"/><stop offset=".91" stop-color="#373737"/><stop offset=".95" stop-color="#090909"/><stop offset=".96" stop-color="#000"/></radialGradient></defs><g class="cls-2"><g id="Layer_2"><g id="Layer_1-2"><g id="Pakistan"><g class="cls-5"><g><rect class="cls-4" x="-166.16" width="1438.99" height="958.95"/><polygon class="cls-1" points="838.76 264 884.67 316 948.31 288.41 913.04 348.14 958.95 400.14 891.24 385.05 855.97 444.78 849.4 375.73 781.69 360.65 845.33 333.05 838.76 264"/><path class="cls-1" d="m999.02,593.9c-44.61,102.11-146.51,173.45-265.07,173.45-159.72,0-289.18-129.47-289.18-289.18,0-131.37,87.61-242.27,207.58-277.5-65.62,47.86-108.25,125.34-108.25,212.8,0,145.39,117.85,263.24,263.24,263.24,75.57,0,143.66-31.84,191.69-82.8Z"/><rect class="cls-1" x="-166.16" width="359.59" height="958.95"/></g><circle class="cls-3" cx="479.47" cy="479.47" r="479.47"/></g></g></g></g></g></svg>