<?xml version="1.0" encoding="UTF-8"?><svg xmlns="http://www.w3.org/2000/svg" xmlns:xlink="http://www.w3.org/1999/xlink" viewBox="0 0 958.95 958.95"><defs><style>.cls-1{fill:#fff;}.cls-2{isolation:isolate;}.cls-3{fill:url(#radial-gradient);mix-blend-mode:multiply;opacity:.3;}.cls-4{clip-path:url(#clippath);}.cls-5{fill:none;}.cls-6{fill:#8a1538;}</style><clipPath id="clippath"><circle class="cls-5" cx="479.47" cy="479.47" r="479.47"/></clipPath><radialGradient id="radial-gradient" cx="479.47" cy="479.47" fx="479.47" fy="479.47" r="479.47" gradientUnits="userSpaceOnUse"><stop offset="0" stop-color="#fff"/><stop offset=".36" stop-color="#fdfdfd"/><stop offset=".48" stop-color="#f6f6f6"/><stop offset=".58" stop-color="#eaeaea"/><stop offset=".65" stop-color="#d9d9d9"/><stop offset=".71" stop-color="#c3c3c3"/><stop offset=".77" stop-color="#a8a8a8"/><stop offset=".82" stop-color="#878787"/><stop offset=".87" stop-color="#626262"/><stop offset=".91" stop-color="#373737"/><stop offset=".95" stop-color="#090909"/><stop offset=".96" stop-color="#000"/></radialGradient></defs><g class="cls-2"><g id="Layer_2"><g id="Layer_1-2"><g id="Qatar"><g class="cls-4"><g><rect class="cls-6" x="-518.21" y=".02" width="2441.92" height="958.93"/><polygon class="cls-1" points="393.16 159.38 198.13 106.55 198.13 106.55 393.16 52.83 198.12 0 198.12 .02 -518.21 .02 -518.21 958.95 198.12 958.95 198.12 958.95 198.12 958.95 198.13 958.95 198.13 958.95 393.16 905.23 198.13 852.4 198.13 852.4 393.16 798.68 198.13 745.85 198.13 745.85 393.16 692.13 198.13 639.3 198.13 639.3 393.16 585.58 198.13 532.75 198.13 532.75 393.16 479.03 198.13 426.2 198.13 426.2 393.16 372.48 198.13 319.65 198.13 319.65 393.16 265.93 198.13 213.1 198.13 213.1 393.16 159.38"/></g><circle class="cls-3" cx="479.47" cy="479.47" r="479.47"/></g></g></g></g></g></svg>