<?xml version="1.0" encoding="UTF-8"?><svg xmlns="http://www.w3.org/2000/svg" xmlns:xlink="http://www.w3.org/1999/xlink" viewBox="0 0 958.95 958.95"><defs><style>.cls-1{fill:#025c34;}.cls-2{fill:#fff;}.cls-3{isolation:isolate;}.cls-4{fill:url(#radial-gradient);mix-blend-mode:multiply;opacity:.3;}.cls-5{clip-path:url(#clippath);}.cls-6{fill:none;}</style><clipPath id="clippath"><circle class="cls-6" cx="479.47" cy="479.47" r="479.47"/></clipPath><radialGradient id="radial-gradient" cx="479.47" cy="479.47" fx="479.47" fy="479.47" r="479.47" gradientUnits="userSpaceOnUse"><stop offset="0" stop-color="#fff"/><stop offset=".36" stop-color="#fdfdfd"/><stop offset=".48" stop-color="#f6f6f6"/><stop offset=".58" stop-color="#eaeaea"/><stop offset=".65" stop-color="#d9d9d9"/><stop offset=".71" stop-color="#c3c3c3"/><stop offset=".77" stop-color="#a8a8a8"/><stop offset=".82" stop-color="#878787"/><stop offset=".87" stop-color="#626262"/><stop offset=".91" stop-color="#373737"/><stop offset=".95" stop-color="#090909"/><stop offset=".96" stop-color="#000"/></radialGradient></defs><g class="cls-3"><g id="Layer_2"><g id="Layer_1-2"><g id="Saudi_Arabia"><g class="cls-5"><g><rect class="cls-1" x="-239.74" width="1438.42" height="958.95"/><g><path class="cls-2" d="m659.87,709.65c-1.98,7.95-6.73,11.61-12.15,8.36-9.19-5.52-2.95-12.81-.49-20.61-4,0-7.41,0-10.81,0-130.14.15-260.27.27-390.41.49-13.81.02-26.18-3.33-36.26-17.48h447.36c.2-4.05-.17-7.18.6-9.91,1.08-3.84,2.23-8.73,4.82-10.63,1.99-1.46,8.06-.11,9.08,1.99,1.59,3.28.68,8.26.35,12.48-.12,1.54-1.61,2.94-3.3,5.8,12.96,0,24.95,0,36.93,0,7.85,0,15.7-.26,23.54.1,11.43.52,19.67,9.26,19.99,20.63.26,9.37-3.78,14.85-12.07,14.02-5.99-.6-11.79-3.59-18.5-6.1-1.74-1.4-2.65-2.21-3.69-3.65-2.63-3.08-5.05-7.5-7.62-7.61-15.58-.66-31.19-.33-47.61-.33,0,3.43,0,6.04-.01,9.29.08,1.49.16,2.33.25,3.18h0Z"/><path class="cls-2" d="m695.35,709.27c-3.76,4.75-7.63,6.49-12.08-.2.06-1.61.41-2.46,1.07-3.81,4.37-4.45,7.69-2.15,10.85,1.59.03,1.13.09,1.78.15,2.43h0Z"/><path class="cls-2" d="m684.03,705.74c-.35.85-.69,1.71-1.26,2.96-7.29.54-14.35.68-22.15.88-.83-.78-.92-1.63-.24-3.04,8.4-.64,16.03-.72,23.66-.8h0Z"/><path class="cls-2" d="m696.1,709.36c-.82-.74-.88-1.38-.15-2.64,6.88-.72,12.97-.84,19.05-.96.91.81,1.82,1.61,2.98,2.83-6.88.56-14,.71-21.88.77h0Z"/></g><g><path class="cls-2" d="m121.96,319.44c.05-4.41-5.43-9.35,2.17-12.09.68,1.02.92,1.52.92,1.52,1.81,4.45,2.98,9.25,5.58,13.27,4.67,7.23,13.5,7.45,17.51-.05,4.28-8,6.33-16.99,9.77-25.4,4.67-11.44,9.44-22.86,14.8-34.03,1.44-3,5.17-5.06,7.85-7.56.98.42,1.96.83,2.94,1.25-.45,5.33-.58,10.7-1.42,15.97-1.35,8.44-3.56,16.77-4.72,25.23-2.05,15,2.66,22.4,15.22,25.08,14.36,3.06,28.94-4.07,33.45-16.79,4.12-11.61,3.32-23.47-.36-34.94-2.78-8.69-1.64-16.52,2.71-25.1,7.64,8,8.98,17.41,10.15,26.8,1.28,10.23,1.51,20.61,3.61,30.68,1,4.79,5.26,9.02,8.04,13.5.92-.38,1.85-.77,2.77-1.15-1.13-12.63-2.05-25.29-3.48-37.89-.81-7.17-3.13-14.23-3.48-21.4-.21-4.21,2.12-8.52,3.3-12.78.8-.11,1.6-.21,2.39-.32,5.34,10.78,10.68,21.55,16.03,32.33-.62.34-1.24.68-1.87,1.01-1.97-1.45-3.94-2.91-8.24-6.08,1.96,17.73,3.69,33.44,5.5,49.82,3.8-.58,6.79-.74,9.59-1.51,12.56-3.43,12.95-4.83,9.24-16.37-3.93-12.24-6.12-25-10.79-36.96-2.96-7.59-2.18-13.67,2.34-21.54,5.49,7.75,10.37,14.63,15.25,21.5-.48.45-.97.9-1.45,1.35-1.76-.6-3.51-1.19-6.81-2.31,3.05,8.75,6.53,16.17,8.09,23.92,1.61,7.99,2.56,16.4,1.67,24.43-1.47,13.27-9.42,22.28-25.25,24.07,1.22,9.13,2.37,17.76,3.68,27.6,12.55-5.35,24.32-10.37,37.23-15.88-1,8.36-2.88,16.36,9.4,19.04-2.06-18.53-4.18-36.47-6.02-54.43-1.72-16.77-3.16-33.56-4.69-50.35q-1.3-14.28,4.31-22.09c5.21,11.79,10.07,22.79,14.93,33.8-.68.34-1.35.68-2.03,1.02-2.15-1.72-4.29-3.43-8.09-6.46,3.84,33.73,7.48,65.79,11.19,98.36,14.23-2.5,14.87-17.05,25.23-24.16.54,6.12-6.07,13.04,3.33,16.59,6.04,2.28,11.99,2.93,15.66,1.09.55-8.73.99-15.77,1.52-24.38,9.7,9.6,7.56,32.16-1.79,38.21-5.95,3.85-18.24,2.39-24.42-3.01-1.56-1.36-2.83-3.01-3.92-4.19-4.44,4.68-9.11,9.09-13,14.01-1.32,1.67-1.05,4.67-.9,7.02,1.19,18.58,2.6,37.16-3.05,55.55.76.25.83.17.83.17-1.25-2.09-3.45-4.12-3.61-6.28-1.31-17.5-2.24-35.02-3.27-52.27-17.27-4.27-19.33-6.43-20.18-21.33-8.58,3.89-16.91,7.48-24.99,11.5-1.37.68-2.2,3.18-2.34,4.9-.44,5.25-.08,10.56-.65,15.79-1.81,16.64-9.99,29.74-25.19,39.49-19.06,12.23-37.4,25.59-60.81,30.18-7.66,1.5-15.84,2.61-23.53,1.83-29.34-2.96-43.73-23.91-37.53-53.43.26-1.23.67-2.43,1.78-4.43,1.95-.97,3.13-1.15,4.39-.85-.37,1.23-.82,1.98-1.35,3.44.39,5.54.87,10.36,1.64,15.64,7.28,19.19,27.21,29.33,50.41,24.5,30.59-6.38,56.69-20.67,78.82-41,1.77-1.62,3.5-4.23,3.49-6.37-.06-8.13-.84-16.25-1.35-24.37-1.06-.35-2.13-.7-3.19-1.05-1.73,2.65-3.68,5.19-5.14,7.96-3.88,7.33-5.78,16.35-11.65,21.82-14.06,13.09-31.01,23.06-50.2,29.1-33.06,10.41-53.89-5.02-49.25-36.94,1.7-.57,2.85-.89,4.01-1.2.08.86.16,1.71.11,3.24-.14.67,0,1.15,0,1.15,2.07,14.95,13.76,22.03,24.61,21.42,9.14-.51,19.2-.82,27.03-4.49,15.48-7.24,29.72-16.71,44.42-25.33,4.85-2.85,5.18-6.62,2.12-10.83-13.04-.2-28.77,6.27-35.47-10.05-3.65-8.89,6.19-22.72,16.42-25.99,9.73-3.11,17.53,2.4,26.91,19.39,2.3-.54,4.77-1.12,7.83-1.84-1.16-9.9-2.21-19.36-3.44-28.8-.17-1.33-.94-3.27-2.02-3.71-12.88-5.21-17.65-15.79-21.77-27.94-2.17,5.34-3.25,10.24-5.98,14.19-3.59,5.19-7.61,10.74-12.94,14.19-17.03,11.04-37.18,3.02-41.45-15.66-3.1-13.6,1.13-26.41,4.58-40.39.23-1.95.23-2.86.23-4.76-1.24,1.48-1.83,2.19-2.42,2.89-4.63,12.01-9.18,24.05-13.9,36.03-2.78,7.05-5.15,14.33-8.88,20.95-5.35,9.5-14.29,9.95-21.18,1.23-2.97-3.76-4.46-8.49-6.61-13.79-.28-1.57-.58-2.14-.87-2.7m98.01,45.48c-4.27,3.29-2.91,5.72,1.76,6.6,4.29.81,8.8.68,15.52,1.11-5.73-5.58-8.67-10.74-17.27-7.71h0Z"/><path class="cls-2" d="m825.16,427.2c-2.09-5.08-3.46-10.54-6.39-15.17-9.97-15.72-20.49-31.15-32.24-46.21-1.02,28.04,3.96,55.88-6.82,82.71-.95-19.17-1.87-38.33-2.88-57.5-.59-11.3-1.18-22.6-2.09-33.88-.21-2.59-1.06-5.6-2.78-7.54-8.78-9.9-17.95-19.52-28.33-30.69,1.56,14.88,3.61,28.11,4.19,41.38.85,19.52,1.51,39.11.63,58.61-.61,13.51-9.53,22.61-24.02,26.55-13.11,3.56-22.39.04-28.82-11.04-2.1-3.62-4.18-7.24-7.06-12.22-2.06,7.86-3.63,13.85-5.2,19.83-.73-.06-1.46-.13-2.2-.19v-19.31c-.8-.41-1.6-.83-2.4-1.24-4.53,4.05-9.83,7.6-13.39,12.26-4.34,5.7-7.29,12.31-10.71,18.59-2.32,4.26-4.17,8.75-6.66,12.92-3.43,5.73-6.86,12.26-15.15,12.4-8.64.15-13.7-5.59-17.62-11.9-2.41-3.89-4.27-8.06-6.2-11.77-19.12,6.36-38.16,12.69-57.19,19.02-.35-.72-.7-1.44-1.04-2.15,2.95-1.61,5.89-3.25,8.86-4.84,13.94-7.46,28.03-14.69,41.7-22.55,2.47-1.42,4.25-5.35,4.47-8.25.61-7.9.21-15.87.21-23.81,1.17-.05,2.34-.1,3.51-.15.4,8.1.8,16.2,1.27,25.76,8.8-5.39,15.69-10.94,20.13-19.26-.17-.54-.28-.45-.28-.45,1.03-3.7,3.22-7.48,2.89-11.07-2.18-24.02-4.65-48.02-7.52-71.98-2.63-21.98-5.83-43.91-8.91-65.84-.52-3.69-2.42-7.33-2.3-10.95.16-4.93,1.66-9.83,2.58-14.75.94-.02,1.87-.04,2.81-.06,5.41,10.9,10.82,21.81,16.24,32.71-.62.39-1.23.78-1.85,1.18-2.2-1.35-4.39-2.7-7.96-4.89,2.16,14.01,4.39,26.75,6.04,39.56,3.24,25.17,7.07,50.32,8.88,75.59,1.18,16.42-3.31,32.48-12.47,46.99-2.31,3.66-4.91,7.6-8.48,10.06-7.06,4.87-5.76,9.05-.56,14.02,6.2,5.93,13.98,7.22,19.6,2.39,2.93-2.52,5.25-5.8,7.21-9.06,5.02-8.35,9.27-17.11,14.65-25.25,3.49-5.29,7.75-10.55,12.92-14.39,4.16-3.09,5.68-5.77,5.25-10.49-3.68-39.83-7.04-79.69-10.76-119.52-.76-8.18-3.31-16.24-3.74-24.42-.23-4.37,2.31-8.86,3.6-13.3l2.41-.13c5.54,10.84,11.08,21.67,16.62,32.51-.64.38-1.27.76-1.91,1.14-2.23-1.5-4.46-3-8.56-5.75,1.55,15.3,3.17,28.87,4.26,42.47,2.37,29.58,3.64,59.27,7.11,88.74,1.27,10.83,8.26,21.51,19.19,26.83,11.29,5.49,22.5.7,31.81-6.33,2.03-1.53,3.29-5.23,3.06-7.79-3.3-35.82-6.9-71.62-10.56-107.42-.19-1.85-1.2-3.82-2.4-5.35-10.04-12.87-19.55-26.18-30.65-38.25-5.36-5.83-8.68-10.86-6.08-19.34,10.74,6.76,21.06,13.26,31.38,19.76-.32.58-.65,1.17-.97,1.75-2.83-.27-5.65-.53-10.52-.99,5.55,7.24,10.33,13.48,15.11,19.71.65-.19,1.29-.38,1.94-.57-.67-7.52.1-15.47-2.42-22.42-2.63-7.28.08-12.46,3.74-20.43,6.13,12.29,11.42,22.89,16.71,33.5-.59.34-1.18.68-1.78,1.01-2-1.5-4-3.01-7.45-5.6,1.25,13.09-2.34,25.49,8.3,35.93,8.21,8.06,15.66,16.77,25.23,25.03-.27-4.46-.44-8.93-.84-13.38-1.58-17.54-3.23-35.07-4.87-52.61q-1.54-16.34,2.85-22.97c5.52,11.21,10.63,21.61,15.75,32.02-.62.35-1.24.69-1.86,1.04-1.98-1.46-3.96-2.91-7.88-5.79,1.21,12.63,2.12,23.46,3.31,34.26,1.23,11.25,3.2,22.46,3.91,33.74.39,6.16,2.92,10.67,6.83,15.48,10.28,12.67,20.35,25.55,29.43,38.96,6.8,10.03,9.19,21.45,6.36,34.03-.19.66-.16.77-.16.77h0Z"/><path class="cls-2" d="m297.83,464.2c-1.92.35-3.84.7-6.94.81-2.31.09-3.45.4-4.58.72-2.35.45-4.71.89-8.01,1.01-1.79-1.49-2.64-2.64-3.48-3.8,16.6-5.76,33.19-11.52,49.66-17.9-.12-.62-.19-.55-.22-.52,1.14.07,2.56.52,3.46.08,25.58-12.49,51.1-25.08,76.64-37.64,7.34-3.6,7.95-8.01,3.83-14.68-6.72-10.88-12.99-22.09-18.09-33.66-1.79-4.06.41-9.6.94-16.48,7.88,6.79,14.09,12.14,21.79,18.79h-9.95c3.48,5.94,6.49,11.14,9.55,16.32,10.36,17.53,6.91,33.68-11.03,44.76-15.82,9.77-32.53,18.32-49.27,27.64,2.05,7.19,8.58,9.15,15.65,8.24,6.92-.89,14.57-2.17,20.17-5.63,15.83-9.77,30.88-20.62,46.03-31.29,6.31-4.44,7.66-10.35,4.9-17.39-5.64-14.39-10.28-29.14-16.53-43.31-3.68-8.34-5.44-16.16-1.12-26.2,10.23,11.48,16.18,24.11,20.07,37.41,3.9,13.36,6.46,27.06,10.11,40.91,1.79-15.54,14.77-22.11,27.13-28.9,10.54-5.79,21.49-10.95,32.69-16.61-6.79-7.16-5.29-15-1.24-22.81,2.71-5.23,7.91-8.23,13.42-5.62,8.38,3.96,16.44,8.89,23.53,14.58,4.77,3.83-.83,17.55-7.05,19.38-1.56.46-3.12.99-4.72,1.29-6.39,1.21-12.09,3.04-11.43,12.8-2.15-3.8-3.15-5.57-4.93-8.72-14.47,6.52-28.74,12.94-43.02,19.37.23,1.07.47,2.14.7,3.21,33.56-1.27,67.12-2.54,100.95-3.82-1.73,7.84-5.06,13.79-13.98,16.62-16.27,5.16-32.37,10.81-48.37,16.64-9.52,3.47-18.72,7.68-28.51,11.74,5.6,10.45,15.02,11.66,24.7,14.13,1.09.76,1.46,1.01,1.9,1.16.11.24.22.48.23,1.56-.02,1.13.07,1.43.15,1.72.43,2.56.85,5.11.91,8.55-.62,1.69-.87,2.51-1.13,3.32-16.25-.5-31.28-4.38-44.48-13.39-15.21-10.37-23.09-24.46-24.54-40.79-14.31,28.36-41.03,43.98-71.6,54.54-15.66,5.41-22.93-.89-26.86-19.13-14.05,3.48-28.12,6.96-43.43,10.23-2.37.1-3.51.43-4.64.75m173.65-49.36h-20.3c1.72,15.26,16.3,31.29,30.78,34.32.79-9.29,2.9-18.26,12.59-23.19,8.56-4.35,17.62-7.86,25.1-11.15-14.78,0-30.65,0-48.17,0m57.26-53.1c1.37-.62,2.74-1.25,4.27-1.95-10.05-7.98-14.68-8.83-21.71-3.7,2.46,2.87,4.93,5.75,7.48,8.73,3.2-1.03,5.99-1.92,9.95-3.08h0Z"/><path class="cls-2" d="m331.77,281.9c.71,7.63.96,15.33,2.23,22.89,1.79,10.68,7.02,17.4,13.3,16.98,9.65-.66,11.42-8.53,13.87-14.97,4.49-11.83,7.57-24.14,12.59-35.76,2.98-6.88,8.55-12.81,12.96-19.17,1.37.38,2.75.75,4.12,1.13,0,4.13.55,8.33-.11,12.36-1.63,9.92-4.77,19.69-5.57,29.64-1.45,18.06,14.59,27.52,32.72,19.91,9.41-3.95,15.81-10.69,16.33-20.14.55-9.92.44-20.17-1.69-29.84-1.95-8.87-1.5-16.76,2.83-25.19,8.4,8.46,9.24,19.02,10.5,29.35.94,7.74.95,15.58,1.93,23.31,2.27,17.89,19.9,26.97,37.25,19.47,3.56-1.54,5.61-2.91,4.14-7.34-5.41-16.26-10.71-32.57-14.99-49.1-1.12-4.35,1.6-9.53,4.66-14.8,4.98,6.89,9.97,13.79,15.89,21.97-2.87-.26-3.83-.23-4.72-.46-.97-.25-1.88-.74-3.23-1.3.09,1.49-.06,2.52.25,3.43,2.37,6.94,4.59,13.93,7.33,20.74,3.87,9.65,3.51,19.17.11,28.8-6.56,18.59-28.53,23.74-43.24,9.41-5.9-5.75-9.32-13.65-13.58-20.13-1.32,3.3-2.3,8.24-5.09,12.06-4.02,5.5-8.44,11.48-14.31,14.98-17.8,10.64-38.13,1.61-39.48-17.81-.72-10.32,1.98-20.85,3.28-31.27.32-2.57,1.21-5.08,1.84-7.62-.84-.25-1.68-.5-2.52-.75-3.71,9.03-7.49,18.03-11.1,27.1-3.74,9.41-6.55,19.2-11.16,28.22-5.58,10.92-16.15,11.19-22.99.75-9.4-14.35-9.82-29.97-5.28-46.32.59-.4.93-.51.93-.51h0Z"/><path class="cls-2" d="m625.41,405.48c-9.16-18.04-24.25-31.89-39.46-48.02,2.39,30.41,9.57,58.96,1.41,87.4-.72.02-1.44.03-2.15.05-.85-11.1-1.41-22.23-2.61-33.31-2.14-19.75-4.47-39.49-7.22-59.18-.47-3.39-2.8-7-5.34-9.63-21.62-22.35-43.2-44.75-65.49-66.53-5.95-5.81-9.21-11.16-6.62-19.95,10.63,6.61,20.84,12.95,31.05,19.3-.24.51-.47,1.01-.71,1.52h-8.25c-.48.55-.97,1.1-1.45,1.65,17.04,16.26,34.08,32.52,51.12,48.78.63-.32,1.27-.64,1.9-.96-1.8-14.05-4.94-28.1-5-42.16-.06-13.5-9.94-27.17,1.24-42.12,5.65,11.87,10.85,22.78,16.05,33.69-.66.33-1.32.67-1.97,1-2.19-1.56-4.38-3.12-8.32-5.93,2.24,16.1,5.24,30.37,5.96,44.73.85,16.81,8.61,29.28,21.07,41.33,10.69,10.34,17.98,23.64,26.67,36.74.51,3.11,1.11,5.11,1.72,7.11.36,1.11.72,2.23.43,3.92-1.77.58-2.89.57-4.02.57h0Z"/><path class="cls-2" d="m825.06,427.14c1.49-2.1,4.35-4.24,4.35-6.39.03-16.79.39-33.65-1.02-50.37-2.95-35.06-6.66-70.08-10.69-105.05-.88-7.62-4.21-14.97,3.95-22.12,5.57,10.48,11.01,20.72,16.45,30.96-.77.44-1.54.87-2.31,1.31-1.98-1.44-3.95-2.88-7.81-5.7.87,8.98,1.63,16.24,2.27,23.52,3.06,35.02,6.55,70.02,8.78,105.09.54,8.49-2.23,17.47-5.1,25.75-6.91,20.01-20.98,33.74-43.98,38.75-12.3,2.68-24.55,5.58-36.82,8.38-.28-.76-.57-1.52-.85-2.28,6.7-3.08,13.51-5.97,20.07-9.28,14.6-7.36,29.24-14.67,43.49-22.57,4.23-2.35,7.22-6.58,10.04-9.95-.73,0-.77-.1-.82-.05h0Z"/><path class="cls-2" d="m144.8,400.56c-1.32.8-2.47,1.11-4.24,1.09,1.41-6.86,3.42-13.39,5.44-19.91-.58-.49-1.16-.97-1.75-1.46-2.77,2.51-6.63,4.59-8.09,7.63-3.25,6.78-5.29,14.05-7.83,21.12-1.18.18-2.37.36-4.11.76,1.74-6.69,4.04-13.6,6.46-20.88h-6.41c-.08-.31-.28-.72-.2-.77,14.77-9.58,29.55-19.13,45.03-29.13-3.23-2.28-5.67-3.15-6.45-4.72-1.51-3.07-3.96-7.56-2.63-9.58,2.28-3.45,7.17-5.45,10.97-8.05,1.68,2.74,4.35,5.34,4.79,8.24.65,4.24-3.54,9.17,3.13,12.5.93.46-.2,4.39-.46,7.83-3.15-2.27-5.14-3.71-7.31-5.27-13.11,11.19-24.42,23.02-26.37,40.61h0Z"/><path class="cls-2" d="m120.72,297c1.25-14.78,5.48-28.08,22.23-35.43-8.35-5.82-1.27-11.38-1.07-16.9.01-.43,2.26-1.2,3.39-1.11,5.53.45,14.87,10.01,14.08,14.87-.27,1.71-3.52,4.68-4.13,4.43-8.88-3.65-12.72,3.61-18.31,6.83-2.43,1.4-4.49,3.35-6.16,6.62,3.03-.28,6.14-.29,9.09-.93,3.09-.67,6.03-1.93,9.26-2.36-5.4,7.05-13.34,8.12-22.84,7.74-.47,4.96-.94,9.88-2.22,15.47-1.65.7-2.49.73-3.33.76h0Z"/><path class="cls-2" d="m287.87,394.94c1.76-2.76,3.29-5.04,4.83-7.31.57.25,1.14.5,1.7.75-2.34,5.21-4.9,10.35-6.96,15.66-2.36,6.09-5.31,12.23-5.97,18.53-.34,3.3,3.68,6.98,5.74,10.49,2.48-2.14,4.95-4.29,7.43-6.42.54-.47,1.15-.87,2.7-2.02-.35,9.06-3.7,15.81-10.53,20.8-4.49,3.28-10.68,1.54-12.19-4.29-1.51-5.84-2.12-12.7-.22-18.28,3.21-9.48,8.7-18.31,13.47-27.89h0Z"/><path class="cls-2" d="m465.33,362.18c-.14-6.03-.49-11.47-.98-18.91,7.17,6.91,1.88,18.61,14.82,19.92-1.57-6.68-3.01-12.81-4.45-18.94.84-.2,1.67-.4,2.51-.59,1.81,4.12,4.67,8.14,5.14,12.39.47,4.24-.35,9.38-2.83,12.75-1.09,1.48-7.68-.44-12.77-.9-1.72,2.57-5.19,7.67-10.95,4.2-6.17-3.71-5.19-10.29-4.13-16.15q7.4,12,13.63,6.23h0Z"/><path class="cls-2" d="m670.4,474.81c1.76-1.91,3.2-3.39,4.64-4.88-9.77-8.27-5.18-19.21,11.94-25.55v12.11c-6.4-8.16-9.59-2.32-13.24.96,6.78,8.07,9.13,8.07,24.57.13-.69,7.47-5.54,11.08-29.15,21.5.37-1.55.64-2.7,1.23-4.27h0Z"/><path class="cls-2" d="m754.46,432.14c2.51.03,6.31.25,6.34.7.23,3.1-.33,6.24-.84,11.4-6.53-9.34-9.52-4.26-13.07-1.03,6.55,7.64,7.45,7.65,26.46-.02-6.89,12.84-20.95,14.55-29.91,22.15-.54-.41-1.09-.81-1.63-1.22,1.99-2.91,3.99-5.82,6.02-8.78-8.45-7.05-8.54-8.36-.33-17.17,1.94-2.08,4.32-3.83,6.96-6.03h0Z"/><path class="cls-2" d="m274.18,462.93c1.48,1.17,2.32,2.33,3.52,3.78-5.54,1.34-11.42,2.52-17.34,3.36-5.24.75-9.95,1.58-12.62,6.78-.8,1.56-5.06,3.13-6.67,2.48-2.3-.93-4.76-3.73-5.17-6.03-1.64-9.05,1.49-17.17,7.24-24.56,2.21-2.85,4.06-5.94,5.55-9.19-8.59,8.18-9.4,26.51-1.5,30.91.75-.9,1.59-1.79,2.28-2.78.57-.81.95-1.72,1.47-2.71q2.87,4.3,23.24-2.03h0Z"/><path class="cls-2" d="m140.04,349.89c5.28.46,9.85.92,14.46,1.39-2.48,12.12-12.91,20.15-24.58,18.89,4.23-2.25,8.04-4.28,11.85-6.31-.08-.45-.17-.9-.25-1.36h-17.87c2.13-8.63,6.26-13.44,16.38-12.61h0Z"/><path class="cls-2" d="m542.12,253.76c-7.43,8.21-8.88,8.81-18.74,7.75,4.3-2.31,8.18-4.39,12.05-6.46-.09-.46-.17-.92-.26-1.38h-17.53c3.79-13.3,10.22-15.39,31.8-10.23-2.49,3.54-4.72,6.72-7.33,10.32h0Z"/><path class="cls-2" d="m709.06,327.37c2.38-2.02,4.11-4.08,6.1-6.44.3.7.77,1.26.74,1.8-.52,8.97-6.17,16.84-11.48,16.05-5.78-.86-9.62-8.95-7.02-18.04,2.74-9.58,6.96-18.81,10.01-26.83.83-.63-.67-.07-.83.73-1.21,6.11-2.18,12.26-3.2,18.4-.92,5.53-2.14,11.16,5.68,14.33h0Z"/><path class="cls-2" d="m209.77,282.13c-.89,2.68-1.57,4.74-2.25,6.79-.53-.03-1.05-.05-1.58-.08,0-1.72-.2-3.47.03-5.16,1.39-10.21-2.05-19.1-9.99-26-4.9-4.26-4.36-7.94-1.64-12.49,13.2,6.95,18.12,18.46,15.42,36.93h0Z"/><path class="cls-2" d="m510.44,319.46c-7.12-6.7-7.47-12.26-.58-17.44,1.84-1.39,6.03-2.76,7-1.95,1.8,1.48,2.64,4.56,2.71,7.01.07,2.33-1.34,4.7-2.15,7.2q8.7,7.15,5.9,12.54c-3.36-1.77-6.72-3.54-10.82-5.59-1.18-.77-1.62-1.26-2.05-1.75h0Z"/><path class="cls-2" d="m410.23,263.57c-2.61-2.97-4.38-6.08-7.18-7.85-5.5-3.49-5.32-7.42-2.78-12.18,16.39,8.87,22.25,26.83,15.99,44.95-1.65-7.1-3.66-15.78-6.04-24.91h0Z"/><path class="cls-2" d="m802.47,315.55c6.54,9.36,8.14,19.02,6.89,29.14-.78.15-1.55.3-2.33.44-.31-2.16-.03-4.6-1.04-6.43-3.62-6.58-6.55-13.92-11.9-19.11-4.75-4.61-5.7-8.35-.84-16.13,2.95,3.88,5.89,7.77,9.21,12.09h0Z"/><path class="cls-2" d="m796.21,251.72c-4.65.15-8.63.31-12.71.48,3.11-9.59,11.24-12.12,24.02-7.73-4.45,12.42-9.44,16.53-21.19,17.28,4.01-3.2,7.92-6.32,11.83-9.44-.16-.14-.3-.32-.48-.4-.24-.1-.53-.12-1.46-.19h0Z"/><path class="cls-2" d="m598.04,256.87c-4.06,1.64-7.68,2.92-11.3,4.19-.22-.49-.43-.98-.65-1.47,3.15-1.82,6.29-3.65,11.51-6.67-6.28-.52-10.53-.88-14.78-1.23,2.86-9.95,8.8-11.81,25.35-7-3.42,4.17-6.56,7.99-10.13,12.18h0Z"/><path class="cls-2" d="m179.29,399.27c.42,4.65.83,9.3,1.25,13.95-.91.13-1.82.26-2.74.39-.87-2.01-1.82-3.98-2.58-6.02-2.41-6.41-3.61-12.6-13.34-14.67-8.1-1.72-1.85-7.23-.39-11.57,10.8,2.5,13.08,10.87,17.26,18.01.56-.18.53-.09.53-.09h0Z"/><path class="cls-2" d="m720.13,401.45c-.62,1.66-1.04,2.79-1.45,3.91-.4,0-.8,0-1.21-.01,0-4.98,1.28-10.34-.32-14.85-2.11-5.97-6.48-11.27-9.85-16.87-2.1-3.48-4.15-6.97-5.3-10.92,14.7,3.7,20.87,17.73,18.13,38.74h0Z"/><path class="cls-2" d="m602.66,332.25c2.88-.83,5.25-2.09,7.77-3.43-.35-.49.12-.14.09.18-.46,5.77-.42,12.24-8.56,13.37-4.7.65-8.14-6.27-6.75-14.17,1.17-6.61,3.41-13.06,5.63-21.28.5,9.6.9,17.25,1.81,25.33h0Z"/><path class="cls-2" d="m665.83,387.23c1.73,4.47-.73,11.88-4.8,12.85-2.14.51-6.43-.83-7.22-2.4-1.61-3.23-2.76-7.45-1.89-10.76,2.2-8.34,5.64-16.41,8.58-24.59.75.22,1.5.44,2.25.66-1.66,4.92-3.6,9.78-4.88,14.78-.79,3.08-1.08,6.44-.61,9.55.24,1.55,2.69,2.82,4.13,4.21,1.33-1.33,2.66-2.65,4.43-4.31h0Z"/><path class="cls-2" d="m354.79,419.71c-7.77-4.56-6.6-10.93-5.16-17.05.92-3.91,2.92-7.61,4.43-11.41.69.18,1.39.36,2.08.54-.66,3.28-2.13,6.65-1.73,9.81.35,2.83,2.76,5.45,4.27,8.16,2.08-1.46,4.16-2.91,5.91-4.14,1.06,6.71-3,13.43-9.8,14.09h0Z"/><path class="cls-2" d="m655.16,250.06c-3.62,6.15-7.93,10.24-16.52,8.64,3.54-2.07,6.64-3.89,11.56-6.78-6.59-.28-11.01-.47-15.47-.66,3.35-9.91,8.36-11.54,23.99-7.45-1.15,2.02-2.21,3.88-3.57,6.25h0Z"/><path class="cls-2" d="m513.2,472.49c.43-1.3.68-2.12,1.23-3.25.79.5,1.29,1.33,1.79,2.16,11.22-6.77,24.28-11.56,31.01-23.53.62.67.71,1.12.81,1.57-3.78,5.03-6.66,11.02-11.54,14.88-9.67,7.67-20.93,13.23-34.27,14.4,3.6-1.92,7.2-3.83,10.98-6.24h0Z"/><path class="cls-2" d="m355.87,259.12c-11.24-6.29.29-11.83.28-17.75.73-.41,1.47-.83,2.2-1.24,3.4,4.35,7.15,8.52,10,13.16.91,1.48.17,5.31-1.15,6.06-1.69.95-4.74-.14-8.32-.34-1.74.04-2.37.07-3,.1h0Z"/><path class="cls-2" d="m437.63,448.26c.82-.81,1.29-1.38,2.18-2.45-5.14,3.42-8.85,14.48-5.64,17.72,1.35,1.37,5.31.57,9.11.83-.73-1.51-.49-1.25-.54-1.06-1.97,7.31-7.93,13.05-11.76,10.94-6.71-3.7-5.1-9.72-2.68-14.69,1.99-4.09,5.91-7.39,9.32-11.29h0Z"/><path class="cls-2" d="m652.94,319.69c2.46.38,4.45.38,6.8.38.46,4.92-1.55,9.66-7.01,9.56-2.55-.05-7.21-5.88-7.01-8.86.52-7.55,3.24-14.98,6.75-22.19,0,6.91,0,13.82.48,21.11h0Z"/><path class="cls-2" d="m589.12,285.54c1.31,2.49,2.57,4.36,3.82,6.22,1.07-1.3,2.74-2.49,3.06-3.93.52-2.31.14-4.78.14-8.76,2.64,4.54,4.5,7.72,6.35,10.91.69-.31,1.38-.61,2.06-.92-.78-3.52-1.57-7.05-2.35-10.57l2.17-.6c1.28,3.36,3.46,6.71,3.53,10.09.05,2.26-2.92,4.57-4.53,6.85-3.53-6.57-15.97,10.25-16.11-5.16-.02-2.04.16-4.08.25-6.12.27.05.65.02.78.17.31.35.51.79.82,1.83h0Z"/><path class="cls-2" d="m548.64,449.42c-.7-.44-.79-.89-1.08-2.01.55-2.21.92-4.05,2.1-5.23,2.02-2.02,4.43-4.82,6.88-4.99,1.73-.12,4.54,3.27,5.48,5.58.95,2.32,1.24,5.97-.16,7.63-1.09,1.29-5.24.61-8,.44-1.57-.1-3.08-.93-5.22-1.41h0Z"/><path class="cls-2" d="m555.97,381.22c.28-6.03.74-11.51,1.2-16.98q5.11,12.63,12.44,13.31c-2.88,3.18-4.76,6-7.46,7.76-.72.47-3.94-2.27-6.18-4.09h0Z"/><path class="cls-2" d="m454.35,261.63c0-1.13-.34-1.72-.69-2.31-.51.39-1.01.79-1.52,1.18,1.05.97,2.44,2.9,3.07,2.71,1.47-.45,3.37-1.76,3.65-3,.57-2.46.17-5.12.17-9.63,2.37,5.25,3.83,8.48,5.29,11.72.65-.23,1.3-.46,1.95-.69l-1.59-8.76c.73-.16,1.46-.32,2.19-.48.78,3.26,2.23,6.55,2.05,9.77-.08,1.5-3.1,3.3-5.18,4.15-2.05.84-4.6.92-6.92.85-1.67-.05-3.3-.87-4.96-1.35.71-1.21,1.42-2.42,2.48-4.17h0Z"/><path class="cls-2" d="m189.4,375.98c6.95,2.05,8.6,5.89,5.26,12.09-5.78-6.7-9.41-4.28-11.34,4.36-.85-1.02-1.7-2.04-2.55-3.06,2.69-4.42,5.38-8.85,8.64-13.39h0Z"/><path class="cls-2" d="m510.13,319.9c.74.06,1.18.55,1.82,1.48-6.45,9.22-14.69,16.3-22.13,19.91,5.38-5.64,12.69-13.3,20.3-21.38h0Z"/><path class="cls-2" d="m355.43,259.42c1.09-.33,1.71-.36,2.81-.38-6.38,5.24-13.26,10.44-20.08,15.7-2.44,1.88-4.76,3.9-6.75,6.5.38.64.04.75,0,.7,2.32-3.51,4.07-7.54,7.17-10.29,5-4.42,10.88-8,16.86-12.24h0Z"/><path class="cls-2" d="m625.39,406.07c1.13-.59,2.25-.59,3.93-.58.67,3.49.77,6.98,1.1,11.05.22.58.33.49.38.42-1.77-3.47-3.59-6.88-5.41-10.89Z"/><path class="cls-2" d="m120.51,298.04c1.06-1.07,1.9-1.1,3.36-1.16.72,1.1.81,2.23.51,4.66-.11,2.31.16,3.3.44,4.3-8.62,1.75-3.06-4.49-4.31-7.81h0Z"/><path class="cls-2" d="m629.06,400.45c-.69-1.47-1.29-3.47-1.82-6.05.69,1.46,1.29,3.49,1.82,6.05Z"/><path class="cls-2" d="m124.95,305.57c-.4-.72-.67-1.72-.68-3.47.45.56.63,1.87.68,3.47Z"/><path class="cls-2" d="m179.32,399.14c.36.15.69.34,1.03.53,0-.4.01-.8.02-1.2-.44.08-.88.16-1.2.53.11.29.14.19.16.15h0Z"/><path class="cls-2" d="m298.42,464.28c.54-.41,1.67-.73,3.4-.88-.54.44-1.67.7-3.4.88Z"/><path class="cls-2" d="m286.9,465.81c.55-.4,1.68-.72,3.41-.86-.55.44-1.69.69-3.41.86Z"/><path class="cls-2" d="m513.25,456.44c-.48.25-.85,0-1.33-.6.33-.12.85.04,1.33.6Z"/><path class="cls-2" d="m513.76,459.91c-.26-.09-.34-.38-.38-1.13.21,0,.38.47.38,1.13Z"/><path class="cls-2" d="m124.88,308.11c.45-.11.59.21.33.72-.15.05-.4-.45-.33-.72Z"/><path class="cls-2" d="m121.89,319.91c.36.08.66.65.9,1.68-.36-.09-.66-.65-.9-1.68Z"/><path class="cls-2" d="m144.9,405.33c-.15.09-.29-.39-.25-.64.38-.1.5.17.25.64Z"/><path class="cls-2" d="m127.06,412.95c.55,4.13,1.01,8.97,1.4,14.5-.54-4.14-1.02-8.96-1.4-14.5Z"/><path class="cls-2" d="m173.89,278.14c.11-1.14.7-1.85,1.94-3.33,0,1.9,0,2.81-.22,4.16-.56.16-.89-.12-1.72-.83h0Z"/></g></g><circle class="cls-4" cx="479.47" cy="479.47" r="479.47"/></g></g></g></g></g></svg>