<?xml version="1.0" encoding="UTF-8"?><svg xmlns="http://www.w3.org/2000/svg" xmlns:xlink="http://www.w3.org/1999/xlink" viewBox="0 0 958.95 958.95"><defs><style>.cls-1{fill:#fff;}.cls-2{isolation:isolate;}.cls-3{fill:url(#radial-gradient);mix-blend-mode:multiply;opacity:.3;}.cls-4{clip-path:url(#clippath);}.cls-5{fill:none;}.cls-6{fill:#ed2939;}</style><clipPath id="clippath"><circle class="cls-5" cx="479.47" cy="479.47" r="479.47"/></clipPath><radialGradient id="radial-gradient" cx="479.47" cy="479.47" fx="479.47" fy="479.47" r="479.47" gradientUnits="userSpaceOnUse"><stop offset="0" stop-color="#fff"/><stop offset=".36" stop-color="#fdfdfd"/><stop offset=".48" stop-color="#f6f6f6"/><stop offset=".58" stop-color="#eaeaea"/><stop offset=".65" stop-color="#d9d9d9"/><stop offset=".71" stop-color="#c3c3c3"/><stop offset=".77" stop-color="#a8a8a8"/><stop offset=".82" stop-color="#878787"/><stop offset=".87" stop-color="#626262"/><stop offset=".91" stop-color="#373737"/><stop offset=".95" stop-color="#090909"/><stop offset=".96" stop-color="#000"/></radialGradient></defs><g class="cls-2"><g id="Layer_2"><g id="Layer_1-2"><g id="Singapore"><g class="cls-4"><g><rect class="cls-6" width="1438.99" height="479.47"/><rect class="cls-1" y="479.47" width="1438.99" height="479.47"/><path class="cls-1" d="m344.39,412.64c-12.48,2.82-25.44,4.27-38.8,4.27-97.84,0-177.14-79.34-177.14-177.18S207.75,62.59,305.6,62.59c13.3,0,26.27,1.46,38.75,4.22-77.79,19.08-135.47,89.25-135.47,172.91s57.69,153.88,135.52,172.91Z"/><polygon class="cls-1" points="304.38 162.12 314.71 193.9 348.14 193.9 321.1 213.55 331.42 245.34 304.38 225.69 277.34 245.34 287.67 213.55 260.63 193.9 294.06 193.9 304.38 162.12"/><polygon class="cls-1" points="496.62 162.12 486.3 193.9 452.87 193.9 479.91 213.55 469.58 245.34 496.62 225.69 523.66 245.34 513.34 213.55 540.38 193.9 506.95 193.9 496.62 162.12"/><polygon class="cls-1" points="400.5 92.49 410.83 124.28 444.26 124.28 417.22 143.93 427.54 175.71 400.5 156.07 373.46 175.71 383.79 143.93 356.75 124.28 390.18 124.28 400.5 92.49"/><polygon class="cls-1" points="340.8 275.84 351.13 307.63 384.55 307.63 357.51 327.28 367.84 359.07 340.8 339.42 313.76 359.07 324.09 327.28 297.05 307.63 330.47 307.63 340.8 275.84"/><polygon class="cls-1" points="459.65 275.84 469.98 307.63 503.4 307.63 476.36 327.28 486.69 359.07 459.65 339.42 432.61 359.07 442.94 327.28 415.9 307.63 449.32 307.63 459.65 275.84"/></g><circle class="cls-3" cx="479.47" cy="479.47" r="479.47"/></g></g></g></g></g></svg>