<?xml version="1.0" encoding="UTF-8"?><svg xmlns="http://www.w3.org/2000/svg" xmlns:xlink="http://www.w3.org/1999/xlink" viewBox="0 0 958.95 958.95"><defs><style>.cls-1{fill:#fff;}.cls-2{isolation:isolate;}.cls-3{fill:#ce1126;}.cls-4{fill:url(#radial-gradient);mix-blend-mode:multiply;opacity:.3;}.cls-5{clip-path:url(#clippath);}.cls-6{fill:none;}.cls-7{fill:#007a3d;}</style><clipPath id="clippath"><circle class="cls-6" cx="479.47" cy="479.47" r="479.47"/></clipPath><radialGradient id="radial-gradient" cx="479.47" cy="479.47" fx="479.47" fy="479.47" r="479.47" gradientUnits="userSpaceOnUse"><stop offset="0" stop-color="#fff"/><stop offset=".36" stop-color="#fdfdfd"/><stop offset=".48" stop-color="#f6f6f6"/><stop offset=".58" stop-color="#eaeaea"/><stop offset=".65" stop-color="#d9d9d9"/><stop offset=".71" stop-color="#c3c3c3"/><stop offset=".77" stop-color="#a8a8a8"/><stop offset=".82" stop-color="#878787"/><stop offset=".87" stop-color="#626262"/><stop offset=".91" stop-color="#373737"/><stop offset=".95" stop-color="#090909"/><stop offset=".96" stop-color="#000"/></radialGradient></defs><g class="cls-2"><g id="Layer_2"><g id="Layer_1-2"><g id="Syria"><g class="cls-5"><g><rect x="-240.41" y="639.3" width="1439.77" height="319.65"/><rect class="cls-1" x="-240.41" y="319.65" width="1439.77" height="319.65"/><rect class="cls-3" x="-240.41" width="1439.77" height="319.65"/><g><polygon class="cls-7" points="239.64 360.08 269.34 451.49 365.45 451.49 287.7 507.98 317.4 599.39 239.64 542.9 161.88 599.39 191.58 507.98 113.82 451.49 209.94 451.49 239.64 360.08"/><polygon class="cls-7" points="719.31 360.08 749.01 451.49 845.12 451.49 767.37 507.98 797.07 599.39 719.31 542.9 641.55 599.39 671.25 507.98 593.49 451.49 689.61 451.49 719.31 360.08"/></g></g><circle class="cls-4" cx="479.47" cy="479.47" r="479.47"/></g></g></g></g></g></svg>