<?xml version="1.0" encoding="UTF-8"?><svg xmlns="http://www.w3.org/2000/svg" xmlns:xlink="http://www.w3.org/1999/xlink" viewBox="0 0 958.95 958.95"><defs><style>.cls-1{fill:#f8c300;}.cls-2{fill:#fff;}.cls-3{isolation:isolate;}.cls-4{fill:#c00;}.cls-5{fill:url(#radial-gradient);mix-blend-mode:multiply;opacity:.3;}.cls-6{clip-path:url(#clippath);}.cls-7{fill:none;}.cls-8{fill:#060;}</style><clipPath id="clippath"><circle class="cls-7" cx="479.47" cy="479.47" r="479.47"/></clipPath><radialGradient id="radial-gradient" cx="479.47" cy="479.47" fx="479.47" fy="479.47" r="479.47" gradientUnits="userSpaceOnUse"><stop offset="0" stop-color="#fff"/><stop offset=".36" stop-color="#fdfdfd"/><stop offset=".48" stop-color="#f6f6f6"/><stop offset=".58" stop-color="#eaeaea"/><stop offset=".65" stop-color="#d9d9d9"/><stop offset=".71" stop-color="#c3c3c3"/><stop offset=".77" stop-color="#a8a8a8"/><stop offset=".82" stop-color="#878787"/><stop offset=".87" stop-color="#626262"/><stop offset=".91" stop-color="#373737"/><stop offset=".95" stop-color="#090909"/><stop offset=".96" stop-color="#000"/></radialGradient></defs><g class="cls-3"><g id="Layer_2"><g id="Layer_1-2"><g id="Tajikistan"><g class="cls-6"><g><rect class="cls-2" x="-479.47" width="1917.9" height="958.95"/><rect class="cls-4" x="-479.47" width="1917.9" height="273.88"/><rect class="cls-8" x="-479.47" y="685.06" width="1917.9" height="273.88"/><polygon class="cls-1" points="287.75 486.24 295.32 509.55 319.83 509.55 300 523.96 307.57 547.27 287.75 532.86 267.92 547.27 275.49 523.96 255.67 509.55 280.17 509.55 287.75 486.24"/><polygon class="cls-1" points="313.3 390.25 320.87 413.55 345.38 413.55 325.55 427.96 333.12 451.27 313.3 436.86 293.47 451.27 301.04 427.96 281.21 413.55 305.72 413.55 313.3 390.25"/><polygon class="cls-1" points="384 319.54 391.58 342.85 416.08 342.85 396.26 357.25 403.83 380.56 384 366.15 364.18 380.56 371.75 357.25 351.92 342.85 376.43 342.85 384 319.54"/><polygon class="cls-1" points="671.2 486.24 663.63 509.55 639.12 509.55 658.95 523.96 651.37 547.27 671.2 532.86 691.03 547.27 683.46 523.96 703.28 509.55 678.77 509.55 671.2 486.24"/><polygon class="cls-1" points="645.65 390.25 638.08 413.55 613.57 413.55 633.4 427.96 625.83 451.27 645.65 436.86 665.48 451.27 657.91 427.96 677.73 413.55 653.23 413.55 645.65 390.25"/><polygon class="cls-1" points="574.95 319.54 567.37 342.85 542.86 342.85 562.69 357.25 555.12 380.56 574.95 366.15 594.77 380.56 587.2 357.25 607.03 342.85 582.52 342.85 574.95 319.54"/><polygon class="cls-1" points="479.47 293.99 487.05 317.3 511.56 317.3 491.73 331.7 499.3 355.01 479.47 340.61 459.65 355.01 467.22 331.7 447.39 317.3 471.9 317.3 479.47 293.99"/><path class="cls-1" d="m609.17,666.89c-85.21-27.68-175.29-27.68-260.52,0l-6.96-21.4c89.77-29.17,184.67-29.17,274.43,0l-6.96,21.4Z"/><path class="cls-1" d="m573.02,548.9c-49.71,41.51-87.18-12.67-87.18-31.46v-48.34c5.9-13.55,23.05-15.9,32.01-3.6,4.37-27.64-7.27-40.8-18.84-47.08-12.07-6.55-26.98-6.55-39.11,0-11.52,6.28-23.16,19.45-18.84,47.08,9.01-12.29,26.16-9.94,32.06,3.6v48.34c0,18.79-37.47,72.98-87.23,31.46-14.31,32.34-50.31,44.35-82.04,24.09,17.04,64.84,88.82,18.79,85.05-8.3,49.16,60.85,90.56-8.9,90.56-20.54,0,11.63,41.46,81.39,90.56,20.54-3.72,27.09,68,73.14,85.1,8.3-31.73,20.26-67.73,8.25-82.1-24.09Zm-93.57-90.51c-5.52-7.43-13.98-11.85-23.32-11.85-1.53,0-3,.11-4.48.38,1.53-8.58,6.01-14.86,13.49-18.9,4.32-2.35,9.29-3.6,14.31-3.6s10,1.26,14.37,3.6c7.48,4.04,11.96,10.27,13.49,18.9-1.47-.27-3-.38-4.48-.38-9.39,0-17.81,4.42-23.38,11.85Z"/><path class="cls-1" d="m488.26,598.23c.04-8.45-2.92-13.08-8.9-18.58-5.98,5.5-8.94,10.13-8.9,18.58-6.11-.25-9.86.44-15.87,3.29,6.1,8.44,10.73,12.32,17.34,14.23,4.81,1.39,9.99,1.39,14.81,0,6.64-1.92,11.3-5.79,17.4-14.24-6.01-2.85-9.76-3.54-15.87-3.29Z"/><path class="cls-1" d="m406.65,602.86c-1.51-8.32-5.27-12.32-12.16-16.63-4.87,6.51-6.93,11.6-5.34,19.9-6.05.88-9.61,2.24-15,6.15,7.54,7.18,12.8,10.14,19.66,10.81,4.99.49,10.08-.46,14.56-2.71,6.17-3.1,10.04-7.76,14.49-17.19-6.44-1.7-10.24-1.69-16.2-.32Z"/><path class="cls-1" d="m552.07,602.86c1.51-8.32,5.27-12.32,12.16-16.63,4.87,6.51,6.93,11.6,5.34,19.9,6.05.88,9.61,2.24,15,6.15-7.54,7.18-12.8,10.14-19.66,10.81-4.99.49-10.08-.46-14.56-2.71-6.17-3.1-10.04-7.76-14.49-17.19,6.44-1.7,10.24-1.69,16.2-.32Z"/></g><circle class="cls-5" cx="479.47" cy="479.47" r="479.47"/></g></g></g></g></g></svg>