<?xml version="1.0" encoding="UTF-8"?><svg xmlns="http://www.w3.org/2000/svg" xmlns:xlink="http://www.w3.org/1999/xlink" viewBox="0 0 958.95 958.95"><defs><style>.cls-1{fill:#fff;}.cls-2{isolation:isolate;}.cls-3{fill:#000095;}.cls-4{fill:url(#radial-gradient);mix-blend-mode:multiply;opacity:.3;}.cls-5{clip-path:url(#clippath);}.cls-6{fill:none;}.cls-7{fill:#fe0000;}</style><clipPath id="clippath"><circle class="cls-6" cx="479.47" cy="479.47" r="479.47"/></clipPath><radialGradient id="radial-gradient" cx="479.47" cy="479.47" fx="479.47" fy="479.47" r="479.47" gradientUnits="userSpaceOnUse"><stop offset="0" stop-color="#fff"/><stop offset=".36" stop-color="#fdfdfd"/><stop offset=".48" stop-color="#f6f6f6"/><stop offset=".58" stop-color="#eaeaea"/><stop offset=".65" stop-color="#d9d9d9"/><stop offset=".71" stop-color="#c3c3c3"/><stop offset=".77" stop-color="#a8a8a8"/><stop offset=".82" stop-color="#878787"/><stop offset=".87" stop-color="#626262"/><stop offset=".91" stop-color="#373737"/><stop offset=".95" stop-color="#090909"/><stop offset=".96" stop-color="#000"/></radialGradient></defs><g class="cls-2"><g id="Layer_2"><g id="Layer_1-2"><g id="Taiwan"><g class="cls-5"><g><rect class="cls-7" width="1438.99" height="958.95"/><rect class="cls-3" width="719.49" height="479.47"/><g><path class="cls-1" d="m381.89,141.67l-22.14-80.49-22.14,80.49c7.13-1.6,14.52-2.52,22.13-2.52s15.01.92,22.15,2.52Z"/><path class="cls-1" d="m329.82,143.67l-59.35-58.57,21.09,80.83c10.84-10.02,23.82-17.77,38.27-22.26Z"/><path class="cls-1" d="m285.94,171.54l-80.83-21.09,58.56,59.34c4.5-14.45,12.25-27.42,22.27-38.25Z"/><path class="cls-1" d="m259.13,239.75c0-7.62.92-15.02,2.53-22.15l-80.47,22.13,80.47,22.13c-1.6-7.13-2.52-14.51-2.52-22.12Z"/><path class="cls-1" d="m263.67,269.68l-58.56,59.34,80.82-21.08c-10.02-10.84-17.77-23.81-22.26-38.25Z"/><path class="cls-1" d="m270.47,394.37l59.33-58.55c-14.44-4.5-27.41-12.25-38.25-22.27l-21.08,80.82Z"/><path class="cls-1" d="m337.62,337.84l22.13,80.46,22.13-80.46c-7.13,1.6-14.52,2.52-22.14,2.52s-15-.92-22.12-2.52Z"/><path class="cls-1" d="m389.69,335.82l59.33,58.55-21.08-80.81c-10.84,10.02-23.8,17.77-38.25,22.27Z"/><path class="cls-1" d="m433.56,307.93l80.82,21.08-58.56-59.34c-4.49,14.44-12.24,27.42-22.25,38.26Z"/><path class="cls-1" d="m538.3,239.74l-80.48-22.14c1.6,7.14,2.52,14.53,2.52,22.15s-.92,14.99-2.52,22.12l80.48-22.14Z"/><path class="cls-1" d="m455.81,209.81l58.57-59.35-80.83,21.09c10.02,10.84,17.77,23.81,22.26,38.26Z"/><path class="cls-1" d="m449.02,85.1l-59.35,58.57c14.45,4.49,27.43,12.24,38.27,22.26l21.09-80.83Z"/><path class="cls-1" d="m359.74,149.72c-49.72,0-90.03,40.31-90.03,90.03s40.31,89.98,90.03,89.98,90.03-40.26,90.03-89.98-40.31-90.03-90.03-90.03Z"/></g></g><circle class="cls-4" cx="479.47" cy="479.47" r="479.47"/></g></g></g></g></g></svg>