<?xml version="1.0" encoding="UTF-8"?><svg xmlns="http://www.w3.org/2000/svg" xmlns:xlink="http://www.w3.org/1999/xlink" viewBox="0 0 958.95 958.95"><defs><style>.cls-1{fill:#fff;}.cls-2{isolation:isolate;}.cls-3{fill:#1eb53a;}.cls-4{fill:#ce1126;}.cls-5{fill:url(#radial-gradient);mix-blend-mode:multiply;opacity:.3;}.cls-6{clip-path:url(#clippath);}.cls-7{fill:none;}.cls-8{fill:#0099b5;}</style><clipPath id="clippath"><circle class="cls-7" cx="479.47" cy="479.47" r="479.47"/></clipPath><radialGradient id="radial-gradient" cx="479.47" cy="479.47" fx="479.47" fy="479.47" r="479.47" gradientUnits="userSpaceOnUse"><stop offset="0" stop-color="#fff"/><stop offset=".36" stop-color="#fdfdfd"/><stop offset=".48" stop-color="#f6f6f6"/><stop offset=".58" stop-color="#eaeaea"/><stop offset=".65" stop-color="#d9d9d9"/><stop offset=".71" stop-color="#c3c3c3"/><stop offset=".77" stop-color="#a8a8a8"/><stop offset=".82" stop-color="#878787"/><stop offset=".87" stop-color="#626262"/><stop offset=".91" stop-color="#373737"/><stop offset=".95" stop-color="#090909"/><stop offset=".96" stop-color="#000"/></radialGradient></defs><g class="cls-2"><g id="Layer_2"><g id="Layer_1-2"><g id="Uzbekistan"><g class="cls-6"><g><rect class="cls-8" y="278.95" width="1917.9" height="27.62"/><rect class="cls-8" y="0" width="1917.9" height="306.57"/><rect class="cls-3" y="652.38" width="1917.9" height="306.57"/><rect class="cls-4" y="306.57" width="1917.9" height="19.63"/><rect class="cls-4" y="632.75" width="1917.9" height="19.63"/><rect class="cls-1" y="326.2" width="1917.9" height="306.54"/><path class="cls-1" d="m289.7,268.79c-6.44,1.11-13.09,1.71-19.87,1.71-64.14,0-116.17-52.03-116.17-116.17s52.03-116.22,116.17-116.22c6.78,0,13.43.6,19.87,1.71-54.72,9.43-96.3,57.11-96.3,114.51s41.58,105.04,96.3,114.47Z"/><polygon class="cls-1" points="337.61 222.56 342.74 238.34 359.32 238.34 345.9 248.09 351.03 263.86 337.61 254.11 324.19 263.86 329.32 248.09 315.9 238.34 332.49 238.34 337.61 222.56"/><polygon class="cls-1" points="429.69 222.56 434.82 238.34 451.4 238.34 437.98 248.09 443.11 263.86 429.69 254.11 416.27 263.86 421.4 248.09 407.98 238.34 424.57 238.34 429.69 222.56"/><polygon class="cls-1" points="521.77 222.56 526.9 238.34 543.48 238.34 530.06 248.09 535.19 263.86 521.77 254.11 508.35 263.86 513.48 248.09 500.06 238.34 516.65 238.34 521.77 222.56"/><polygon class="cls-1" points="613.85 222.56 618.98 238.34 635.56 238.34 622.15 248.09 627.27 263.86 613.85 254.11 600.43 263.86 605.56 248.09 592.14 238.34 608.73 238.34 613.85 222.56"/><polygon class="cls-1" points="705.93 222.56 711.06 238.34 727.64 238.34 714.23 248.09 719.35 263.86 705.93 254.11 692.52 263.86 697.64 248.09 684.22 238.34 700.81 238.34 705.93 222.56"/><polygon class="cls-1" points="429.69 129.88 434.82 145.65 451.4 145.65 437.98 155.4 443.11 171.17 429.69 161.43 416.27 171.17 421.4 155.4 407.98 145.65 424.57 145.65 429.69 129.88"/><polygon class="cls-1" points="521.77 129.88 526.9 145.65 543.48 145.65 530.06 155.4 535.19 171.17 521.77 161.43 508.35 171.17 513.48 155.4 500.06 145.65 516.65 145.65 521.77 129.88"/><polygon class="cls-1" points="613.85 129.88 618.98 145.65 635.56 145.65 622.15 155.4 627.27 171.17 613.85 161.43 600.43 171.17 605.56 155.4 592.14 145.65 608.73 145.65 613.85 129.88"/><polygon class="cls-1" points="705.93 129.88 711.06 145.65 727.64 145.65 714.23 155.4 719.35 171.17 705.93 161.43 692.52 171.17 697.64 155.4 684.22 145.65 700.81 145.65 705.93 129.88"/><polygon class="cls-1" points="521.77 37.19 526.9 52.97 543.48 52.97 530.06 62.72 535.19 78.49 521.77 68.74 508.35 78.49 513.48 62.72 500.06 52.97 516.65 52.97 521.77 37.19"/><polygon class="cls-1" points="613.85 37.19 618.98 52.97 635.56 52.97 622.15 62.72 627.27 78.49 613.85 68.74 600.43 78.49 605.56 62.72 592.14 52.97 608.73 52.97 613.85 37.19"/><polygon class="cls-1" points="705.93 37.19 711.06 52.97 727.64 52.97 714.23 62.72 719.35 78.49 705.93 68.74 692.52 78.49 697.64 62.72 684.22 52.97 700.81 52.97 705.93 37.19"/></g><circle class="cls-5" cx="479.47" cy="479.47" r="479.47"/></g></g></g></g></g></svg>